<svg width="137" height="119" viewBox="0 0 137 119" fill="none" xmlns="http://www.w3.org/2000/svg">
<path d="M68.4995 118.377C67.8108 118.377 67.1759 118.011 66.8335 117.415L1.06933 3.50891C0.72689 2.91252 0.72689 2.18147 1.06933 1.58508C1.41177 0.988696 2.04664 0.623169 2.73537 0.623169H134.26C134.949 0.623169 135.583 0.988696 135.926 1.58508C136.268 2.18147 136.268 2.91252 135.926 3.50891L70.1655 117.415C69.8231 118.007 69.1882 118.377 68.4995 118.377ZM6.07128 4.47083L68.4995 112.605L130.928 4.47467H6.07128V4.47083Z" fill="#3CF2F2"/>
<path d="M68.5005 41.0159C68.1772 41.0159 67.8579 40.9351 67.5655 40.7735L1.80518 4.22842C1.03949 3.80133 0.658574 2.91252 0.87789 2.06604C1.09721 1.21571 1.86289 0.623169 2.74015 0.623169H134.265C135.142 0.623169 135.908 1.21571 136.127 2.06604C136.346 2.91637 135.965 3.80518 135.2 4.22842L69.4354 40.7735C69.143 40.9351 68.8236 41.0159 68.5005 41.0159ZM10.1623 4.47083L68.5005 36.8912L126.839 4.47083H10.1623Z" fill="#3CF2F2"/>
<path d="M68.5 117.342C67.438 117.342 66.5762 116.48 66.5762 115.418V38.638C66.5762 37.576 67.438 36.7142 68.5 36.7142C69.562 36.7142 70.4238 37.576 70.4238 38.638V115.418C70.4238 116.48 69.562 117.342 68.5 117.342Z" fill="#3CF2F2"/>
</svg>
