<svg width="84" height="32" viewBox="0 0 84 32" fill="none" xmlns="http://www.w3.org/2000/svg">
<g opacity="0.8" clip-path="url(#clip0_0_677)">
<path opacity="0.5" d="M15.4267 10.9199L8.95191 14.6551L2.49329 10.9199L8.95191 7.17188L15.4267 10.9199Z" fill="#F1F1F1"/>
<path d="M7.51264 15.4853L1.77057 18.8118V12.1587L7.51264 15.4853Z" fill="#F1F1F1"/>
<path opacity="0.5" d="M15.4267 20.0502L8.96488 23.7983L2.49005 20.0502L8.96488 16.3184L15.4267 20.0502Z" fill="#F1F1F1"/>
<path d="M0.554429 21.0814L8.42668 25.6304C8.77036 25.8281 9.19185 25.8281 9.53554 25.6304L17.4434 21.0587C18.1827 20.6308 18.1794 19.5673 17.4434 19.1426L11.1243 15.4982L17.3365 11.9155C18.0757 11.4908 18.0757 10.4241 17.3365 9.99934L9.52581 5.49257C9.18213 5.29479 8.76063 5.29479 8.42019 5.49257L0.554429 10.0318C0.210748 10.2295 0 10.5959 0 10.9915V20.125C0 20.5205 0.210748 20.8837 0.554429 21.0814ZM8.95193 7.57087L14.7361 10.9039L8.95193 14.2402L3.1677 10.9072L8.95193 7.57087ZM6.82175 15.4853L2.11721 18.212V12.7585L6.82175 15.4853ZM8.95193 23.3997L3.18392 20.0666L8.96489 16.7303L14.7491 20.0634L8.95193 23.3997Z" fill="#F1F1F1"/>
<path d="M28.2662 12.1942C28.8465 12.1942 29.401 12.3466 29.8841 12.6222C30.3412 12.8848 30.9216 12.8005 31.2945 12.4277C31.8327 11.8894 31.7386 10.9751 31.074 10.586C30.231 10.1029 29.2745 9.84031 28.2662 9.84031C25.1666 9.84031 22.6635 12.3596 22.6635 15.4722C22.6635 18.5718 25.1828 21.104 28.2662 21.104C29.2615 21.104 30.231 20.8414 31.074 20.3583C31.7386 19.9724 31.8359 19.0581 31.2945 18.5329C30.9216 18.16 30.3412 18.0757 29.8841 18.3383C29.401 18.6139 28.8336 18.7663 28.2662 18.7663C26.4667 18.7663 25.0012 17.2846 25.0012 15.4722C25.0012 13.6727 26.4667 12.1942 28.2662 12.1942ZM41.7832 9.85328C41.1315 9.85328 40.6063 10.3785 40.6063 11.0302V15.43C40.6063 17.2716 39.4293 18.7631 37.9898 18.7631C36.5502 18.7631 35.3732 17.2684 35.3732 15.43V11.0302C35.3732 10.3785 34.848 9.85328 34.1963 9.85328C33.5446 9.85328 33.0193 10.3785 33.0193 11.0302V15.43C33.0193 18.5556 35.2468 21.104 37.9736 21.104C40.7133 21.104 42.9277 18.5588 42.9277 15.43V11.0302C42.9602 10.3785 42.4349 9.85328 41.7832 9.85328ZM61.6519 9.85328C60.475 9.85328 59.3693 10.2391 58.4842 10.8778V7.50263C58.4842 6.85093 57.959 6.32568 57.3073 6.32568C56.6556 6.32568 56.1303 6.85093 56.1303 7.50263V15.4722C56.1303 18.5718 58.6074 21.104 61.6519 21.104C64.6964 21.104 67.1735 18.5847 67.1735 15.4722C67.1605 12.3855 64.6834 9.85328 61.6519 9.85328ZM61.6519 18.7793C59.8946 18.7793 58.4842 17.2976 58.4842 15.4851C58.4842 13.6727 59.9108 12.191 61.6519 12.191C63.4092 12.191 64.8326 13.6727 64.8326 15.4851C64.8229 17.2976 63.3963 18.7793 61.6519 18.7793ZM69.5533 9.85328C68.9016 9.85328 68.3764 10.3785 68.3764 11.0302V19.94C68.3764 20.5917 68.9016 21.117 69.5533 21.117C70.205 21.117 70.7303 20.5917 70.7303 19.94V11.0302C70.7303 10.3785 70.205 9.85328 69.5533 9.85328ZM49.5452 9.85328C46.5007 9.85328 44.0236 12.3725 44.0236 15.4851C44.0236 18.5847 46.598 21.117 49.7657 21.117C50.7903 21.117 51.7857 20.8543 52.6449 20.355C53.3095 19.9822 53.4198 19.0678 52.8945 18.5296C52.5217 18.1568 51.9543 18.0595 51.4971 18.3221C50.9848 18.6139 50.3915 18.7793 49.7819 18.7793C48.3294 18.7793 47.0973 17.8941 46.6012 16.6621H53.9061C54.5578 16.6621 55.083 16.1368 55.083 15.4851C55.0668 12.3855 52.5897 9.85328 49.5452 9.85328ZM46.5721 14.3082C47.0292 13.0761 48.19 12.191 49.5452 12.191C50.9005 12.191 52.0645 13.0761 52.5184 14.3082H46.5721ZM69.5533 6.35486C68.9016 6.35486 68.3764 6.88011 68.3764 7.53181C68.3764 8.18351 68.9016 8.70876 69.5533 8.70876C70.205 8.70876 70.7303 8.18351 70.7303 7.53181C70.7303 6.86714 70.205 6.35486 69.5533 6.35486ZM77.4677 9.85328C74.4232 9.85328 71.9461 12.3725 71.9461 15.4851C71.9461 18.5847 74.4232 21.117 77.4677 21.117C78.6447 21.117 79.7503 20.7311 80.6484 20.0794V23.4546C80.6484 24.1063 81.1737 24.6316 81.8254 24.6316C82.4771 24.6316 83.0023 24.1063 83.0023 23.4546V15.4851C82.9893 12.3855 80.5122 9.85328 77.4677 9.85328ZM77.4677 18.7793C75.7104 18.7793 74.2871 17.2976 74.2871 15.4851C74.2871 13.6727 75.7137 12.191 77.4677 12.191C79.2251 12.191 80.6484 13.6727 80.6484 15.4851C80.6484 17.2976 79.2251 18.7793 77.4677 18.7793Z" fill="#F1F1F1"/>
</g>
<defs>
<clipPath id="clip0_0_677">
<rect width="83.0023" height="31.1259" fill="white"/>
</clipPath>
</defs>
</svg>
