<svg width="125" height="32" viewBox="0 0 125 32" fill="none" xmlns="http://www.w3.org/2000/svg">
<g opacity="0.8" clip-path="url(#clip0_0_680)">
<path opacity="0.5" d="M10.0388 4.24088C12.4033 -0.0112822 18.4258 -0.0112846 20.7903 4.24088C20.7903 4.24088 21.0114 4.6034 21.1263 4.84941C22.1082 6.95215 21.1168 8.38805 20.0677 10.6984C19.5316 11.8788 18.7915 12.9749 17.9785 14.0859C17.7641 14.3789 17.5428 14.6753 17.319 14.9748C16.7098 15.7905 16.0831 16.6295 15.5313 17.488C13.9893 19.887 12.9145 22.6078 13.8413 26.2332C14.2942 28.0049 15.0635 29.2314 15.9132 30.0742H6.26164C1.53174 30.0742 -1.4426 24.888 0.885858 20.7006L10.0388 4.24088Z" fill="#F1F1F1"/>
<path d="M27.3826 29.3949C26.5531 29.8264 25.6025 30.0747 24.5677 30.0747H19.5533C19.0468 30.0747 18.5336 30.0056 18.0927 29.7561C17.1713 29.2346 16.0241 28.159 15.4387 25.8692C14.6492 22.7809 15.5269 20.4863 16.9361 18.2941C17.4564 17.4849 18.0336 16.7119 18.6314 15.9115C18.862 15.6027 19.0958 15.2897 19.3305 14.9691C20.1584 13.8376 20.9752 12.6382 21.5779 11.3109C22.1738 9.99866 22.5084 8.75629 22.6742 7.62891L29.9433 20.7013C31.6896 23.8417 30.4533 27.544 27.7306 29.1989C27.6171 29.2679 27.5012 29.3332 27.3826 29.3949Z" fill="#F1F1F1"/>
<path d="M51.1523 23.9671H54.6034L48.3916 7.65536H44.7105L38.4526 23.9671H41.8116L43.169 20.2401H49.7949L51.1523 23.9671ZM46.482 11.1754L48.7366 17.3412H44.2273L46.482 11.1754ZM59.5194 23.9671V12.6478H56.4596V23.9671H59.5194ZM56.0914 8.94374C56.0914 9.95603 56.9427 10.8073 57.9779 10.8073C59.0363 10.8073 59.8644 9.95603 59.8644 8.94374C59.8644 7.88543 59.0363 7.03418 57.9779 7.03418C56.9427 7.03418 56.0914 7.88543 56.0914 8.94374ZM69.6974 12.6018C69.4673 12.5788 69.2372 12.5558 68.9842 12.5558C68.0179 12.5558 66.4535 12.8319 65.7633 14.3273V12.6478H62.7954V23.9671H65.8552V18.7906C65.8552 16.3519 67.2126 15.5927 68.777 15.5927C69.0531 15.5927 69.3522 15.6157 69.6974 15.6847V12.6018ZM74.9096 23.9671V17.3412C74.9096 16.0988 75.6918 15.1095 77.0263 15.1095C78.4066 15.1095 79.0279 16.0299 79.0279 17.2492V23.9671H82.0647V17.3412C82.0647 16.1218 82.847 15.1095 84.1584 15.1095C85.5618 15.1095 86.1599 16.0299 86.1599 17.2492V23.9671H89.1278V16.628C89.1278 13.5911 87.1262 12.3257 85.0325 12.3257C83.5371 12.3257 82.3408 12.8319 81.4436 14.2123C80.8684 12.9929 79.626 12.3257 78.0846 12.3257C76.8422 12.3257 75.3928 12.9239 74.7716 14.0282V12.6478H71.8498V23.9671H74.9096ZM94.4595 17.0191C94.5284 15.9838 95.4027 14.7874 96.9902 14.7874C98.7387 14.7874 99.4749 15.8918 99.5209 17.0191H94.4595ZM99.82 19.964C99.4519 20.9762 98.6697 21.6895 97.2432 21.6895C95.7247 21.6895 94.4595 20.6082 94.3904 19.1127H102.489C102.489 19.0667 102.535 18.6066 102.535 18.1695C102.535 14.5344 100.441 12.3027 96.9441 12.3027C94.0453 12.3027 91.3764 14.6494 91.3764 18.2614C91.3764 22.0806 94.1143 24.3122 97.2202 24.3122C100.004 24.3122 101.798 22.6788 102.374 20.7232L99.82 19.964ZM107.176 17.0191C107.245 15.9838 108.119 14.7874 109.707 14.7874C111.455 14.7874 112.191 15.8918 112.237 17.0191H107.176ZM112.537 19.964C112.169 20.9762 111.386 21.6895 109.96 21.6895C108.441 21.6895 107.176 20.6082 107.107 19.1127H115.205C115.205 19.0667 115.251 18.6066 115.251 18.1695C115.251 14.5344 113.158 12.3027 109.661 12.3027C106.762 12.3027 104.093 14.6494 104.093 18.2614C104.093 22.0806 106.831 24.3122 109.937 24.3122C112.721 24.3122 114.515 22.6788 115.09 20.7232L112.537 19.964ZM121.434 9.26583H118.673V10.8533C118.673 11.8656 118.121 12.6478 116.925 12.6478H116.35V15.3626H118.397V20.6312C118.397 22.8167 119.778 24.1282 121.986 24.1282C122.883 24.1282 123.436 23.9671 123.712 23.8521V21.3214C123.551 21.3673 123.137 21.4134 122.768 21.4134C121.894 21.4134 121.434 21.0912 121.434 20.1021V15.3626H123.712V12.6478H121.434V9.26583Z" fill="#F1F1F1"/>
</g>
<defs>
<clipPath id="clip0_0_680">
<rect width="124.815" height="31.1259" fill="white" transform="translate(0.0766296)"/>
</clipPath>
</defs>
</svg>
