<svg width="144" height="32" viewBox="0 0 144 32" fill="none" xmlns="http://www.w3.org/2000/svg">
<g opacity="0.8" clip-path="url(#clip0_0_681)">
<path opacity="0.25" d="M0.914673 21.8341C0.914673 21.1375 1.19147 20.4695 1.68418 19.9768C2.17689 19.4842 2.84515 19.2075 3.54195 19.2075H10.5208V28.8113H3.54195C2.84515 28.8113 2.17689 28.5346 1.68418 28.042C1.19147 27.5494 0.914673 26.8813 0.914673 26.1847V21.8341Z" fill="#F1F1F1"/>
<path opacity="0.5" d="M10.5199 12.1051C10.528 11.7683 10.6024 11.4365 10.7389 11.1285C10.8753 10.8204 11.0711 10.5424 11.3151 10.31C11.5591 10.0777 11.8465 9.89566 12.1608 9.77442C12.4751 9.65316 12.8104 9.59502 13.1471 9.60332H20.126V28.8109H10.5199V12.1051Z" fill="#F1F1F1"/>
<path d="M20.1252 2.53959C20.1309 2.20032 20.2033 1.86547 20.3384 1.5542C20.4735 1.24291 20.6685 0.961279 20.9125 0.725391C21.1565 0.489501 21.4446 0.303974 21.7602 0.179405C22.0759 0.0548375 22.4131 -0.0063321 22.7525 -0.00060906H27.104C27.4434 -0.0063321 27.7806 0.0548375 28.0962 0.179405C28.4119 0.303974 28.7 0.489501 28.9439 0.725391C29.188 0.961279 29.383 1.24291 29.5181 1.5542C29.6532 1.86547 29.7256 2.20032 29.7313 2.53959V26.2706C29.7256 26.6099 29.6532 26.9447 29.5181 27.2559C29.383 27.5672 29.188 27.8489 28.9439 28.0847C28.7 28.3207 28.4119 28.5062 28.0962 28.6308C27.7806 28.7553 27.4434 28.8165 27.104 28.8108H20.1252V2.53959Z" fill="#F1F1F1"/>
<path d="M34.7047 10.7991C34.7047 13.8098 36.453 15.7211 39.7912 16.4461L42.9083 17.1424C44.5222 17.4929 45.1946 18.2757 45.1946 19.5913C45.1946 21.2335 43.7537 22.2276 41.4579 22.2276C39.2532 22.2276 37.9084 21.2335 37.8795 19.5625H34.4358C34.5174 23.0871 37.2599 25.3248 41.4579 25.3248C45.7805 25.3248 48.6624 22.9575 48.6624 19.2985C48.6624 16.3693 47.0198 14.6502 43.6576 13.9203L40.5645 13.248C38.9266 12.8734 38.1629 12.0956 38.1629 10.6934C38.1629 9.05598 39.5366 8.03317 41.6596 8.03317C43.5808 8.03317 44.8056 9.02717 44.8872 10.7222H48.331C48.2205 7.17363 45.6941 4.95996 41.7124 4.95996C37.5578 4.96476 34.7047 7.3561 34.7047 10.7991Z" fill="#F1F1F1"/>
<path d="M50.9995 31.1251H54.2801V23.1923C55.1158 24.5369 56.8353 25.3196 58.8237 25.3196C62.7766 25.3196 65.0388 22.3088 65.0388 18.1648C65.0388 14.0208 62.5653 11.2837 58.8237 11.2837C56.8065 11.2837 55.0581 12.1673 54.2512 13.6846L54.0399 11.6678H50.9995V31.1251ZM54.3088 18.328C54.3088 15.927 55.7882 14.2657 58.0456 14.2657C60.303 14.2657 61.7295 15.9607 61.7295 18.328C61.7295 20.6954 60.3558 22.3616 58.0456 22.3616C55.7353 22.3616 54.3088 20.7194 54.3088 18.328Z" fill="#F1F1F1"/>
<path d="M73.3231 25.3196C76.7958 25.3196 79.2165 23.5717 79.7833 20.6666H76.7429C76.3635 21.9295 75.182 22.6305 73.3808 22.6305C71.2003 22.6305 69.961 21.4445 69.7208 19.1059H79.7256V18.0831C79.7256 13.9439 77.1992 11.2837 73.2175 11.2837C69.3175 11.2837 66.5989 14.1648 66.5989 18.328C66.5989 22.4913 69.3703 25.3196 73.3231 25.3196ZM73.2464 13.9728C75.2059 13.9728 76.474 15.1828 76.474 17.0075H69.8025C70.1243 15.0195 71.3108 13.9728 73.2464 13.9728Z" fill="#F1F1F1"/>
<path d="M85.3656 24.9695V17.8146C85.3656 15.6634 86.6048 14.266 88.6221 14.266C90.3175 14.266 91.4174 15.3416 91.4174 17.5745V24.9695H94.6979V16.8062C94.6979 13.3633 92.9785 11.2936 89.6451 11.2936C88.8147 11.2578 87.9888 11.4339 87.2452 11.8052C86.5016 12.1765 85.8647 12.7309 85.3945 13.4161L85.1254 11.697H82.0851V24.9695H85.3656Z" fill="#F1F1F1"/>
<path d="M103.119 25.3206C105.137 25.3206 106.856 24.4322 107.663 22.9196L107.879 24.97H110.905V4.96533H107.648V13.3783C106.817 12.0625 105.175 11.2847 103.326 11.2847C99.315 11.2847 96.8942 14.2426 96.8942 18.3818C96.8942 22.521 99.2717 25.3206 103.119 25.3206ZM103.844 22.3098C101.558 22.3098 100.155 20.6387 100.155 18.2762C100.155 15.9136 101.558 14.2138 103.844 14.2138C106.131 14.2138 107.61 15.88 107.61 18.2762C107.61 20.6723 106.131 22.3098 103.844 22.3098Z" fill="#F1F1F1"/>
<path d="M112.725 11.6874V14.4293H114.646V24.9694H117.903V14.4293H123.186V24.9694H126.466V4.96478H123.186V11.6874H117.903V10.0836C117.903 8.76308 118.224 7.90354 119.704 7.90354H120.862V5.09924C120.301 5.00175 119.734 4.95673 119.166 4.96478C116.476 4.96478 114.646 6.46778 114.646 10.074V11.6874H112.725Z" fill="#F1F1F1"/>
<path d="M128.858 18.2997C128.858 22.4437 131.841 25.2912 135.958 25.2912C140.074 25.2912 143.057 22.4437 143.057 18.2997C143.057 14.1556 140.074 11.3081 135.958 11.3081C131.841 11.3081 128.858 14.1605 128.858 18.2997ZM132.139 18.2997C132.139 15.8988 133.7 14.242 135.982 14.242C138.263 14.242 139.8 15.8796 139.8 18.2997C139.8 20.7198 138.239 22.362 135.982 22.362C133.724 22.362 132.139 20.7198 132.139 18.2997Z" fill="#F1F1F1"/>
</g>
<defs>
<clipPath id="clip0_0_681">
<rect width="142.141" height="31.1259" fill="white" transform="translate(0.914673)"/>
</clipPath>
</defs>
</svg>
