<svg width="67" height="25" viewBox="0 0 67 25" fill="none" xmlns="http://www.w3.org/2000/svg">
<g opacity="0.75">
<path d="M66.9945 17.4058C66.7042 17.7499 66.4676 18.1828 66.1138 18.4205C65.3135 18.9597 64.5042 18.6641 63.791 17.6754C60.8274 19.0035 58.287 18.4465 56.6606 16.1132C55.9337 15.066 55.5576 13.7916 55.5922 12.4922C55.6268 11.1927 56.07 9.94277 56.8515 8.94065C57.6799 7.88637 58.8356 7.17907 60.1115 6.94547C61.3874 6.71187 62.7001 6.96722 63.8144 7.6658C64.675 6.71971 65.3659 6.49146 66.1372 7.026C66.4877 7.26844 66.7165 7.70719 67 8.05724L66.9945 17.4058ZM58.4778 12.6824C58.491 13.3996 58.7699 14.0824 59.2542 14.5836C59.7384 15.0847 60.3893 15.364 61.0663 15.3611C62.4671 15.3504 63.6503 14.1087 63.6425 12.6552C63.6347 11.2018 62.447 9.94233 61.0696 9.93523C60.3827 9.93742 59.7245 10.2276 59.2388 10.7424C58.7532 11.2571 58.4796 11.9546 58.4778 12.6824ZM45.8134 18.3093V21.6916C45.8134 21.9872 45.8234 22.2829 45.8134 22.5785C45.7643 23.5897 45.0633 24.2957 44.1089 24.3075C43.1546 24.3194 42.4067 23.6192 42.3453 22.6365C42.3063 22.0085 42.3275 21.3746 42.3264 20.7443C42.3264 16.8417 42.3364 12.9391 42.3186 9.03644C42.3186 8.16249 42.4927 7.41981 43.2684 6.99525C44.0085 6.58844 44.6938 6.7339 45.3368 7.29446C45.4372 7.38079 45.7096 7.32047 45.8692 7.24715C49.2066 5.70975 53.0587 7.74976 53.7887 11.4809C54.2262 13.716 53.6569 15.6851 52.0641 17.2272C50.4389 18.8013 48.5202 19.1939 46.4106 18.5127C46.2465 18.4548 46.0902 18.3992 45.8134 18.3093ZM48.2322 9.91276C47.8746 9.90917 47.5198 9.98059 47.1883 10.1229C46.8568 10.2652 46.5552 10.4756 46.3008 10.7419C46.0464 11.0083 45.8443 11.3253 45.706 11.6748C45.5678 12.0243 45.4961 12.3993 45.4953 12.7782C45.4929 13.3472 45.6496 13.9041 45.9458 14.3787C46.242 14.8533 46.6643 15.2243 47.1593 15.4447C47.6544 15.6652 48.2 15.7253 48.7272 15.6174C49.2545 15.5095 49.7397 15.2385 50.1217 14.8386C50.5037 14.4387 50.7652 13.9278 50.8733 13.3705C50.9814 12.8132 50.9312 12.2345 50.729 11.7074C50.5268 11.1803 50.1817 10.7285 49.7373 10.4091C49.293 10.0897 48.7692 9.91697 48.2322 9.91276ZM32.0506 18.3093C32.0506 19.7793 32.0629 21.157 32.045 22.5348C32.0462 22.9028 31.9378 23.2619 31.7352 23.5609C31.5325 23.8598 31.2461 24.0834 30.9165 24.1999C30.2089 24.4364 29.5057 24.3466 29.0402 23.7032C28.7626 23.3166 28.6026 22.8497 28.5815 22.3645C28.548 17.8126 28.5625 13.2584 28.5602 8.70886C28.5602 7.93307 28.8449 7.32757 29.509 6.97278C30.1732 6.618 30.8619 6.6795 31.4333 7.20221C31.728 7.47066 31.9356 7.31338 32.1846 7.20221C35.5041 5.7476 39.2166 7.72138 39.9868 11.3863C40.4679 13.6664 39.8975 15.6555 38.269 17.2296C36.6404 18.8036 34.7552 19.1738 32.6723 18.5163C32.4926 18.4619 32.3196 18.4027 32.0506 18.3093ZM34.4114 15.639C34.9464 15.6415 35.4702 15.4759 35.9163 15.163C36.3625 14.8502 36.7111 14.4041 36.9179 13.8813C37.1248 13.3585 37.1806 12.7824 37.0784 12.226C36.9761 11.6695 36.7204 11.1577 36.3435 10.7553C35.9667 10.3529 35.4856 10.0779 34.9613 9.96525C34.4369 9.85256 33.8928 9.90719 33.3977 10.1222C32.9026 10.3373 32.4789 10.7031 32.1801 11.1733C31.8813 11.6436 31.7209 12.1972 31.7191 12.764C31.7146 14.3085 32.9547 15.6331 34.4114 15.6437V15.639ZM14.8946 9.00333V2.79107C14.8968 1.58717 15.5944 0.806641 16.6526 0.806641C17.7108 0.806641 18.395 1.61437 18.395 2.8088C18.395 6.65466 18.4028 10.4958 18.3883 14.3464C18.3883 14.8502 18.4742 15.1742 18.9743 15.3859C19.7902 15.7407 20.1485 16.6714 19.9007 17.5418C19.785 17.9724 19.5281 18.3451 19.1761 18.5928C18.8242 18.8406 18.4004 18.9472 17.9809 18.8935C16.1157 18.6783 14.9136 17.2615 14.8979 15.2156C14.8812 13.1448 14.8946 11.0741 14.8946 9.00333ZM8.69184 12.8125L11.4433 15.484C12.3061 16.3225 12.4144 17.4862 11.7056 18.3046C10.9968 19.1229 9.89734 19.1052 9.0267 18.2679C7.64931 16.9481 6.27266 15.6275 4.89675 14.3062C4.00379 13.4476 3.99598 12.233 4.88447 11.3662C6.276 10.007 7.67386 8.65288 9.07805 7.30392C9.90515 6.51038 11.0236 6.53758 11.7167 7.34294C12.4099 8.1483 12.3206 9.28125 11.5125 10.0819C10.5927 10.9925 9.65401 11.883 8.69184 12.8125ZM22.2258 12.7735C22.2258 11.4147 22.2191 10.0535 22.2258 8.69703C22.2325 7.5298 22.9658 6.74691 24.0285 6.754C25.0531 6.75991 25.7787 7.54753 25.782 8.68876C25.7887 11.4277 25.7887 14.1658 25.782 16.9032C25.782 18.0633 25.0107 18.9136 24.0073 18.9053C22.977 18.8923 22.2314 18.0669 22.2213 16.9103C22.2202 15.5314 22.2258 14.1524 22.2258 12.7735ZM0.0926148 5.56548C0.0926148 4.65959 0.0814528 3.75371 0.0926148 2.84547C0.117171 1.58362 0.805868 0.806641 1.86514 0.806641C2.95121 0.812554 3.65107 1.63447 3.65777 2.89632C3.65777 4.74829 3.66446 6.60026 3.65777 8.4546C3.66498 8.85145 3.55205 9.24032 3.33552 9.56422C3.11898 9.88813 2.81023 10.13 2.4545 10.2545C1.73455 10.5041 0.906326 10.3018 0.503377 9.65259C0.272696 9.25669 0.137743 8.80662 0.110474 8.34225C0.0524315 7.42099 0.093731 6.49146 0.0926148 5.56548Z" fill="#F1F1F1"/>
<path d="M3.56579 16.939C3.56579 18.0778 2.90277 18.8075 1.86135 18.8063C0.870163 18.8063 0.162491 18.0471 0.158026 16.9792C0.153561 15.9113 0.906998 15.0775 1.88144 15.087C2.85589 15.0965 3.56356 15.8699 3.56579 16.939Z" fill="#F1F1F1"/>
</g>
</svg>
