<svg width="84" height="32" viewBox="0 0 84 32" fill="none" xmlns="http://www.w3.org/2000/svg">
<g opacity="0.8" clip-path="url(#clip0_0_678)">
<path d="M0.537792 11.4388L0.0255127 4.12744H7.33684V11.0983L0.537792 11.4388Z" fill="#F1F1F1"/>
<path opacity="0.5" d="M9.20766 4.46777L16.7006 4.98005V11.1015H8.85101L9.20766 4.46777Z" fill="#F1F1F1"/>
<path opacity="0.5" d="M0.537781 13.2319V18.6725L7.84587 19.5219V13.2319H0.537781Z" fill="#F1F1F1"/>
<path d="M9.52216 13.4103L9.54485 19.1394L15.9613 18.9124L16.2402 13.1963L9.52216 13.4103Z" fill="#F1F1F1"/>
<path d="M7.33707 21.2177V26.9954H0.703369L1.21565 20.874L7.33707 21.2177Z" fill="#F1F1F1"/>
<path d="M27.5911 23.9344C27.63 24.3041 27.4387 24.6575 27.108 24.8261C26.9329 24.8974 26.7481 24.9363 26.5568 24.9363C26.3818 24.9298 26.2132 24.8909 26.051 24.8261C25.7236 24.6542 25.5323 24.3041 25.5679 23.9344V15.1219H24.4494C24.0246 15.1608 23.6518 14.8496 23.6128 14.4248C23.6064 14.373 23.6096 14.3178 23.6161 14.266C23.5642 13.8445 23.8625 13.4619 24.284 13.4132C24.3391 13.4068 24.3942 13.4068 24.4494 13.41H25.5809C25.5809 11.7402 25.5809 11.1469 25.9538 10.4887C26.479 9.49981 27.5782 9.12695 28.9237 9.12695C29.2739 9.12695 30.065 9.12695 30.065 9.98292C30.065 10.7513 29.4295 10.8194 29.0761 10.8389C28.4827 10.8843 28.2201 10.9037 27.9575 11.1372C27.5846 11.4355 27.5846 11.7305 27.5846 13.423H29.2058C29.5041 13.423 30.0423 13.4878 30.0423 14.2789C30.0812 14.7069 29.7635 15.0863 29.3355 15.1219C29.2868 15.1252 29.2382 15.1252 29.1928 15.1219H27.5879L27.5911 23.9344ZM39.2633 24.035C39.2439 24.2749 39.1985 24.9266 38.3717 24.9266C38.0215 24.946 37.6941 24.758 37.5352 24.4435C37.4703 24.2684 37.4476 24.1776 37.4476 23.3897C36.5917 24.4597 35.2818 25.0628 33.9103 25.0141C31.6245 25.0141 30.2206 23.6102 30.2206 21.5222C30.2206 18.9089 32.3735 18.4907 33.5602 18.254L35.4277 17.8584C36.1734 17.7028 36.569 17.6185 36.7668 17.5601C37.2272 17.4304 37.3828 17.2618 37.3828 16.7042C37.3828 14.8366 35.4926 14.8366 35.097 14.8366C33.1873 14.8366 32.8566 15.7801 32.6588 16.3767C32.594 16.675 32.4837 17.0803 31.7348 17.0803C30.9209 17.0803 30.7037 16.6199 30.7037 16.2243C30.7523 15.7671 30.9112 15.3327 31.1641 14.9501C32.0557 13.611 33.5796 13.2155 35.0938 13.2155C36.368 13.2155 37.6843 13.4554 38.4981 14.4054C39.2439 15.297 39.2439 16.4059 39.2439 17.4791L39.2633 24.035ZM34.7598 19.5801C34.3805 19.6514 34.0043 19.7487 33.6412 19.8784C32.8631 20.0534 32.3119 20.7505 32.3216 21.5481C32.3216 22.7575 33.2651 23.3703 34.3642 23.3703C35.3045 23.3735 36.1961 22.9423 36.7797 22.2063C37.3504 21.4152 37.3731 20.3809 37.3958 18.9122C36.9192 19.1099 36.4198 19.2494 35.9108 19.3304L34.7598 19.5801ZM48.6984 21.2952C48.854 20.8802 49.0485 20.4393 49.6419 20.4393C49.9077 20.4393 50.6956 20.5949 50.6956 21.3633C50.6567 21.8334 50.5011 22.2874 50.2384 22.6797C49.8883 23.2957 48.8767 25.0076 45.7576 25.0076C41.7566 25.0076 40.463 21.8237 40.463 19.0645C40.45 18.1989 40.5829 17.3364 40.8585 16.5161C42.0484 13.1766 45.054 13.1766 45.8678 13.1766C48.4163 13.1766 49.4344 14.253 50.0277 15.2192C50.4881 15.9455 50.4881 16.2081 50.4881 16.3637C50.4686 16.9149 50.0082 17.3494 49.4538 17.3332C49.4408 17.3332 49.4246 17.3332 49.4117 17.3299C48.7956 17.3299 48.5978 16.9149 48.3579 16.4059C47.9105 15.4008 46.8794 14.7815 45.7803 14.8593C43.4523 14.8593 42.551 16.8598 42.551 18.99C42.551 20.8802 43.1216 23.2957 45.7803 23.2957C47.7938 23.2957 48.3676 21.9988 48.6984 21.2952ZM53.1597 15.1219H51.9957C51.5678 15.1544 51.1917 14.8334 51.1592 14.4054C51.156 14.36 51.156 14.3114 51.1625 14.266C51.1106 13.8445 51.4089 13.4619 51.8304 13.4132C51.8855 13.4068 51.9406 13.4068 51.9957 13.41H53.1857V10.8389C53.1857 10.5406 53.2732 9.89537 54.1746 9.89537C55.0759 9.89537 55.1862 10.5309 55.1862 10.8389V13.41H56.5479C56.9662 13.3711 57.3358 13.6759 57.3779 14.0941C57.3844 14.1492 57.3812 14.2076 57.3747 14.266C57.4168 14.6939 57.1023 15.0765 56.6711 15.1187C56.629 15.1219 56.5868 15.1219 56.5479 15.1219H55.1862V20.7051C55.1862 22.0247 55.2056 22.1901 55.2737 22.4398C55.4293 23.0752 55.8443 23.1855 56.4377 23.2309C56.9662 23.2536 57.5141 23.2957 57.5141 24.0674C57.5141 24.8358 56.8105 24.9298 56.2172 24.9298C53.163 24.9298 53.163 23.2795 53.163 21.5708V15.1219H53.1597ZM68.4082 23.9539C68.4341 24.3105 68.2428 24.6477 67.9251 24.8099C67.6008 24.9428 67.2377 24.9428 66.9135 24.8099C66.4531 24.5699 66.4531 24.2165 66.4531 23.3249C65.5096 24.5764 64.5628 24.9947 62.9579 24.9947C62.4326 24.9947 61.0223 24.9493 60.0366 23.8761C59.0931 22.8223 59.0931 21.4152 59.0931 20.3809V14.2887C59.1158 13.7245 59.5924 13.2868 60.1566 13.3127C60.6786 13.3354 61.1001 13.7472 61.1325 14.2692V19.7357C61.1325 21.2207 61.1973 21.814 61.4827 22.349C61.9885 23.273 63.0227 23.273 63.2821 23.273C64.7087 23.3249 65.9635 22.3425 66.252 20.9451C66.3623 20.3355 66.4012 19.7162 66.3623 19.1002V14.2887C66.3915 13.7245 66.8746 13.2933 67.4387 13.3225C67.9607 13.3516 68.3757 13.7667 68.4049 14.2887L68.4082 23.9539ZM78.8029 24.035C78.7835 24.2749 78.7381 24.9266 77.9113 24.9266C77.5611 24.946 77.2336 24.758 77.0748 24.4435C77.0099 24.2684 76.9872 24.1776 76.9872 23.3897C76.1313 24.4597 74.8181 25.0628 73.4499 25.0141C71.1641 25.0141 69.7602 23.6102 69.7602 21.5222C69.7602 18.9089 71.9131 18.4907 73.0997 18.254L74.9673 17.8584C75.713 17.7028 76.1086 17.6185 76.3064 17.5601C76.7668 17.4304 76.9224 17.2618 76.9224 16.7042C76.9224 14.8366 75.0321 14.8366 74.6366 14.8366C72.7269 14.8366 72.3962 15.7801 72.1984 16.3767C72.1335 16.675 72.0233 17.0803 71.2743 17.0803C70.4605 17.0803 70.2433 16.6199 70.2433 16.2243C70.2919 15.7671 70.4508 15.3327 70.7037 14.9501C71.5953 13.611 73.1192 13.2155 74.6333 13.2155C75.9076 13.2155 77.2272 13.4554 78.0377 14.4054C78.7835 15.297 78.7835 16.4059 78.7835 17.4791L78.8029 24.035ZM74.3091 19.5801C73.9298 19.6514 73.5537 19.7487 73.1905 19.8784C72.4124 20.0534 71.8612 20.7505 71.8709 21.5481C71.8709 22.7575 72.8144 23.3703 73.9135 23.3703C74.8538 23.3735 75.7454 22.9423 76.329 22.2063C76.8997 21.4152 76.9224 20.3809 76.9451 18.9122C76.4685 19.1099 75.9692 19.2494 75.4601 19.3304L74.3091 19.5801ZM83.0244 23.9344C83.0244 24.4921 82.5704 24.9428 82.0128 24.9428C81.4551 24.9428 81.0044 24.4921 81.0044 23.9344V10.1158C80.9785 9.60681 81.3675 9.17559 81.8766 9.14641C81.922 9.14316 81.9706 9.14641 82.016 9.14965C82.5153 9.09129 82.966 9.45118 83.0211 9.95049C83.0276 10.0056 83.0276 10.0607 83.0244 10.1158V23.9344V23.9344Z" fill="#F1F1F1"/>
</g>
<defs>
<clipPath id="clip0_0_678">
<rect width="83.0023" height="31.1259" fill="white" transform="translate(0.0255127)"/>
</clipPath>
</defs>
</svg>
