<svg width="84" height="32" viewBox="0 0 84 32" fill="none" xmlns="http://www.w3.org/2000/svg">
<g opacity="0.8" clip-path="url(#clip0_0_679)">
<path d="M16.7812 7.2334V23.9182H14.4954V7.2334H16.7812ZM0.0510864 23.9214V7.2334H7.21328H7.86173C9.79413 7.2334 10.9127 7.71974 11.6066 8.45574C12.3134 9.19174 12.8451 10.4757 12.8451 12.5086C12.8451 14.454 12.3004 15.6179 11.5612 16.3248C10.8381 17.0316 9.64498 17.5471 7.64126 17.5471L6.88905 17.5633H2.30771V23.9149H0.0510864V23.9214ZM2.30771 15.6795H6.52267C8.29295 15.6795 9.23646 15.3261 9.7228 14.9727C10.2254 14.6031 10.6501 13.9417 10.6501 12.6448C10.6501 11.1112 10.2967 10.2714 9.95624 9.87261C9.6158 9.47381 8.96735 9.14959 7.76122 9.14959C6.55509 9.14959 2.2915 9.13662 2.2915 9.13662V15.6828H2.30771V15.6795ZM20.8924 15.4882H18.8595C19.0054 14.0584 19.3751 13.4845 19.9651 12.9528C20.5552 12.421 21.7646 11.7596 23.6062 11.7596C25.7429 11.7596 26.7447 12.246 27.4678 12.8944C28.3367 13.6596 28.7355 14.7944 28.7355 17.051C28.7355 17.051 28.7355 21.9598 28.7355 22.5629C28.7355 23.4318 28.943 23.8306 28.943 23.8306V23.9344H26.8355L26.7901 23.0071L26.7448 22.9909C25.7721 24.0219 24.874 24.1257 23.0291 24.1549C20.3607 24.184 18.4899 22.9163 18.4607 20.6305C18.4445 19.2169 18.8725 18.2863 19.5501 17.7254C20.2148 17.1807 21.3204 16.6652 23.0875 16.649C25.0036 16.6198 26.2422 16.8986 26.7577 17.6379L26.8031 17.6217V16.8273C26.8031 15.485 26.5081 14.7198 26.1255 14.321C25.7559 13.9222 25.0782 13.4942 23.8105 13.5105C21.8651 13.5299 21.0416 14.1622 20.8924 15.4882ZM23.5608 18.3188C22.2769 18.335 21.5409 18.4971 21.0708 18.8505C20.6136 19.1909 20.3931 19.6157 20.3931 20.5008C20.4093 21.4151 20.7011 21.6226 21.1291 21.9307C21.5701 22.2549 22.2347 22.4008 23.3987 22.3878C25.7559 22.3586 26.6864 21.976 26.6572 20.4262C26.641 19.5411 26.4497 19.1423 26.0671 18.8505C25.6553 18.5263 24.8869 18.2896 23.5608 18.3188ZM38.6569 19.6902H40.6768C40.5601 21.4443 40.3818 21.9144 39.7333 22.712C39.0557 23.5226 38.1251 24.0543 36.0047 24.0543C33.8518 24.0543 32.6424 23.8631 31.6698 22.832C30.8884 22.0052 30.4183 20.3711 30.4183 17.8486C30.4183 15.4753 30.9046 14.1622 31.6568 13.264C32.3798 12.4081 33.6897 11.7596 35.6351 11.7596C37.4767 11.7596 38.6861 12.1292 39.4837 12.7485C40.2813 13.3678 40.6768 14.4442 40.6768 16.02H38.6569C38.6569 15.3132 38.378 14.3988 37.8463 14.0746C37.3146 13.7666 36.6369 13.6174 35.5183 13.6174C34.3382 13.6174 33.5276 14.1913 33.1742 14.6939C32.7916 15.2386 32.5257 16.1529 32.5257 18.0107C32.5257 19.8232 32.9375 21.0034 33.3201 21.5027C33.7189 22.0052 34.5586 22.1803 36.0014 22.1803C37.2238 22.1803 37.6226 21.9015 37.9468 21.5772C38.3035 21.2368 38.5823 20.9126 38.6569 19.6902ZM51.1558 12.7323C50.2707 12.0676 49.431 11.7596 47.531 11.7596C45.6732 11.7596 44.2433 12.3205 43.4781 13.1441C42.7259 13.9709 42.1358 15.472 42.1358 17.8454C42.1358 20.5592 42.6676 22.002 43.5657 22.8288C44.6551 23.8177 45.7186 24.0673 47.6769 24.0673C49.8719 24.0673 51.0067 23.4026 51.6714 22.5791C52.1577 21.976 52.4366 21.3989 52.5565 20.2512L50.4944 20.0145C50.4361 20.7375 50.141 21.1947 49.8751 21.4443C49.5217 21.7523 49.1975 22.1382 47.9428 22.1382C46.4546 22.1382 45.7023 21.9923 45.229 21.4735C44.801 21.0034 44.3438 20.1312 44.3309 18.3479H52.7932V16.7852C52.777 15.0927 52.2453 13.5429 51.1558 12.7323ZM44.3763 16.5647C44.48 15.5466 44.7297 14.9273 45.0409 14.561C45.4819 14.0454 46.3378 13.6012 47.3981 13.6012C48.562 13.6012 49.2267 13.8509 49.8168 14.2789C50.5236 14.7944 50.6857 15.3391 50.6857 16.5647H44.3763Z" fill="#F1F1F1"/>
<path opacity="0.5" d="M75.8007 14.7362C75.8299 16.4611 75.8299 17.6121 75.6678 18.0368L73.1031 16.0914L71.5403 18.2443L74.5167 20.3972C74.2087 20.7798 73.3949 20.8543 72.3055 20.8543C70.1689 20.8543 69.2837 20.6047 68.739 20.1021C68.1943 19.5866 67.8539 18.5264 67.8539 16.2244C67.8539 13.1864 68.016 12.1553 68.5023 11.3156C68.9595 10.5342 69.903 10.1224 71.8937 10.1224C73.5603 10.1224 74.4584 10.4304 74.9609 10.8876C75.6256 11.4939 75.8007 13.0113 75.8007 14.7362ZM83.0537 7.76528V23.3444C83.0537 26.1295 81.5946 28.3862 77.5126 28.3862H59.8098C56.4475 28.3862 54.6513 26.5445 54.6513 23.5811V8.03114C54.6513 4.99313 56.4054 2.73975 60.0756 2.73975H77.7201C81.1829 2.73975 83.0537 4.56515 83.0537 7.76528ZM62.1377 7.78149H58.9084V23.7011H62.1377V7.78149ZM80.4015 21.4607L78.6312 20.1767C78.8679 19.3078 79.0721 17.7742 79.0721 15.3133C79.0721 11.8505 78.7641 10.0057 77.5256 8.81253C76.5367 7.85282 74.9447 7.24975 71.8516 7.24975C68.6969 7.24975 67.2962 7.76528 66.236 9.02004C64.9844 10.4953 64.6278 12.2331 64.6278 16.0817C64.6278 19.3824 65.1725 21.1235 66.103 22.1999C67.1341 23.393 68.8006 23.8372 71.897 23.8372C74.7113 23.8372 76.2611 23.6006 77.2921 22.5987L78.7803 23.6751L80.4015 21.4607Z" fill="#F1F1F1"/>
</g>
<defs>
<clipPath id="clip0_0_679">
<rect width="83.0023" height="31.1259" fill="white" transform="translate(0.0510864)"/>
</clipPath>
</defs>
</svg>
