<svg width="18" height="19" viewBox="0 0 18 19" fill="none" xmlns="http://www.w3.org/2000/svg">
<path d="M14.0468 7.00062C13.842 4.39569 11.6567 2.33862 9 2.33862C6.7275 2.33862 4.77675 3.81462 4.14731 5.96731C2.35181 6.59056 1.125 8.29156 1.125 10.2136C1.125 12.6948 3.14381 14.7136 5.625 14.7136H12.9375C15.1087 14.7136 16.875 12.9474 16.875 10.7761C16.875 9.00481 15.7106 7.48437 14.0468 7.00062ZM11.6477 10.0488L9.39769 12.2988C9.288 12.4085 9.144 12.4636 9 12.4636C8.856 12.4636 8.712 12.4085 8.60231 12.2988L6.35231 10.0488C6.19144 9.88794 6.14306 9.64606 6.23025 9.43569C6.31744 9.22587 6.52275 9.08862 6.75 9.08862H7.875V6.83862C7.875 6.21762 8.379 5.71362 9 5.71362C9.621 5.71362 10.125 6.21762 10.125 6.83862V9.08862H11.25C11.4773 9.08862 11.6826 9.22587 11.7697 9.43569C11.8569 9.64606 11.8086 9.88794 11.6477 10.0488Z" fill="#B7B8B8"/>
</svg>
