<svg width="18" height="12" viewBox="0 0 18 12" fill="none" xmlns="http://www.w3.org/2000/svg">
<path d="M17.7239 5.32253C15.5938 2.74849 12.3694 0.270752 9.00003 0.270752C5.62999 0.270752 2.40484 2.75022 0.276161 5.32253C-0.0920536 5.76729 -0.0920536 6.41297 0.276161 6.85774C0.811336 7.50445 1.9333 8.75284 3.43179 9.84363C7.20569 12.5909 10.7861 12.597 14.5683 9.84363C16.0668 8.75284 17.1887 7.50445 17.7239 6.85774C18.091 6.41383 18.093 5.76875 17.7239 5.32253ZM9.00003 2.21055C11.1393 2.21055 12.8796 3.95082 12.8796 6.09013C12.8796 8.22945 11.1393 9.96972 9.00003 9.96972C6.86072 9.96972 5.12045 8.22945 5.12045 6.09013C5.12045 3.95082 6.86072 2.21055 9.00003 2.21055Z" fill="#B7B8B8"/>
</svg>
