<svg width="28" height="28" viewBox="0 0 28 28" fill="none" xmlns="http://www.w3.org/2000/svg">
<path d="M25.6671 14.2803C25.6671 13.4922 25.5893 12.6787 25.4596 11.916H14.2305V16.4158H20.6619C20.4026 17.8648 19.5468 19.1359 18.2761 19.9495L22.1142 22.873C24.3704 20.8138 25.6671 17.814 25.6671 14.2803Z" fill="#4280EF"/>
<path d="M14.2264 25.6699C17.4422 25.6699 20.1393 24.6276 22.1102 22.848L18.2721 19.9499C17.2088 20.6617 15.8343 21.0685 14.2264 21.0685C11.1144 21.0685 8.49516 19.0093 7.53563 16.2637L3.59375 19.2381C5.61655 23.1785 9.71403 25.6699 14.2264 25.6699Z" fill="#34A353"/>
<path d="M7.53816 16.2378C7.04543 14.7888 7.04543 13.2126 7.53816 11.7635L3.59628 8.76367C1.91061 12.0686 1.91061 15.9582 3.59628 19.2377L7.53816 16.2378Z" fill="#F6B704"/>
<path d="M14.2264 6.95933C15.9121 6.93391 17.5719 7.56947 18.7907 8.71347L22.188 5.35773C20.0355 3.37479 17.1829 2.30705 14.2264 2.33247C9.71403 2.33247 5.61656 4.82386 3.59375 8.76431L7.53563 11.7641C8.49516 8.99311 11.1144 6.95933 14.2264 6.95933Z" fill="#E54335"/>
</svg>
