<svg width="187" height="187" viewBox="0 0 187 187" fill="none" xmlns="http://www.w3.org/2000/svg">
<path d="M36.9039 40.7313C37.4528 41.2604 38.1868 41.554 38.9492 41.5494C39.7116 41.554 40.4456 41.2604 40.9945 40.7313L66.2103 15.8077L91.4261 40.7313C91.9736 41.2755 92.7141 41.5809 93.486 41.5809C94.2579 41.5809 94.9985 41.2755 95.546 40.7313L120.762 15.8077L146.094 40.7313C146.642 41.2755 147.382 41.5809 148.154 41.5809C148.926 41.5809 149.667 41.2755 150.214 40.7313L177.358 13.7624C177.841 13.2069 178.097 12.4895 178.074 11.7538C178.051 11.0181 177.751 10.3182 177.234 9.79404C176.717 9.26987 176.022 8.96007 175.286 8.92657C174.551 8.89306 173.83 9.13832 173.268 9.61331L148.023 34.5369L122.719 9.61331C122.172 9.06911 121.431 8.76365 120.659 8.76365C119.888 8.76365 119.147 9.06911 118.6 9.61331L93.5006 34.5369L68.2556 9.61331C67.7095 9.07795 66.9751 8.77807 66.2103 8.77807C65.4455 8.77807 64.7112 9.07795 64.165 9.61331L38.9492 34.5369L13.7335 9.61331C13.4693 9.30946 13.1452 9.06347 12.7815 8.89079C12.4178 8.71811 12.0223 8.62246 11.6199 8.60983C11.2175 8.59721 10.8168 8.6679 10.443 8.81745C10.0692 8.967 9.73031 9.1922 9.44764 9.4789C9.16497 9.76561 8.94461 10.1076 8.80037 10.4835C8.65614 10.8594 8.59115 11.2611 8.60947 11.6633C8.6278 12.0655 8.72905 12.4596 8.90688 12.8208C9.0847 13.182 9.33526 13.5026 9.64283 13.7624L36.9039 40.7313Z" fill="#CBCFD3"/>
<path d="M173.267 43.8289L148.022 68.7525L122.719 43.8289C122.172 43.2847 121.431 42.9792 120.659 42.9792C119.887 42.9792 119.147 43.2847 118.599 43.8289L93.5002 68.6941L68.2552 43.8289C67.7149 43.3278 67.0052 43.0494 66.2683 43.0494C65.5314 43.0494 64.8218 43.3278 64.2815 43.8289L39.0657 68.7525L13.733 43.8289C13.4818 43.494 13.1616 43.217 12.7941 43.0166C12.4265 42.8162 12.0202 42.6972 11.6026 42.6675C11.1851 42.6378 10.766 42.6982 10.3738 42.8446C9.9816 42.991 9.62544 43.2199 9.32943 43.516C9.03342 43.812 8.80447 44.1681 8.65809 44.5603C8.51171 44.9525 8.45131 45.3716 8.48098 45.7892C8.51066 46.2067 8.62972 46.613 8.83009 46.9806C9.03047 47.3482 9.30748 47.6684 9.64238 47.9195L36.9035 74.8884C37.4477 75.4282 38.1823 75.7326 38.9488 75.7358C39.7153 75.7326 40.4499 75.4282 40.9941 74.8884L66.2099 49.9648L91.4257 74.8884C91.9731 75.4326 92.7137 75.7381 93.4856 75.7381C94.2575 75.7381 94.9981 75.4326 95.5455 74.8884L120.761 49.9648L146.094 74.8884C146.641 75.4326 147.382 75.7381 148.154 75.7381C148.926 75.7381 149.666 75.4326 150.214 74.8884L177.475 47.9487C178.021 47.3908 178.324 46.6387 178.315 45.8578C178.307 45.077 177.989 44.3314 177.431 43.7851C177.155 43.5146 176.828 43.3011 176.469 43.1569C176.11 43.0127 175.727 42.9406 175.34 42.9447C174.559 42.9529 173.814 43.271 173.267 43.8289Z" fill="#CBCFD3"/>
<path d="M173.268 77.9561L148.023 102.88L122.719 77.9561C122.172 77.4119 121.431 77.1064 120.659 77.1064C119.888 77.1064 119.147 77.4119 118.6 77.9561L93.5006 102.88L68.2849 77.9561C67.7387 77.4207 67.0044 77.1208 66.2395 77.1208C65.4747 77.1208 64.7404 77.4207 64.1942 77.9561L38.9785 102.88L13.7335 77.9561C13.4693 77.6522 13.1452 77.4062 12.7815 77.2336C12.4178 77.0609 12.0223 76.9652 11.6199 76.9526C11.2175 76.94 10.8168 77.0107 10.443 77.1602C10.0692 77.3098 9.73031 77.535 9.44764 77.8217C9.16497 78.1084 8.94461 78.4504 8.80037 78.8263C8.65614 79.2022 8.59115 79.6038 8.60947 80.006C8.6278 80.4082 8.72905 80.8023 8.90688 81.1635C9.0847 81.5248 9.33526 81.8453 9.64283 82.1051L36.9039 109.045C37.4501 109.58 38.1844 109.88 38.9492 109.88C39.714 109.88 40.4484 109.58 40.9945 109.045L66.2103 84.1212L91.4261 109.045C91.9736 109.589 92.7141 109.894 93.486 109.894C94.2579 109.894 94.9985 109.589 95.546 109.045L120.762 84.1212L146.094 109.045C146.639 109.585 147.373 109.889 148.14 109.892C148.524 109.894 148.905 109.821 149.261 109.675C149.617 109.53 149.941 109.316 150.214 109.045L177.358 82.1051C177.841 81.5496 178.097 80.8323 178.074 80.0966C178.051 79.3609 177.751 78.661 177.234 78.1368C176.717 77.6126 176.022 77.3028 175.286 77.2693C174.551 77.2358 173.83 77.4811 173.268 77.9561Z" fill="#CBCFD3"/>
<path d="M173.268 112.112L148.023 137.036L122.719 112.112C122.172 111.568 121.431 111.263 120.659 111.263C119.887 111.263 119.147 111.568 118.599 112.112L93.5003 137.036L68.2846 112.112C67.7384 111.577 67.0041 111.277 66.2392 111.277C65.4744 111.277 64.7401 111.577 64.1939 112.112L38.9489 137.036L13.7331 112.112C13.1708 111.637 12.45 111.392 11.7147 111.426C10.9793 111.459 10.2838 111.769 9.76698 112.293C9.2502 112.817 8.95029 113.517 8.92722 114.253C8.90415 114.989 9.1596 115.706 9.64253 116.261L36.9036 143.172C37.4479 143.712 38.1824 144.016 38.9489 144.019C39.685 143.994 40.3841 143.691 40.9066 143.172L66.1224 118.248L91.4258 143.172C91.9733 143.716 92.7138 144.022 93.4857 144.022C94.2577 144.022 94.9982 143.716 95.5457 143.172L120.761 118.248L146.094 143.172C146.642 143.716 147.382 144.022 148.154 144.022C148.926 144.022 149.666 143.716 150.214 143.172L177.475 116.203C177.958 115.647 178.213 114.93 178.19 114.194C178.167 113.459 177.867 112.759 177.351 112.235C176.834 111.71 176.138 111.401 175.403 111.367C174.668 111.334 173.947 111.579 173.384 112.054L173.268 112.112Z" fill="#CBCFD3"/>
<path d="M173.267 146.27L148.022 171.193L122.719 146.27C122.171 145.725 121.431 145.42 120.659 145.42C119.887 145.42 119.146 145.725 118.599 146.27L93.4998 171.193L68.2841 146.27C67.7379 145.734 67.0036 145.434 66.2387 145.434C65.4739 145.434 64.7396 145.734 64.1934 146.27L38.9776 171.193L13.7326 146.27C13.1786 145.727 12.4317 145.427 11.6563 145.435C10.881 145.443 10.1406 145.759 9.5982 146.313C9.05574 146.867 8.75562 147.614 8.76384 148.39C8.77206 149.165 9.08795 149.905 9.64202 150.448L36.9031 177.388C37.4473 177.927 38.1819 178.232 38.9484 178.235C39.715 178.232 40.4495 177.927 40.9937 177.388L66.2095 152.464L91.4253 177.388C91.9728 177.932 92.7133 178.237 93.4852 178.237C94.2571 178.237 94.9977 177.932 95.5452 177.388L120.761 152.464L146.094 177.388C146.641 177.932 147.382 178.237 148.154 178.237C148.925 178.237 149.666 177.932 150.213 177.388L177.475 150.448C178.029 149.905 178.344 149.165 178.353 148.39C178.361 147.614 178.061 146.867 177.518 146.313C176.976 145.759 176.236 145.443 175.46 145.435C174.685 145.427 173.938 145.727 173.384 146.27H173.267Z" fill="#CBCFD3"/>
</svg>
