<svg width="77" height="77" viewBox="0 0 77 77" fill="none" xmlns="http://www.w3.org/2000/svg">
<rect width="77" height="77" rx="11" fill="#DCE4EC"/>
<g clip-path="url(#clip0_112_932)">
<path d="M62 30.7491C62 22.8044 55.5366 16.3408 47.5918 16.3408C44.3746 16.3408 41.4005 17.401 39 19.1899C36.5995 17.401 33.6254 16.3408 30.4082 16.3408C22.4634 16.3409 16 22.8044 16 30.7491C16 36.7607 19.7012 41.9233 24.9442 44.0802C24.714 45.1009 24.5918 46.162 24.5918 47.2513C24.5918 55.196 31.0553 61.6595 39.0001 61.6595C42.0612 61.6595 44.9849 60.712 47.4549 58.9193C47.8572 58.6273 47.9467 58.0644 47.6546 57.6619C47.3627 57.2595 46.7996 57.1702 46.3974 57.4621C44.2369 59.0303 41.6789 59.8591 39.0001 59.8591C32.0481 59.8591 26.3922 54.2032 26.3922 47.2512C26.3922 46.3638 26.4849 45.4978 26.6601 44.6617C27.8558 44.9842 29.1122 45.1572 30.4083 45.1572C33.6255 45.1572 36.5996 44.0971 39.0001 42.3082C41.4006 44.0971 44.3747 45.1572 47.5918 45.1572C48.888 45.1572 50.1443 44.9842 51.34 44.6617C51.5152 45.4978 51.608 46.3638 51.608 47.2512C51.608 48.7164 51.3592 50.1515 50.8685 51.5166C50.7003 51.9845 50.9432 52.5001 51.411 52.6683C51.8791 52.8363 52.3944 52.5936 52.5626 52.1257C53.1239 50.5646 53.4083 48.9245 53.4083 47.2512C53.4083 46.1619 53.2861 45.1008 53.056 44.0801C58.2988 41.9233 62 36.7607 62 30.7491ZM17.8004 30.7491C17.8004 23.797 23.4562 18.1412 30.4082 18.1412C33.074 18.1412 35.5486 18.9735 37.5874 20.3909C34.8738 23.0126 33.1835 26.687 33.1835 30.7491C33.1835 31.8383 33.3058 32.8995 33.5359 33.9203C29.7958 35.4589 26.8405 38.5268 25.4535 42.3419C20.9577 40.413 17.8004 35.943 17.8004 30.7491ZM43.0162 30.7491C43.0162 31.6364 42.9236 32.5025 42.7483 33.3385C41.5526 33.0161 40.2963 32.8431 39 32.8431C37.7038 32.8431 36.4474 33.0161 35.2517 33.3385C35.0765 32.5025 34.9838 31.6364 34.9838 30.7491C34.9838 27.1141 36.5306 23.8341 39 21.5311C41.4693 23.8342 43.0162 27.1142 43.0162 30.7491ZM39 39.9671C37.5613 38.6253 36.4354 36.9521 35.7467 35.0699C36.785 34.7924 37.8753 34.6435 39 34.6435C40.1247 34.6435 41.215 34.7924 42.2533 35.0699C41.5646 36.9521 40.4387 38.6252 39 39.9671ZM30.4082 43.357C29.2837 43.357 28.1933 43.2081 27.155 42.9306C28.3507 39.6628 30.8626 37.0241 34.0452 35.6586C34.8017 37.7394 36.0248 39.5978 37.5873 41.1073C35.5486 42.5247 33.074 43.357 30.4082 43.357ZM47.5918 43.357C44.926 43.357 42.4514 42.5247 40.4126 41.1073C41.9751 39.5978 43.1982 37.7394 43.9547 35.6586C47.1373 37.024 49.6492 39.6627 50.8449 42.9306C49.8067 43.2081 48.7163 43.357 47.5918 43.357ZM52.5465 42.3419C51.1595 38.5268 48.2042 35.4589 44.4641 33.9203C44.6943 32.8996 44.8165 31.8383 44.8165 30.7491C44.8165 26.687 43.1262 23.0126 40.4126 20.3909C42.4514 18.9735 44.926 18.1412 47.5918 18.1412C54.5438 18.1412 60.1996 23.797 60.1996 30.7491C60.1996 35.943 57.0423 40.413 52.5465 42.3419Z" fill="#0C0D0E"/>
<path d="M49.7816 56.2575C50.2788 56.2575 50.6818 55.8545 50.6818 55.3573C50.6818 54.8601 50.2788 54.457 49.7816 54.457C49.2844 54.457 48.8813 54.8601 48.8813 55.3573C48.8813 55.8545 49.2844 56.2575 49.7816 56.2575Z" fill="#0C0D0E"/>
</g>
<defs>
<clipPath id="clip0_112_932">
<rect width="46" height="46" fill="white" transform="translate(16 16)"/>
</clipPath>
</defs>
</svg>
