<svg width="50" height="50" viewBox="0 0 50 50" fill="none" xmlns="http://www.w3.org/2000/svg">
<g clip-path="url(#clip0_112_1394)">
<path d="M49.8438 23.6485L47.9731 11.213C47.438 7.65643 44.3801 5.0293 40.7894 5.0293H9.2102C5.61325 5.0293 2.56073 7.66268 2.02665 11.213C1.64794 13.7096 0 24.4715 0 25.1447C0 27.8259 1.4622 30.1707 3.63006 31.4279C1.4622 32.6851 0 35.0298 0 37.7111C0 41.7141 3.25672 44.9709 7.25972 44.9709H42.74C46.743 44.9709 49.9997 41.7141 49.9997 37.7111C49.9997 35.0299 48.5375 32.6852 46.3696 31.428C49.0893 29.8507 50.4905 26.7228 49.8438 23.6485ZM1.97352 24.6945L2.07655 24.0097C2.59793 21.6273 4.72321 19.8381 7.25963 19.8381H42.7399C45.2765 19.8381 47.402 21.6276 47.9232 24.0102L48.026 24.6939C48.2571 27.4276 45.7644 30.4514 42.3526 30.4514H7.64693C4.17624 30.4513 1.74862 27.3574 1.97352 24.6945ZM9.2102 6.98241H40.7895C43.4193 6.98241 45.6512 8.90779 46.0417 11.5036L47.2375 19.4524C45.9998 18.4724 44.4376 17.885 42.74 17.885H7.25972C5.56208 17.885 3.99998 18.4723 2.76219 19.4523L3.95798 11.5035C4.34929 8.903 6.58512 6.98241 9.2102 6.98241ZM48.0466 37.7111C48.0466 40.6372 45.666 43.0177 42.74 43.0177H7.25972C4.33367 43.0177 1.95311 40.6372 1.95311 37.7111C1.95311 34.7851 4.33367 32.4045 7.25972 32.4045H42.74C45.666 32.4044 48.0466 34.785 48.0466 37.7111Z" fill="#0C0D0E"/>
<path d="M32.4741 22.0771H8.05828C6.36708 22.0771 4.99121 23.453 4.99121 25.1442C4.99121 26.8354 6.36708 28.2113 8.05828 28.2113H32.4741C34.1653 28.2113 35.5411 26.8354 35.5411 25.1442C35.5411 23.453 34.1653 22.0771 32.4741 22.0771ZM32.4741 26.2582H8.05828C7.44403 26.2582 6.94432 25.7585 6.94432 25.1442C6.94432 24.53 7.44403 24.0303 8.05828 24.0303H32.4741C33.0883 24.0303 33.588 24.53 33.588 25.1442C33.588 25.7585 33.0883 26.2582 32.4741 26.2582Z" fill="#0C0D0E"/>
<path d="M32.4741 34.6436H8.05828C6.36708 34.6436 4.99121 36.0194 4.99121 37.7106C4.99121 39.4018 6.36708 40.7777 8.05828 40.7777H32.4741C34.1653 40.7777 35.5411 39.4018 35.5411 37.7106C35.5411 36.0194 34.1653 34.6436 32.4741 34.6436ZM32.4741 38.8246H8.05828C7.44403 38.8246 6.94432 38.3249 6.94432 37.7106C6.94432 37.0964 7.44403 36.5967 8.05828 36.5967H32.4741C33.0883 36.5967 33.588 37.0964 33.588 37.7106C33.588 38.3249 33.0883 38.8246 32.4741 38.8246Z" fill="#0C0D0E"/>
<path d="M45.0392 25.1445C45.0392 23.2528 43.5002 21.7139 41.6085 21.7139C39.7168 21.7139 38.1777 23.2528 38.1777 25.1445C38.1777 27.0362 39.7168 28.5752 41.6085 28.5752C43.5002 28.5752 45.0392 27.0362 45.0392 25.1445ZM41.6085 26.6221C40.7937 26.6221 40.1309 25.9593 40.1309 25.1445C40.1309 24.3298 40.7937 23.667 41.6085 23.667C42.4232 23.667 43.086 24.3299 43.086 25.1445C43.086 25.9593 42.4232 26.6221 41.6085 26.6221Z" fill="#0C0D0E"/>
<path d="M38.1777 37.7109C38.1777 39.6026 39.7168 41.1416 41.6085 41.1416C43.5002 41.1416 45.0392 39.6026 45.0392 37.7109C45.0392 35.8192 43.5002 34.2803 41.6085 34.2803C39.7168 34.2803 38.1777 35.8192 38.1777 37.7109ZM43.086 37.7109C43.086 38.5257 42.4232 39.1885 41.6085 39.1885C40.7937 39.1885 40.1309 38.5257 40.1309 37.7109C40.1309 36.8962 40.7937 36.2334 41.6085 36.2334C42.4232 36.2334 43.086 36.8962 43.086 37.7109Z" fill="#0C0D0E"/>
<path d="M11.6904 10.792H29.0036C29.5429 10.792 29.9802 10.3548 29.9802 9.81542C29.9802 9.27607 29.5429 8.83887 29.0036 8.83887H11.6904C11.1511 8.83887 10.7139 9.27607 10.7139 9.81542C10.7139 10.3548 11.1511 10.792 11.6904 10.792Z" fill="#0C0D0E"/>
<path d="M32.9103 10.792H32.9127C33.452 10.792 33.888 10.3548 33.888 9.81543C33.888 9.27607 33.4495 8.83887 32.9102 8.83887C32.3708 8.83887 31.9336 9.27607 31.9336 9.81543C31.9336 10.3548 32.371 10.792 32.9103 10.792Z" fill="#0C0D0E"/>
</g>
<defs>
<clipPath id="clip0_112_1394">
<rect width="50" height="50" fill="white"/>
</clipPath>
</defs>
</svg>
