<svg width="77" height="77" viewBox="0 0 77 77" fill="none" xmlns="http://www.w3.org/2000/svg">
<rect width="77" height="77" rx="11" fill="#DCE4EC"/>
<g clip-path="url(#clip0_112_746)">
<path d="M61.8563 37.7566L60.1352 26.316C59.643 23.0439 56.8297 20.627 53.5263 20.627H24.4734C21.1642 20.627 18.3559 23.0497 17.8645 26.316C17.5161 28.6128 16 38.5138 16 39.1331C16 41.5999 17.3452 43.757 19.3397 44.9136C17.3452 46.0703 16 48.2274 16 50.6942C16 54.377 18.9962 57.3732 22.6789 57.3732H55.3208C59.0036 57.3732 61.9997 54.377 61.9997 50.6942C61.9997 48.2275 60.6545 46.0704 58.6601 44.9137C61.1621 43.4627 62.4513 40.585 61.8563 37.7566ZM17.8156 38.719L17.9104 38.0889C18.3901 35.8972 20.3454 34.251 22.6789 34.251H55.3207C57.6544 34.251 59.6098 35.8974 60.0893 38.0894L60.1839 38.7184C60.3966 41.2334 58.1032 44.0153 54.9644 44.0153H23.0352C19.8421 44.0152 17.6087 41.1688 17.8156 38.719ZM24.4734 22.4238H53.5263C55.9457 22.4238 57.9991 24.1952 58.3584 26.5833L59.4585 33.8962C58.3198 32.9946 56.8826 32.4542 55.3208 32.4542H22.6789C21.1171 32.4542 19.68 32.9945 18.5412 33.8961L19.6413 26.5832C20.0013 24.1908 22.0583 22.4238 24.4734 22.4238ZM60.2029 50.6942C60.2029 53.3862 58.0128 55.5763 55.3208 55.5763H22.6789C19.987 55.5763 17.7969 53.3862 17.7969 50.6942C17.7969 48.0023 19.987 45.8122 22.6789 45.8122H55.3208C58.0128 45.8121 60.2029 48.0022 60.2029 50.6942Z" fill="#0C0D0E"/>
<path d="M45.876 36.3115H23.4135C21.8576 36.3115 20.5918 37.5773 20.5918 39.1332C20.5918 40.6891 21.8576 41.9549 23.4135 41.9549H45.876C47.4319 41.9549 48.6977 40.6891 48.6977 39.1332C48.6977 37.5773 47.4319 36.3115 45.876 36.3115ZM45.876 40.1581H23.4135C22.8484 40.1581 22.3887 39.6983 22.3887 39.1332C22.3887 38.5681 22.8484 38.1084 23.4135 38.1084H45.876C46.4411 38.1084 46.9009 38.5681 46.9009 39.1332C46.9009 39.6983 46.4411 40.1581 45.876 40.1581Z" fill="#0C0D0E"/>
<path d="M45.876 47.8721H23.4135C21.8576 47.8721 20.5918 49.1379 20.5918 50.6938C20.5918 52.2497 21.8576 53.5155 23.4135 53.5155H45.876C47.4319 53.5155 48.6977 52.2497 48.6977 50.6938C48.6977 49.1379 47.4319 47.8721 45.876 47.8721ZM45.876 51.7186H23.4135C22.8484 51.7186 22.3887 51.2589 22.3887 50.6938C22.3887 50.1287 22.8484 49.6689 23.4135 49.6689H45.876C46.4411 49.6689 46.9009 50.1287 46.9009 50.6938C46.9009 51.2589 46.4411 51.7186 45.876 51.7186Z" fill="#0C0D0E"/>
<path d="M57.4365 39.1328C57.4365 37.3924 56.0207 35.9766 54.2803 35.9766C52.54 35.9766 51.124 37.3924 51.124 39.1328C51.124 40.8731 52.54 42.289 54.2803 42.289C56.0207 42.289 57.4365 40.8731 57.4365 39.1328ZM54.2803 40.4921C53.5308 40.4921 52.9209 39.8823 52.9209 39.1328C52.9209 38.3832 53.5308 37.7734 54.2803 37.7734C55.0299 37.7734 55.6397 38.3833 55.6397 39.1328C55.6397 39.8823 55.0299 40.4921 54.2803 40.4921Z" fill="#0C0D0E"/>
<path d="M51.124 50.6943C51.124 52.4347 52.54 53.8505 54.2803 53.8505C56.0207 53.8505 57.4365 52.4347 57.4365 50.6943C57.4365 48.9539 56.0207 47.5381 54.2803 47.5381C52.54 47.5381 51.124 48.9539 51.124 50.6943ZM55.6397 50.6943C55.6397 51.4439 55.0299 52.0536 54.2803 52.0536C53.5308 52.0536 52.9209 51.4439 52.9209 50.6943C52.9209 49.9447 53.5308 49.335 54.2803 49.335C55.0299 49.335 55.6397 49.9447 55.6397 50.6943Z" fill="#0C0D0E"/>
<path d="M26.7554 25.9287H42.6835C43.1796 25.9287 43.5819 25.5265 43.5819 25.0303C43.5819 24.5341 43.1796 24.1318 42.6835 24.1318H26.7554C26.2592 24.1318 25.8569 24.5341 25.8569 25.0303C25.8569 25.5265 26.2592 25.9287 26.7554 25.9287Z" fill="#0C0D0E"/>
<path d="M46.2769 25.9287H46.2792C46.7753 25.9287 47.1765 25.5265 47.1765 25.0303C47.1765 24.5341 46.7731 24.1318 46.2769 24.1318C45.7806 24.1318 45.3784 24.5341 45.3784 25.0303C45.3784 25.5265 45.7808 25.9287 46.2769 25.9287Z" fill="#0C0D0E"/>
</g>
<defs>
<clipPath id="clip0_112_746">
<rect width="46" height="46" fill="white" transform="translate(16 16)"/>
</clipPath>
</defs>
</svg>
