<svg width="50" height="50" viewBox="0 0 50 50" fill="none" xmlns="http://www.w3.org/2000/svg">
<g clip-path="url(#clip0_112_1447)">
<path d="M46.6188 29.8187H38.9496V26.6055C38.9496 24.8171 37.4946 23.362 35.7062 23.362H27.6395C27.3547 22.5944 26.7441 21.9839 25.9766 21.699V20.1823H33.6457C35.5101 20.1823 37.027 18.6655 37.027 16.8011C37.027 15.1943 37.027 5.20518 37.027 3.64688C37.027 1.78252 35.5102 0.265625 33.6457 0.265625H16.3543C14.4899 0.265625 12.973 1.78242 12.973 3.64688V16.8011C12.973 18.6654 14.4898 20.1823 16.3543 20.1823H24.0234V21.699C23.2559 21.9839 22.6453 22.5944 22.3604 23.362H14.2938C12.5055 23.362 11.0504 24.817 11.0504 26.6055V29.8187H3.38125C1.5168 29.8187 0 31.3355 0 33.1999V46.3541C0 48.2185 1.5168 49.7354 3.38125 49.7354H20.6727C22.537 49.7354 24.0538 48.2186 24.0538 46.3541C24.0538 44.7474 24.0538 34.7582 24.0538 33.1999C24.0538 31.3355 22.537 29.8187 20.6727 29.8187H13.0035V26.6054C13.0035 25.8938 13.5823 25.315 14.2938 25.315H22.3604C22.7583 26.387 23.7913 27.1529 25 27.1529C26.2087 27.1529 27.2417 26.3869 27.6395 25.315H35.7062C36.4177 25.315 36.9965 25.8938 36.9965 26.6054V29.8187H29.3273C27.463 29.8187 25.9462 31.3355 25.9462 33.1999V46.3541C25.9462 48.2185 27.463 49.7354 29.3273 49.7354H46.6188C48.4831 49.7354 50 48.2186 50 46.3541C50 44.7474 50 34.7582 50 33.1999C50 31.3355 48.4832 29.8187 46.6188 29.8187ZM22.1007 46.3541C22.1007 47.1415 21.4601 47.7822 20.6727 47.7822H3.38125C2.59385 47.7822 1.95312 47.1416 1.95312 46.3541V36.727H22.1007V46.3541ZM20.6727 31.7719C21.4601 31.7719 22.1007 32.4125 22.1007 33.2V34.774H1.95312V33.2C1.95312 32.4126 2.59375 31.7719 3.38125 31.7719H20.6727ZM16.3543 18.2291C15.5669 18.2291 14.9262 17.5885 14.9262 16.801V7.17402H15.8C16.3394 7.17402 16.7766 6.73682 16.7766 6.19746C16.7766 5.65811 16.3394 5.2209 15.8 5.2209H14.9262V3.64688C14.9262 2.85947 15.5668 2.21875 16.3543 2.21875H33.6457C34.4331 2.21875 35.0738 2.85938 35.0738 3.64688V5.2209H23.6125C23.0731 5.2209 22.6359 5.65811 22.6359 6.19746C22.6359 6.73682 23.0731 7.17402 23.6125 7.17402H35.0737V16.8011C35.0737 17.5885 34.4331 18.2292 33.6456 18.2292H16.3543V18.2291ZM25 25.1999C24.525 25.1999 24.1387 24.8135 24.1387 24.3386C24.1387 23.8637 24.5251 23.4771 25 23.4771C25.4749 23.4771 25.8613 23.8636 25.8613 24.3386C25.8613 24.8136 25.475 25.1999 25 25.1999ZM48.0469 46.3541C48.0469 47.1415 47.4063 47.7822 46.6188 47.7822H29.3273C28.5399 47.7822 27.8993 47.1416 27.8993 46.3541V36.727H48.0469V46.3541ZM48.0469 34.7739H27.8993V33.1999C27.8993 32.4125 28.5399 31.7718 29.3273 31.7718H46.6188C47.4062 31.7718 48.0469 32.4124 48.0469 33.1999V34.7739Z" fill="#0C0D0E"/>
<path d="M25 8.00781C22.4691 8.00781 20.4102 10.0668 20.4102 12.5977C20.4102 15.1285 22.4691 17.1875 25 17.1875C27.5309 17.1875 29.5898 15.1285 29.5898 12.5977C29.5898 10.0668 27.5309 8.00781 25 8.00781ZM25 15.2344C23.5461 15.2344 22.3633 14.0516 22.3633 12.5977C22.3633 11.1438 23.5461 9.96094 25 9.96094C26.4539 9.96094 27.6367 11.1438 27.6367 12.5977C27.6367 14.0516 26.4539 15.2344 25 15.2344Z" fill="#0C0D0E"/>
<path d="M7.65929 46.2027H16.3954C17.1707 46.2027 17.6383 45.3387 17.2112 44.6895L12.8432 38.0488C12.4581 37.4633 11.5971 37.4625 11.2114 38.0488L6.84338 44.6895C6.41808 45.3361 6.88058 46.2027 7.65929 46.2027ZM12.0274 40.3626L14.5841 44.2496H9.47053L12.0274 40.3626Z" fill="#0C0D0E"/>
<path d="M34.6602 46.5668H41.2855C41.8249 46.5668 42.2621 46.1296 42.2621 45.5902V38.9648C42.2621 38.4255 41.8249 37.9883 41.2855 37.9883H34.6602C34.1208 37.9883 33.6836 38.4255 33.6836 38.9648V45.5902C33.6836 46.1296 34.1208 46.5668 34.6602 46.5668ZM35.6367 39.9414H40.309V44.6137H35.6367V39.9414Z" fill="#0C0D0E"/>
<path d="M19.7082 5.2207H19.7058C19.1664 5.2207 18.7305 5.65791 18.7305 6.19727C18.7305 6.73662 19.1688 7.17383 19.7082 7.17383C20.2476 7.17383 20.6848 6.73662 20.6848 6.19727C20.6848 5.65791 20.2476 5.2207 19.7082 5.2207Z" fill="#0C0D0E"/>
</g>
<defs>
<clipPath id="clip0_112_1447">
<rect width="50" height="50" fill="white"/>
</clipPath>
</defs>
</svg>
