<svg width="50" height="50" viewBox="0 0 50 50" fill="none" xmlns="http://www.w3.org/2000/svg">
<g clip-path="url(#clip0_112_1290)">
<path d="M45.4529 4.85547H4.54717C2.03984 4.85547 0 6.89521 0 9.40254V40.5971C0 43.1044 2.03984 45.1442 4.54717 45.1442H45.4529C47.9603 45.1442 50.0001 43.1044 50.0001 40.5971C50.0001 39.7287 50.0001 10.2152 50.0001 9.40254C50 6.89521 47.9602 4.85547 45.4529 4.85547ZM1.95312 9.40254C1.95312 7.97227 3.1168 6.8085 4.54717 6.8085H45.4529C46.8832 6.8085 48.047 7.97217 48.047 9.40254V15.9967H1.95312V9.40254ZM10.8832 43.191V42.3465H12.2721C12.8114 42.3465 13.2486 41.9092 13.2486 41.3699C13.2486 40.8307 12.8114 40.3934 12.2721 40.3934H10.8832V39.1791H12.2721C12.8114 39.1791 13.2486 38.7418 13.2486 38.2025C13.2486 37.6633 12.8114 37.226 12.2721 37.226H10.8832V36.0116H12.2721C12.8114 36.0116 13.2486 35.5743 13.2486 35.0351C13.2486 34.4958 12.8114 34.0585 12.2721 34.0585H10.8832V32.8641C10.8832 32.7194 11.001 32.6016 11.1457 32.6016H14.6971C14.8418 32.6016 14.9596 32.7193 14.9596 32.8641V43.191H10.8832ZM26.7992 34.8105H25.9766V29.9402C25.9766 29.401 25.5394 28.9637 25 28.9637C24.4606 28.9637 24.0234 29.401 24.0234 29.9402V34.8105H23.2339L20.3718 27.9435C20.1575 27.4294 20.2878 26.8306 20.6957 26.4531C22.0639 25.1881 23.7855 23.4126 25.0168 21.5091C26.2439 23.4127 27.9554 25.189 29.3146 26.4547C29.7183 26.8305 29.8477 27.4263 29.6367 27.9373L26.7992 34.8105ZM21.7862 43.191V37.3642C21.7862 37.0329 22.0557 36.7636 22.3868 36.7636H27.6132C27.9443 36.7636 28.2138 37.033 28.2138 37.3642V43.191H21.7862ZM35.7886 32.5604C35.7886 32.3991 35.9198 32.2679 36.0812 32.2679H36.7527C36.914 32.2679 37.0452 32.3991 37.0452 32.5604V33.2871H35.7886V32.5604ZM34.8552 43.191V35.4172C34.8552 35.3196 34.9346 35.2402 35.0321 35.2402H37.8016C37.8991 35.2402 37.9785 35.3196 37.9785 35.4172V43.191H34.8552ZM45.4529 43.191H39.9316V35.4172C39.9316 34.686 39.5612 34.0398 38.9983 33.6562V32.5604C38.9983 31.5447 38.3204 30.6849 37.3935 30.4084V28.0138C37.3935 27.4745 36.9562 27.0372 36.4169 27.0372C35.8775 27.0372 35.4403 27.4745 35.4403 28.0138V30.4084C34.5134 30.685 33.8354 31.5447 33.8354 32.5604V33.6562C33.2726 34.0398 32.9021 34.686 32.9021 35.4172V43.191H30.1669V37.3642C30.1669 36.3814 29.6085 35.5271 28.7927 35.1002L31.4421 28.6825C31.9622 27.4227 31.6421 25.9528 30.6457 25.0251C29.3318 23.8017 26.9688 21.4048 25.9045 19.0979C25.5562 18.3426 24.4794 18.3427 24.1311 19.0979C23.068 21.4022 20.6917 23.7968 19.3697 25.0191C18.3626 25.9505 18.0408 27.4275 18.5689 28.6947L21.2331 35.0871C20.4033 35.5093 19.8331 36.3712 19.8331 37.3643V43.1911H16.9127V32.8641C16.9127 31.6424 15.9188 30.6484 14.6971 30.6484H11.1457C9.92402 30.6484 8.93008 31.6424 8.93008 32.8641V43.191H4.54717C3.1168 43.191 1.95312 42.0273 1.95312 40.5971V17.9499H48.0469V40.5971C48.0469 42.0273 46.8832 43.191 45.4529 43.191Z" fill="#0C0D0E"/>
<path d="M6.93994 8.74805C5.31133 8.74805 3.98633 10.0729 3.98633 11.7016C3.98633 13.3302 5.31133 14.6552 6.93994 14.6552C8.56855 14.6552 9.89355 13.3302 9.89355 11.7016C9.89355 10.0729 8.56855 8.74805 6.93994 8.74805ZM6.93994 12.7021C6.38828 12.7021 5.93945 12.2532 5.93945 11.7016C5.93945 11.15 6.38828 10.7012 6.93994 10.7012C7.4916 10.7012 7.94043 11.15 7.94043 11.7016C7.94043 12.2533 7.4916 12.7021 6.93994 12.7021Z" fill="#0C0D0E"/>
<path d="M14.8989 8.74805C13.2703 8.74805 11.9453 10.0729 11.9453 11.7016C11.9453 13.3302 13.2703 14.6552 14.8989 14.6552C16.5275 14.6552 17.8525 13.3302 17.8525 11.7016C17.8525 10.0729 16.5274 8.74805 14.8989 8.74805ZM14.8989 12.7021C14.3473 12.7021 13.8984 12.2532 13.8984 11.7016C13.8984 11.15 14.3473 10.7012 14.8989 10.7012C15.4506 10.7012 15.8994 11.15 15.8994 11.7016C15.8993 12.2533 15.4505 12.7021 14.8989 12.7021Z" fill="#0C0D0E"/>
<path d="M22.8579 8.74805C21.2293 8.74805 19.9043 10.0729 19.9043 11.7016C19.9043 13.3302 21.2293 14.6552 22.8579 14.6552C24.4865 14.6552 25.8115 13.3302 25.8115 11.7016C25.8115 10.0729 24.4865 8.74805 22.8579 8.74805ZM22.8579 12.7021C22.3063 12.7021 21.8574 12.2532 21.8574 11.7016C21.8574 11.15 22.3063 10.7012 22.8579 10.7012C23.4096 10.7012 23.8584 11.15 23.8584 11.7016C23.8584 12.2533 23.4096 12.7021 22.8579 12.7021Z" fill="#0C0D0E"/>
<path d="M24.8094 25.7779C24.2699 25.8873 23.9378 26.4084 24.0428 26.9264C24.1386 27.3965 24.5454 27.7125 24.9998 27.7125C25.5309 27.7125 25.9764 27.2804 25.9764 26.736C25.9764 26.1111 25.4003 25.6588 24.8094 25.7779Z" fill="#0C0D0E"/>
</g>
<defs>
<clipPath id="clip0_112_1290">
<rect width="50" height="50" fill="white"/>
</clipPath>
</defs>
</svg>
