<svg width="77" height="77" viewBox="0 0 77 77" fill="none" xmlns="http://www.w3.org/2000/svg">
<rect width="77" height="77" rx="11" fill="#DCE4EC"/>
<path d="M56.1758 21.982H55.63C56.6704 20.2882 56.2862 18.0142 54.6165 16.7754C52.8174 15.4407 50.2608 15.8703 49.0052 17.7466L46.1711 21.9821H21.8242C19.8229 21.9821 18.1948 23.6102 18.1948 25.6114V48.8153C18.1948 50.8165 19.8229 52.4446 21.8242 52.4446H35.9216L34.8565 56.9185H32.5575C31.0592 56.9185 29.8402 58.1374 29.8402 59.6357V60.203H27.0062C26.51 60.203 26.1077 60.6054 26.1077 61.1015C26.1077 61.5976 26.51 61.9999 27.0062 61.9999H50.9939C51.4901 61.9999 51.8923 61.5976 51.8923 61.1015C51.8923 60.6054 51.4901 60.203 50.9939 60.203H48.1598V59.6357C48.1598 58.1374 46.9408 56.9185 45.4426 56.9185H43.1436L42.0784 52.4446H56.1759C58.1771 52.4446 59.8052 50.8165 59.8052 48.8153V43.7096V25.6114C59.8052 23.6101 58.1771 21.982 56.1758 21.982ZM43.3031 37.7761C41.8984 38.7595 39.2668 37.4229 36.7538 38.7639C36.1406 35.5785 36.5272 32.5827 39.7188 31.9215C40.1313 31.8355 40.5754 31.7966 40.9534 31.8042C42.0337 32.6056 43.1263 33.4163 44.2035 34.2156C44.6751 35.5873 44.4981 36.9396 43.3031 37.7761ZM44.2085 28.1462L46.7516 30.033L44.7959 32.4175C43.9907 31.8202 43.2986 31.3066 42.4934 30.7092C42.6606 30.4593 44.0557 28.3744 44.2085 28.1462ZM50.4987 18.7459C51.1791 17.7288 52.5669 17.4922 53.5459 18.2185C54.5251 18.945 54.7005 20.3417 53.9245 21.2878C52.5477 22.9663 49.2744 26.9572 47.8924 28.6422L45.2088 26.6511L50.4987 18.7459ZM46.3629 59.6357V60.203H31.6371V59.6357C31.6371 59.1283 32.05 58.7153 32.5575 58.7153H45.4425C45.95 58.7153 46.3629 59.1283 46.3629 59.6357ZM41.2964 56.9185H36.7035L37.7687 52.4446H40.2313L41.2964 56.9185ZM58.0084 48.8153C58.0084 49.8258 57.1863 50.6478 56.1759 50.6478C54.7497 50.6478 23.4278 50.6478 21.8243 50.6478C20.8138 50.6478 19.9918 49.8258 19.9918 48.8153V44.608H22.5591C23.0553 44.608 23.4575 44.2057 23.4575 43.7096C23.4575 43.2135 23.0553 42.8112 22.5591 42.8112H19.9916V25.6114C19.9916 24.6009 20.8136 23.7789 21.8241 23.7789H44.9687C44.108 25.0651 41.597 28.8176 40.8017 30.0062C39.041 30.0221 37.2833 30.6354 36.1326 31.9787C34.5667 33.8066 34.2916 36.6786 35.3149 40.5151C35.4899 41.1711 36.3084 41.4061 36.8037 40.933C39.1268 38.7133 42.02 41.1345 44.611 39.0374C46.1926 37.7572 46.5668 35.7219 45.9705 33.8187C46.7766 32.8358 53.3972 24.7641 54.2052 23.7789H56.1757C57.1862 23.7789 58.0082 24.6009 58.0082 25.6114V42.8111H29.7463C29.2501 42.8111 28.8478 43.2134 28.8478 43.7095C28.8478 44.2056 29.2501 44.6079 29.7463 44.6079H58.0084V48.8153Z" fill="#0C0D0E"/>
<path d="M25.9792 42.8281C25.5467 42.9165 25.2568 43.2904 25.2568 43.7096C25.2568 44.2716 25.7707 44.7019 26.3305 44.5901C26.8279 44.4891 27.131 44.0097 27.0357 43.5335C26.9357 43.042 26.459 42.7315 25.9792 42.8281Z" fill="#0C0D0E"/>
</svg>
