<svg width="77" height="77" viewBox="0 0 77 77" fill="none" xmlns="http://www.w3.org/2000/svg">
<rect width="77" height="77" rx="11" fill="#DCE4EC"/>
<g clip-path="url(#clip0_649_1102)">
<path d="M54.174 27.3993L48.853 24.3271C47.6469 23.6309 46.1112 24.0461 45.4177 25.2476L41.4582 32.1057L38.5272 27.029C37.8054 25.7789 36.6401 24.8848 35.2459 24.5112C30.6396 23.2769 26.7513 28.2486 29.1672 32.4331C30.1526 34.1399 34.4429 41.5708 35.2181 42.9137L28.1508 55.1548C27.4559 56.3584 27.8673 57.8952 29.0712 58.5901L34.3923 61.6622C35.5942 62.3561 37.1318 61.9472 37.8276 60.7418C38.2804 59.9574 41.2135 54.8772 41.6694 54.0876C41.7066 54.152 41.6322 54.0232 43.97 58.0723C44.5927 59.151 45.5761 59.9919 46.7403 60.4397C49.1933 61.3276 49.5623 61.6631 50.4956 61.6631C51.9695 61.6631 53.309 60.5994 53.5542 59.0463C53.955 56.4704 54.5416 54.7669 53.3301 52.6682C52.5023 51.2344 48.4264 44.1748 47.9094 43.2796C49.4015 40.6952 53.4755 33.6388 55.0945 30.8346C55.7893 29.6309 55.3779 28.0941 54.174 27.3993ZM46.9714 26.1444C47.1707 25.7995 47.6109 25.6816 47.9559 25.8808L53.277 28.953H53.2771C53.622 29.1521 53.7399 29.5925 53.5407 29.9375L52.5903 31.5837L50.1603 30.1807C49.7312 29.9329 49.1827 30.08 48.9349 30.509C48.6872 30.9381 48.8342 31.4866 49.2633 31.7344L51.6932 33.1374L50.1788 35.7605L47.7489 34.3575C47.3198 34.1098 46.7712 34.2569 46.5236 34.6859C46.2758 35.1149 46.4228 35.6635 46.8519 35.9112L49.2818 37.3142L47.7673 39.9373C45.217 38.4784 45.3331 38.5018 45.1181 38.4449L42.494 33.8997L46.9714 26.1444ZM44.3628 55.1646L32.2908 34.2551L38.5433 30.6453C39.4527 32.2204 47.443 46.0599 50.6152 51.5545C48.1346 51.8637 45.8704 53.1718 44.3628 55.1646ZM30.3602 28.7967C31.1932 25.6884 35.377 25.1614 36.9734 27.9261L37.6463 29.0915L31.3938 32.7014C31.0899 31.9973 29.8327 30.7661 30.3602 28.7967ZM36.2738 59.8447C36.0753 60.1883 35.6356 60.3082 35.2893 60.1084L29.9681 57.0362C29.6233 56.8371 29.5052 56.3969 29.7045 56.0517L36.254 44.7076L40.6336 52.2934L40.5328 52.4679L38.1029 51.0649C37.6737 50.8171 37.1253 50.9642 36.8775 51.3932C36.6297 51.8223 36.7768 52.3708 37.2058 52.6186L39.6358 54.0216L38.1214 56.6446L35.6914 55.2417C35.2623 54.994 34.7138 55.141 34.466 55.57C34.2183 55.999 34.3653 56.5476 34.7944 56.7954L37.2243 58.1984L36.2738 59.8447ZM50.0252 59.7806C47.2915 58.7282 47.373 58.7639 47.2391 58.7056C45.8956 58.1213 45.4525 57.0104 45.3579 56.8881C46.6794 54.6983 49.0534 53.3277 51.6105 53.2782C52.5938 55.1198 52.32 55.2282 51.7818 58.7665C51.6523 59.5872 50.7995 60.0784 50.0252 59.7806Z" fill="#0C0D0E"/>
<path d="M40.2624 39.0492C40.0147 38.6203 39.4662 38.4731 39.0371 38.7209C38.608 38.9687 38.461 39.5172 38.7087 39.9463L44.2755 49.5881C44.5241 50.0185 45.0731 50.1635 45.5009 49.9164C45.93 49.6687 46.077 49.1201 45.8292 48.6911L40.2624 39.0492Z" fill="#0C0D0E"/>
<path d="M37.8482 35.7637C37.3529 35.7637 36.9512 36.1654 36.9512 36.6607C36.9512 37.1561 37.3529 37.5578 37.8482 37.5578H37.8504C38.3457 37.5578 38.7463 37.1561 38.7463 36.6607C38.7463 36.1654 38.3436 35.7637 37.8482 35.7637Z" fill="#0C0D0E"/>
<path d="M26.7817 29.1413C27.1323 28.7913 27.1329 28.2234 26.7831 27.8725L25.0541 26.1397C24.0031 25.0864 22.2992 25.0861 21.248 26.1397L19.5189 27.8725C19.169 28.2232 19.1696 28.7912 19.5203 29.1413C19.87 29.49 20.4379 29.4916 20.789 29.1398L22.2568 27.6688C22.2557 27.6868 22.254 27.7046 22.254 27.7229V40.0706C20.7588 40.4678 19.6536 41.8325 19.6536 43.4509C19.6536 45.0693 20.7589 46.4341 22.254 46.8312V59.1789C22.254 59.1971 22.2556 59.215 22.2567 59.2329L20.789 57.762C20.4389 57.4114 19.8711 57.4108 19.5202 57.7606C19.1696 58.1105 19.169 58.6786 19.5188 59.0293L21.2479 60.7621C22.2979 61.8146 24.0027 61.8156 25.054 60.7622L26.783 59.0293C27.1329 58.6786 27.1323 58.1106 26.7816 57.7606C26.4309 57.4108 25.8629 57.4113 25.5129 57.762L24.0451 59.233C24.0462 59.2151 24.0479 59.1972 24.0479 59.1789V46.8312C25.5431 46.4341 26.6483 45.0693 26.6483 43.4509C26.6483 41.8325 25.543 40.4678 24.0479 40.0706C24.0474 36.5119 24.0494 27.7395 24.0451 27.6688L25.5129 29.1398C25.863 29.4905 26.431 29.491 26.7817 29.1413ZM24.8543 43.4509C24.8543 44.3901 24.0901 45.1543 23.151 45.1543C22.2119 45.1543 21.4477 44.3901 21.4477 43.4509C21.4477 42.5118 22.2119 41.7476 23.151 41.7476C24.0901 41.7476 24.8543 42.5117 24.8543 43.4509Z" fill="#0C0D0E"/>
<path d="M57.9525 17.9911L56.2196 16.262C55.8689 15.9121 55.3008 15.9128 54.9509 16.2634C54.601 16.6142 54.6016 17.1821 54.9523 17.5321L56.4233 18.9999C56.4054 18.9988 56.3875 18.9971 56.3692 18.9971H45.5997C45.2026 17.5019 43.8378 16.3967 42.2194 16.3967C40.601 16.3967 39.2363 17.502 38.8391 18.9971C35.2423 18.9976 28.0869 18.9956 28.0155 18.9999L29.4865 17.5321C29.8372 17.1822 29.8378 16.6142 29.4879 16.2634C29.138 15.9128 28.57 15.9121 28.2192 16.262L26.4864 17.991C25.4331 19.042 25.4328 20.7459 26.4864 21.7972L28.2192 23.5262C28.5689 23.8749 29.1368 23.8766 29.4879 23.5247C29.8378 23.174 29.8372 22.6061 29.4865 22.256L28.0155 20.7883C28.0334 20.7893 28.0513 20.791 28.0696 20.791H38.8391C39.2363 22.2862 40.601 23.3914 42.2194 23.3914C43.8378 23.3914 45.2026 22.2862 45.5997 20.791H56.3692C56.3875 20.791 56.4054 20.7893 56.4233 20.7883L54.9523 22.256C54.6017 22.606 54.601 23.1739 54.9509 23.5247C55.2998 23.8743 55.8677 23.8772 56.2196 23.5262L57.9524 21.7972C59.0059 20.7462 59.0061 19.0422 57.9525 17.9911ZM42.2194 21.5975C41.2802 21.5975 40.5161 20.8333 40.5161 19.8942C40.5161 18.955 41.2803 18.1908 42.2194 18.1908C43.1585 18.1908 43.9227 18.955 43.9227 19.8942C43.9227 20.8333 43.1586 21.5975 42.2194 21.5975Z" fill="#0C0D0E"/>
</g>
<defs>
<clipPath id="clip0_649_1102">
<rect width="46" height="46" fill="white" transform="translate(16 16)"/>
</clipPath>
</defs>
</svg>
