<svg width="50" height="50" viewBox="0 0 50 50" fill="none" xmlns="http://www.w3.org/2000/svg">
<g clip-path="url(#clip0_112_1239)">
<path d="M41.4931 12.3911L35.7094 9.05179C34.3984 8.29505 32.7292 8.7463 31.9754 10.0523L27.6715 17.5067L24.4857 11.9887C23.7012 10.6298 22.4346 9.65799 20.919 9.25187C15.9122 7.91029 11.6858 13.3143 14.3118 17.8626C15.3829 19.7179 20.0463 27.7949 20.8889 29.2546L13.207 42.5602C12.4517 43.8684 12.8989 45.5389 14.2075 46.2942L19.9913 49.6335C21.2977 50.3877 22.969 49.9432 23.7253 48.633C24.2175 47.7804 27.4056 42.2584 27.9012 41.4001C27.9416 41.4702 27.8607 41.3301 30.4018 45.7314C31.0787 46.9039 32.1476 47.8179 33.413 48.3047C36.0793 49.2698 36.4804 49.6344 37.4949 49.6344C39.0969 49.6344 40.5529 48.4782 40.8194 46.79C41.255 43.9901 41.8927 42.1386 40.5758 39.8573C39.676 38.2989 35.2457 30.6254 34.6838 29.6523C36.3056 26.8433 40.7339 19.1732 42.4937 16.1252C43.2488 14.8168 42.8017 13.1464 41.4931 12.3911ZM33.6642 11.0272C33.8808 10.6523 34.3593 10.524 34.7343 10.7406L40.5181 14.0799H40.5182C40.8931 14.2964 41.0213 14.775 40.8047 15.15L39.7717 16.9394L37.1304 15.4144C36.664 15.145 36.0678 15.305 35.7985 15.7712C35.5292 16.2376 35.689 16.8339 36.1554 17.1032L38.7966 18.6282L37.1505 21.4793L34.5094 19.9544C34.0429 19.6851 33.4466 19.845 33.1774 20.3113C32.9081 20.7777 33.0679 21.3739 33.5343 21.6433L36.1755 23.1681L34.5293 26.0194C31.7572 24.4336 31.8834 24.459 31.6498 24.3972L28.7974 19.4568L33.6642 11.0272ZM30.8288 42.5708L17.707 19.8431L24.5032 15.9193C25.4917 17.6315 34.1768 32.6744 37.6249 38.6468C34.9285 38.9829 32.4675 40.4047 30.8288 42.5708ZM15.6086 13.91C16.514 10.5314 21.0616 9.9586 22.7968 12.9637L23.5282 14.2305L16.732 18.1543C16.4017 17.389 15.0351 16.0507 15.6086 13.91ZM22.0364 47.6579C21.8206 48.0313 21.3427 48.1617 20.9662 47.9445L15.1824 44.6052C14.8076 44.3887 14.6792 43.9102 14.8958 43.535L22.0148 31.2045L26.7753 39.4499L26.6658 39.6396L24.0245 38.1146C23.558 37.8453 22.9619 38.0052 22.6926 38.4715C22.4233 38.9378 22.5831 39.5341 23.0495 39.8034L25.6907 41.3284L24.0446 44.1796L21.4034 42.6546C20.9369 42.3853 20.3407 42.5452 20.0714 43.0114C19.8021 43.4778 19.9619 44.0741 20.4283 44.3434L23.0695 45.8684L22.0364 47.6579ZM36.9836 47.5882C34.0122 46.4443 34.1007 46.483 33.9551 46.4198C32.4949 45.7846 32.0132 44.5771 31.9104 44.4442C33.3468 42.064 35.9272 40.5742 38.7067 40.5203C39.7755 42.5221 39.4779 42.6399 38.8929 46.486C38.7521 47.378 37.8252 47.9119 36.9836 47.5882Z" fill="#0C0D0E"/>
<path d="M26.3724 25.0531C26.1031 24.5869 25.5069 24.4269 25.0404 24.6962C24.5741 24.9655 24.4143 25.5618 24.6836 26.0282L30.7344 36.5084C31.0046 36.9762 31.6013 37.1338 32.0663 36.8653C32.5327 36.596 32.6925 35.9997 32.4232 35.5333L26.3724 25.0531Z" fill="#0C0D0E"/>
<path d="M23.7475 21.4824C23.2091 21.4824 22.7725 21.9191 22.7725 22.4575C22.7725 22.9959 23.2091 23.4325 23.7475 23.4325H23.7499C24.2883 23.4325 24.7237 22.9959 24.7237 22.4575C24.7237 21.9191 24.286 21.4824 23.7475 21.4824Z" fill="#0C0D0E"/>
<path d="M11.7192 14.2844C12.1003 13.9041 12.101 13.2868 11.7207 12.9054L9.84141 11.0219C8.69903 9.87697 6.847 9.87667 5.70432 11.0219L3.82489 12.9054C3.44462 13.2866 3.4452 13.904 3.82645 14.2844C4.20653 14.6635 4.82384 14.6653 5.20548 14.2829L6.80088 12.684C6.79971 12.7035 6.79786 12.7229 6.79786 12.7428V26.1642C5.17262 26.5959 3.97135 28.0793 3.97135 29.8384C3.97135 31.5975 5.17272 33.081 6.79786 33.5127V46.9341C6.79786 46.9539 6.79961 46.9733 6.80078 46.9928L5.20538 45.394C4.82492 45.0128 4.2077 45.0122 3.82635 45.3924C3.4452 45.7728 3.44452 46.3902 3.82479 46.7715L5.70423 48.6549C6.84554 49.7989 8.69864 49.8 9.84132 48.655L11.7207 46.7715C12.1009 46.3902 12.1003 45.7729 11.7191 45.3924C11.3379 45.0122 10.7205 45.0127 10.3401 45.394L8.74466 46.9929C8.74583 46.9734 8.74769 46.954 8.74769 46.9341V33.5127C10.3729 33.081 11.5742 31.5975 11.5742 29.8384C11.5742 28.0793 10.3728 26.5959 8.74769 26.1642C8.7472 22.296 8.74934 12.7608 8.74466 12.684L10.3401 14.2829C10.7206 14.664 11.338 14.6646 11.7192 14.2844ZM9.62427 29.8384C9.62427 30.8593 8.79361 31.6899 7.77282 31.6899C6.75203 31.6899 5.92137 30.8592 5.92137 29.8384C5.92137 28.8176 6.75203 27.987 7.77282 27.987C8.79361 27.987 9.62427 28.8175 9.62427 29.8384Z" fill="#0C0D0E"/>
<path d="M45.6012 2.16419L43.7176 0.284755C43.3363 -0.0955189 42.7189 -0.0948363 42.3385 0.286315C41.9583 0.667565 41.9588 1.28488 42.3401 1.66535L43.939 3.26074C43.9195 3.25957 43.9001 3.25772 43.8802 3.25772H32.1742C31.7425 1.63249 30.2591 0.43121 28.5 0.43121C26.7408 0.43121 25.2574 1.63258 24.8257 3.25772C20.9161 3.2583 13.1385 3.25606 13.0609 3.26074L14.6598 1.66535C15.041 1.28497 15.0417 0.667662 14.6614 0.286315C14.281 -0.0947388 13.6636 -0.0955189 13.2824 0.284755L11.3988 2.16409C10.2539 3.30647 10.2536 5.1586 11.3988 6.30128L13.2824 8.18061C13.6624 8.55972 14.2798 8.56147 14.6614 8.17905C15.0417 7.7978 15.0411 7.18049 14.6598 6.80002L13.0609 5.20462C13.0804 5.20579 13.0998 5.20765 13.1197 5.20765H24.8257C25.2574 6.83288 26.7408 8.03416 28.5 8.03416C30.2591 8.03416 31.7425 6.83278 32.1742 5.20765H43.8802C43.9001 5.20765 43.9195 5.20579 43.939 5.20462L42.3401 6.80002C41.9589 7.18039 41.9583 7.7977 42.3385 8.17905C42.7177 8.55903 43.335 8.56215 43.7176 8.18061L45.6011 6.30128C46.7461 5.15889 46.7464 3.30676 45.6012 2.16419ZM28.5 6.08423C27.4791 6.08423 26.6485 5.25357 26.6485 4.23278C26.6485 3.21199 27.4792 2.38133 28.5 2.38133C29.5207 2.38133 30.3514 3.21199 30.3514 4.23278C30.3514 5.25357 29.5208 6.08423 28.5 6.08423Z" fill="#0C0D0E"/>
</g>
<defs>
<clipPath id="clip0_112_1239">
<rect width="50" height="50" fill="white"/>
</clipPath>
</defs>
</svg>
