<svg width="85" height="84" viewBox="0 0 85 84" fill="none" xmlns="http://www.w3.org/2000/svg">
<rect x="0.5" width="84" height="84" rx="16" fill="#2E3032"/>
<g clip-path="url(#clip0_112_259)">
<path d="M67.9802 41.1899L66.1026 28.7092C65.5656 25.1396 62.4966 22.5029 58.8928 22.5029H27.1988C23.5887 22.5029 20.5251 25.1459 19.9891 28.7092C19.609 31.2148 17.9551 42.0158 17.9551 42.6915C17.9551 45.3825 19.4226 47.7357 21.5983 48.9975C19.4226 50.2593 17.9551 52.6125 17.9551 55.3036C17.9551 59.3212 21.2236 62.5897 25.2412 62.5897H60.8505C64.868 62.5897 68.1366 59.3212 68.1366 55.3036C68.1366 52.6126 66.6691 50.2594 64.4933 48.9976C67.2229 47.4146 68.6292 44.2753 67.9802 41.1899ZM19.9358 42.2397L20.0392 41.5523C20.5625 39.1613 22.6955 37.3656 25.2411 37.3656H60.8504C63.3962 37.3656 65.5294 39.1616 66.0525 41.5529L66.1557 42.2391C66.3877 44.9827 63.8859 48.0175 60.4617 48.0175H25.6298C22.1465 48.0174 19.7101 44.9122 19.9358 42.2397ZM27.1988 24.4631H58.8929C61.5322 24.4631 63.7723 26.3955 64.1642 29.0008L65.3644 36.9784C64.1222 35.9949 62.5543 35.4054 60.8505 35.4054H25.2412C23.5374 35.4054 21.9696 35.9948 20.7273 36.9783L21.9275 29.0007C22.3202 26.3907 24.5641 24.4631 27.1988 24.4631ZM66.1764 55.3036C66.1764 58.2403 63.7872 60.6295 60.8505 60.6295H25.2412C22.3045 60.6295 19.9153 58.2403 19.9153 55.3036C19.9153 52.3669 22.3045 49.9777 25.2412 49.9777H60.8505C63.7872 49.9776 66.1764 52.3668 66.1764 55.3036Z" fill="white"/>
<path d="M50.5476 39.6133H26.0431C24.3457 39.6133 22.9648 40.9942 22.9648 42.6915C22.9648 44.3889 24.3457 45.7697 26.0431 45.7697H50.5476C52.245 45.7697 53.6259 44.3889 53.6259 42.6915C53.6259 40.9942 52.245 39.6133 50.5476 39.6133ZM50.5476 43.8095H26.0431C25.4266 43.8095 24.9251 43.308 24.9251 42.6915C24.9251 42.075 25.4266 41.5735 26.0431 41.5735H50.5476C51.1641 41.5735 51.6656 42.075 51.6656 42.6915C51.6656 43.308 51.1641 43.8095 50.5476 43.8095Z" fill="white"/>
<path d="M50.5476 52.2256H26.0431C24.3457 52.2256 22.9648 53.6065 22.9648 55.3038C22.9648 57.0012 24.3457 58.382 26.0431 58.382H50.5476C52.245 58.382 53.6259 57.0012 53.6259 55.3038C53.6259 53.6065 52.245 52.2256 50.5476 52.2256ZM50.5476 56.4218H26.0431C25.4266 56.4218 24.9251 55.9203 24.9251 55.3038C24.9251 54.6873 25.4266 54.1858 26.0431 54.1858H50.5476C51.1641 54.1858 51.6656 54.6873 51.6656 55.3038C51.6656 55.9203 51.1641 56.4218 50.5476 56.4218Z" fill="white"/>
<path d="M63.1588 42.6912C63.1588 40.7926 61.6143 39.248 59.7157 39.248C57.8171 39.248 56.2725 40.7926 56.2725 42.6912C56.2725 44.5898 57.8171 46.1343 59.7157 46.1343C61.6143 46.1343 63.1588 44.5898 63.1588 42.6912ZM59.7157 44.1741C58.898 44.1741 58.2327 43.5089 58.2327 42.6912C58.2327 41.8735 58.898 41.2083 59.7157 41.2083C60.5334 41.2083 61.1986 41.8736 61.1986 42.6912C61.1986 43.5089 60.5334 44.1741 59.7157 44.1741Z" fill="white"/>
<path d="M56.2725 55.3035C56.2725 57.2021 57.8171 58.7466 59.7157 58.7466C61.6143 58.7466 63.1588 57.2021 63.1588 55.3035C63.1588 53.4049 61.6143 51.8604 59.7157 51.8604C57.8171 51.8604 56.2725 53.4049 56.2725 55.3035ZM61.1986 55.3035C61.1986 56.1212 60.5334 56.7864 59.7157 56.7864C58.898 56.7864 58.2327 56.1212 58.2327 55.3035C58.2327 54.4858 58.898 53.8206 59.7157 53.8206C60.5334 53.8206 61.1986 54.4858 61.1986 55.3035Z" fill="white"/>
<path d="M29.6881 28.2864H47.0643C47.6055 28.2864 48.0444 27.8476 48.0444 27.3063C48.0444 26.765 47.6055 26.3262 47.0643 26.3262H29.6881C29.1468 26.3262 28.708 26.765 28.708 27.3063C28.708 27.8476 29.1468 28.2864 29.6881 28.2864Z" fill="white"/>
<path d="M50.9851 28.2864H50.9875C51.5288 28.2864 51.9664 27.8476 51.9664 27.3063C51.9664 26.765 51.5263 26.3262 50.985 26.3262C50.4437 26.3262 50.0049 26.765 50.0049 27.3063C50.0049 27.8476 50.4439 28.2864 50.9851 28.2864Z" fill="white"/>
</g>
<defs>
<clipPath id="clip0_112_259">
<rect width="50.1818" height="50.1818" fill="white" transform="translate(17.9551 17.4551)"/>
</clipPath>
</defs>
</svg>
