<svg width="85" height="84" viewBox="0 0 85 84" fill="none" xmlns="http://www.w3.org/2000/svg">
<rect x="0.5" width="84" height="84" rx="16" fill="#2E3032"/>
<g clip-path="url(#clip0_112_989)">
<path d="M63.5733 22.3281H22.5188C20.0023 22.3281 17.9551 24.3753 17.9551 26.8917V58.1997C17.9551 60.7161 20.0023 62.7634 22.5188 62.7634H63.5733C66.0897 62.7634 68.137 60.7161 68.137 58.1997C68.137 57.3282 68.137 27.7074 68.137 26.8917C68.1369 24.3753 66.0896 22.3281 63.5733 22.3281ZM19.9153 26.8917C19.9153 25.4563 21.0832 24.2883 22.5188 24.2883H63.5733C65.0088 24.2883 66.1768 25.4562 66.1768 26.8917V33.5098H19.9153V26.8917ZM28.8779 60.8031V59.9555H30.2718C30.8131 59.9555 31.2519 59.5166 31.2519 58.9754C31.2519 58.4341 30.8131 57.9952 30.2718 57.9952H28.8779V56.7766H30.2718C30.8131 56.7766 31.2519 56.3377 31.2519 55.7965C31.2519 55.2552 30.8131 54.8163 30.2718 54.8163H28.8779V53.5976H30.2718C30.8131 53.5976 31.2519 53.1587 31.2519 52.6175C31.2519 52.0762 30.8131 51.6373 30.2718 51.6373H28.8779V50.4386C28.8779 50.2934 28.9961 50.1751 29.1413 50.1751H32.7056C32.8508 50.1751 32.969 50.2933 32.969 50.4386V60.8031H28.8779ZM44.8518 52.392H44.0261V47.5041C44.0261 46.9629 43.5873 46.524 43.046 46.524C42.5047 46.524 42.0659 46.9629 42.0659 47.5041V52.392H41.2735L38.4009 45.5001C38.1859 44.9841 38.3166 44.3831 38.726 44.0043C40.0992 42.7347 41.8271 40.9527 43.0628 39.0423C44.2945 40.9528 46.0121 42.7356 47.3763 44.0059C47.7814 44.383 47.9113 44.981 47.6996 45.4939L44.8518 52.392ZM39.8205 60.8031V54.955C39.8205 54.6226 40.0909 54.3523 40.4233 54.3523H45.6687C46.001 54.3523 46.2714 54.6227 46.2714 54.955V60.8031H39.8205ZM53.8738 50.1338C53.8738 49.9719 54.0055 49.8402 54.1674 49.8402H54.8415C55.0033 49.8402 55.135 49.9719 55.135 50.1338V50.8632H53.8738V50.1338ZM52.937 60.8031V53.001C52.937 52.9031 53.0167 52.8234 53.1146 52.8234H55.8941C55.992 52.8234 56.0717 52.9031 56.0717 53.001V60.8031H52.937ZM63.5733 60.8031H58.0319V53.001C58.0319 52.2672 57.6602 51.6186 57.0952 51.2335V50.1338C57.0952 49.1144 56.4148 48.2514 55.4845 47.974V45.5706C55.4845 45.0294 55.0457 44.5905 54.5044 44.5905C53.9631 44.5905 53.5243 45.0294 53.5243 45.5706V47.974C52.594 48.2515 51.9136 49.1144 51.9136 50.1338V51.2335C51.3486 51.6186 50.9769 52.2672 50.9769 53.001V60.8031H48.2317V54.955C48.2317 53.9687 47.6712 53.1112 46.8525 52.6828L49.5115 46.2418C50.0335 44.9774 49.7122 43.5022 48.7122 42.5711C47.3936 41.3432 45.022 38.9376 43.9538 36.6223C43.6042 35.8643 42.5235 35.8644 42.1739 36.6223C41.1069 38.9351 38.722 41.3383 37.3952 42.5651C36.3844 43.4999 36.0615 44.9823 36.5915 46.2541L39.2654 52.6697C38.4326 53.0934 37.8603 53.9585 37.8603 54.9551V60.8032H34.9293V50.4386C34.9293 49.2124 33.9317 48.2149 32.7056 48.2149H29.1413C27.9152 48.2149 26.9176 49.2124 26.9176 50.4386V60.8031H22.5188C21.0832 60.8031 19.9153 59.6352 19.9153 58.1997V35.4702H66.1767V58.1997C66.1767 59.6352 65.0088 60.8031 63.5733 60.8031Z" fill="white"/>
<path d="M24.9194 26.2344C23.2849 26.2344 21.9551 27.5641 21.9551 29.1986C21.9551 30.8332 23.2849 32.163 24.9194 32.163C26.554 32.163 27.8838 30.8332 27.8838 29.1986C27.8838 27.5641 26.554 26.2344 24.9194 26.2344ZM24.9194 30.2028C24.3658 30.2028 23.9153 29.7523 23.9153 29.1986C23.9153 28.6451 24.3658 28.1946 24.9194 28.1946C25.4731 28.1946 25.9236 28.6451 25.9236 29.1986C25.9236 29.7524 25.4731 30.2028 24.9194 30.2028Z" fill="white"/>
<path d="M32.9077 26.2344C31.2732 26.2344 29.9434 27.5641 29.9434 29.1986C29.9434 30.8332 31.2732 32.163 32.9077 32.163C34.5422 32.163 35.8721 30.8332 35.8721 29.1986C35.8721 27.5641 34.5422 26.2344 32.9077 26.2344ZM32.9077 30.2028C32.354 30.2028 31.9036 29.7523 31.9036 29.1986C31.9036 28.6451 32.354 28.1946 32.9077 28.1946C33.4614 28.1946 33.9118 28.6451 33.9118 29.1986C33.9117 29.7524 33.4613 30.2028 32.9077 30.2028Z" fill="white"/>
<path d="M40.896 26.2344C39.2615 26.2344 37.9316 27.5641 37.9316 29.1986C37.9316 30.8332 39.2615 32.163 40.896 32.163C42.5305 32.163 43.8603 30.8332 43.8603 29.1986C43.8603 27.5641 42.5305 26.2344 40.896 26.2344ZM40.896 30.2028C40.3423 30.2028 39.8919 29.7523 39.8919 29.1986C39.8919 28.6451 40.3423 28.1946 40.896 28.1946C41.4497 28.1946 41.9001 28.6451 41.9001 29.1986C41.9001 29.7524 41.4497 30.2028 40.896 30.2028Z" fill="white"/>
<path d="M42.8552 43.3268C42.3138 43.4366 41.9804 43.9596 42.0858 44.4795C42.182 44.9513 42.5903 45.2685 43.0463 45.2685C43.5794 45.2685 44.0264 44.8348 44.0264 44.2884C44.0264 43.6612 43.4483 43.2073 42.8552 43.3268Z" fill="white"/>
</g>
<defs>
<clipPath id="clip0_112_989">
<rect width="50.1818" height="50.1818" fill="white" transform="translate(17.9551 17.4551)"/>
</clipPath>
</defs>
</svg>
