<svg width="85" height="84" viewBox="0 0 85 84" fill="none" xmlns="http://www.w3.org/2000/svg">
<rect x="0.5" width="84" height="84" rx="16" fill="#2E3032"/>
<g clip-path="url(#clip0_112_306)">
<path d="M59.5993 29.8909L53.7945 26.5395C52.4787 25.78 50.8035 26.2329 50.0469 27.5436L45.7274 35.0252L42.53 29.487C41.7426 28.1232 40.4714 27.1479 38.9504 26.7403C33.9253 25.3938 29.6836 30.8174 32.3191 35.3823C33.3941 37.2443 38.0744 45.3507 38.9201 46.8157L31.2103 60.1697C30.4522 61.4827 30.901 63.1592 32.2144 63.9173L38.0192 67.2687C39.3304 68.0257 41.0078 67.5796 41.7668 66.2646C42.2608 65.4089 45.4606 59.8668 45.9579 59.0054C45.9985 59.0757 45.9173 58.9352 48.4676 63.3524C49.147 64.5292 50.2197 65.4465 51.4898 65.9351C54.1658 66.9037 54.5684 67.2697 55.5865 67.2697C57.1944 67.2697 58.6556 66.1093 58.9231 64.4149C59.3603 61.6048 60.0003 59.7465 58.6786 57.457C57.7756 55.8929 53.3292 48.1915 52.7652 47.2149C54.3929 44.3956 58.8373 36.6977 60.6034 33.6386C61.3614 32.3255 60.9126 30.6489 59.5993 29.8909ZM51.7419 28.522C51.9593 28.1457 52.4395 28.0171 52.8159 28.2344L58.6207 31.5858H58.6208C58.9971 31.8031 59.1257 32.2835 58.9084 32.6599L57.8716 34.4557L55.2207 32.9252C54.7525 32.6549 54.1542 32.8154 53.8839 33.2833C53.6136 33.7514 53.774 34.3498 54.2421 34.6201L56.893 36.1507L55.2409 39.0122L52.5901 37.4818C52.1219 37.2115 51.5235 37.372 51.2533 37.8399C50.983 38.308 51.1434 38.9064 51.6115 39.1767L54.2624 40.7071L52.6102 43.5688C49.828 41.9772 49.9546 42.0027 49.7201 41.9407L46.8574 36.9823L51.7419 28.522ZM48.8962 60.1804L35.7266 37.37L42.5475 33.432C43.5397 35.1503 52.2563 50.248 55.717 56.2421C53.0108 56.5794 50.5408 58.0064 48.8962 60.1804ZM33.6206 31.4154C34.5293 28.0245 39.0935 27.4496 40.835 30.4656L41.569 31.737L34.7481 35.675C34.4166 34.9069 33.0451 33.5638 33.6206 31.4154ZM40.0718 65.286C39.8552 65.6608 39.3756 65.7916 38.9977 65.5736L33.1928 62.2221C32.8167 62.0049 32.6879 61.5247 32.9052 61.1481L40.0501 48.7727L44.8279 57.0481L44.718 57.2385L42.0671 55.7079C41.599 55.4376 41.0007 55.5981 40.7304 56.0661C40.4601 56.5342 40.6205 57.1326 41.0885 57.4029L43.7394 58.9334L42.0873 61.795L39.4365 60.2644C38.9683 59.9942 38.37 60.1546 38.0997 60.6226C37.8294 61.0907 37.9898 61.6891 38.4578 61.9594L41.1087 63.4899L40.0718 65.286ZM55.0733 65.216C52.0911 64.068 52.18 64.1068 52.0339 64.0433C50.5683 63.4058 50.0849 62.1939 49.9817 62.0606C51.4233 59.6717 54.0131 58.1765 56.8027 58.1224C57.8754 60.1315 57.5767 60.2497 56.9896 64.1098C56.8483 65.005 55.918 65.5409 55.0733 65.216Z" fill="white"/>
<path d="M44.4229 42.5988C44.1526 42.1309 43.5543 41.9703 43.0862 42.2406C42.6181 42.5109 42.4577 43.1093 42.728 43.5774L48.8008 54.0958C49.072 54.5653 49.6709 54.7235 50.1376 54.454C50.6057 54.1837 50.7661 53.5852 50.4958 53.1172L44.4229 42.5988Z" fill="white"/>
<path d="M41.7892 39.0156C41.2488 39.0156 40.8105 39.4538 40.8105 39.9942C40.8105 40.5346 41.2488 40.9728 41.7892 40.9728H41.7915C42.3319 40.9728 42.7688 40.5346 42.7688 39.9942C42.7688 39.4538 42.3295 39.0156 41.7892 39.0156Z" fill="white"/>
<path d="M29.7167 31.7916C30.0992 31.4099 30.0999 30.7903 29.7183 30.4076L27.8321 28.5172C26.6856 27.3681 24.8268 27.3678 23.68 28.5172L21.7937 30.4076C21.412 30.7901 21.4126 31.4098 21.7953 31.7916C22.1767 32.1721 22.7963 32.1739 23.1793 31.79L24.7805 30.1853C24.7793 30.2049 24.7775 30.2244 24.7775 30.2443V43.7146C23.1463 44.1478 21.9407 45.6367 21.9407 47.4022C21.9407 49.1677 23.1464 50.6565 24.7775 51.0898V64.56C24.7775 64.5799 24.7792 64.5993 24.7804 64.6189L23.1792 63.0143C22.7974 62.6317 22.1779 62.6312 21.7952 63.0127C21.4126 63.3945 21.4119 64.0141 21.7936 64.3968L23.6799 66.287C24.8253 67.4352 26.6852 67.4363 27.832 66.2871L29.7182 64.3968C30.0998 64.0141 30.0992 63.3946 29.7166 63.0127C29.3341 62.6312 28.7144 62.6316 28.3326 63.0143L26.7314 64.619C26.7325 64.5994 26.7344 64.58 26.7344 64.56V51.0898C28.3655 50.6565 29.5712 49.1677 29.5712 47.4022C29.5712 45.6367 28.3654 44.1478 26.7344 43.7146C26.7339 39.8323 26.7361 30.2624 26.7314 30.1853L28.3326 31.79C28.7145 32.1726 29.3342 32.1732 29.7167 31.7916ZM27.6142 47.4022C27.6142 48.4268 26.7805 49.2603 25.756 49.2603C24.7315 49.2603 23.8978 48.4267 23.8978 47.4022C23.8978 46.3777 24.7315 45.544 25.756 45.544C26.7805 45.544 27.6142 46.3776 27.6142 47.4022Z" fill="white"/>
<path d="M63.7218 19.6271L61.8314 17.7409C61.4487 17.3592 60.8291 17.3599 60.4473 17.7424C60.0657 18.1251 60.0663 18.7446 60.4489 19.1265L62.0536 20.7277C62.034 20.7265 62.0146 20.7246 61.9946 20.7246H50.246C49.8128 19.0935 48.3239 17.8879 46.5584 17.8879C44.7929 17.8879 43.3041 19.0936 42.8708 20.7246C38.947 20.7252 31.1412 20.723 31.0633 20.7277L32.668 19.1265C33.0505 18.7447 33.0512 18.1252 32.6695 17.7424C32.2878 17.36 31.6681 17.3592 31.2855 17.7409L29.3951 19.627C28.246 20.7736 28.2457 22.6324 29.3951 23.7793L31.2855 25.6654C31.667 26.0459 32.2865 26.0477 32.6695 25.6639C33.0512 25.2812 33.0506 24.6617 32.668 24.2798L31.0633 22.6786C31.0828 22.6798 31.1023 22.6817 31.1223 22.6817H42.8708C43.3041 24.3128 44.7929 25.5185 46.5584 25.5185C48.3239 25.5185 49.8128 24.3127 50.246 22.6817H61.9946C62.0146 22.6817 62.034 22.6798 62.0536 22.6786L60.4489 24.2798C60.0663 24.6616 60.0657 25.2811 60.4473 25.6639C60.8279 26.0452 61.4475 26.0484 61.8314 25.6654L63.7217 23.7793C64.8709 22.6327 64.8712 20.7739 63.7218 19.6271ZM46.5584 23.5614C45.5338 23.5614 44.7003 22.7278 44.7003 21.7033C44.7003 20.6787 45.5339 19.8451 46.5584 19.8451C47.5829 19.8451 48.4166 20.6787 48.4166 21.7033C48.4166 22.7278 47.583 23.5614 46.5584 23.5614Z" fill="white"/>
</g>
<defs>
<clipPath id="clip0_112_306">
<rect width="50.1818" height="50.1818" fill="white" transform="translate(17.9551 17.4551)"/>
</clipPath>
</defs>
</svg>
