<svg width="85" height="84" viewBox="0 0 85 84" fill="none" xmlns="http://www.w3.org/2000/svg">
<rect x="0.5" width="84" height="84" rx="16" fill="#2E3032"/>
<g clip-path="url(#clip0_112_667)">
<path d="M64.7434 47.3813H57.0463V44.1563C57.0463 42.3614 55.5861 40.9011 53.7911 40.9011H45.6951C45.4092 40.1307 44.7965 39.5179 44.0261 39.232V37.7098H51.7231C53.5943 37.7098 55.1167 36.1875 55.1167 34.3163C55.1167 32.7037 55.1167 22.6782 55.1167 21.1142C55.1167 19.2431 53.5944 17.7207 51.7231 17.7207H34.3688C32.4977 17.7207 30.9753 19.243 30.9753 21.1142V34.3163C30.9753 36.1874 32.4976 37.7098 34.3688 37.7098H42.0659V39.232C41.2955 39.5179 40.6827 40.1307 40.3968 40.9011H32.3009C30.506 40.9011 29.0457 42.3613 29.0457 44.1563V47.3813H21.3486C19.4774 47.3813 17.9551 48.9036 17.9551 50.7747V63.9768C17.9551 65.8479 19.4774 67.3703 21.3486 67.3703H38.7029C40.574 67.3703 42.0964 65.848 42.0964 63.9768C42.0964 62.3642 42.0964 52.3387 42.0964 50.7747C42.0964 48.9036 40.574 47.3812 38.7029 47.3812H31.0059V44.1562C31.0059 43.4421 31.5868 42.8612 32.3009 42.8612H40.3968C40.7961 43.9371 41.8329 44.7058 43.046 44.7058C44.2591 44.7058 45.2958 43.937 45.6951 42.8612H53.7911C54.5052 42.8612 55.0861 43.4421 55.0861 44.1562V47.3812H47.3891C45.5179 47.3812 43.9956 48.9035 43.9956 50.7747V63.9768C43.9956 65.8479 45.5179 67.3703 47.3891 67.3703H64.7434C66.6145 67.3703 68.1369 65.848 68.1369 63.9768C68.1369 62.3642 68.1369 52.3387 68.1369 50.7747C68.1369 48.9036 66.6146 47.3813 64.7434 47.3813ZM40.1361 63.9768C40.1361 64.767 39.4932 65.4101 38.7029 65.4101H21.3486C20.5584 65.4101 19.9153 64.7671 19.9153 63.9768V54.3147H40.1361V63.9768ZM38.7029 49.3415C39.4932 49.3415 40.1361 49.9845 40.1361 50.7748V52.3546H19.9153V50.7748C19.9153 49.9846 20.5583 49.3415 21.3486 49.3415H38.7029ZM34.3688 35.7495C33.5786 35.7495 32.9355 35.1065 32.9355 34.3162V24.6542H33.8125C34.3539 24.6542 34.7926 24.2154 34.7926 23.6741C34.7926 23.1328 34.3539 22.694 33.8125 22.694H32.9355V21.1142C32.9355 20.324 33.5785 19.6809 34.3688 19.6809H51.7231C52.5134 19.6809 53.1564 20.3239 53.1564 21.1142V22.694H41.6534C41.1121 22.694 40.6733 23.1328 40.6733 23.6741C40.6733 24.2154 41.1121 24.6542 41.6534 24.6542H53.1564V34.3163C53.1564 35.1065 52.5134 35.7496 51.723 35.7496H34.3688V35.7495ZM43.046 42.7457C42.5693 42.7457 42.1815 42.3578 42.1815 41.8812C42.1815 41.4046 42.5694 41.0166 43.046 41.0166C43.5226 41.0166 43.9104 41.4045 43.9104 41.8812C43.9104 42.3579 43.5227 42.7457 43.046 42.7457ZM66.1767 63.9768C66.1767 64.767 65.5337 65.4101 64.7434 65.4101H47.3891C46.5988 65.4101 45.9558 64.7671 45.9558 63.9768V54.3147H66.1767V63.9768ZM66.1767 52.3545H45.9558V50.7747C45.9558 49.9845 46.5988 49.3414 47.3891 49.3414H64.7434C65.5336 49.3414 66.1767 49.9844 66.1767 50.7747V52.3545Z" fill="white"/>
<path d="M43.046 25.4912C40.5059 25.4912 38.4395 27.5577 38.4395 30.0977C38.4395 32.6378 40.5059 34.7043 43.046 34.7043C45.5861 34.7043 47.6525 32.6378 47.6525 30.0977C47.6525 27.5577 45.5861 25.4912 43.046 25.4912ZM43.046 32.7441C41.5868 32.7441 40.3997 31.5569 40.3997 30.0977C40.3997 28.6386 41.5868 27.4514 43.046 27.4514C44.5052 27.4514 45.6923 28.6386 45.6923 30.0977C45.6923 31.5569 44.5052 32.7441 43.046 32.7441Z" fill="white"/>
<path d="M25.6414 63.8248H34.4093C35.1874 63.8248 35.6567 62.9576 35.2281 62.306L30.8441 55.6412C30.4576 55.0536 29.5935 55.0528 29.2064 55.6412L24.8225 62.306C24.3956 62.955 24.8598 63.8248 25.6414 63.8248ZM30.0253 57.9634L32.5914 61.8646H27.4592L30.0253 57.9634Z" fill="white"/>
<path d="M52.7418 64.1908H59.3913C59.9326 64.1908 60.3714 63.752 60.3714 63.2107V56.5612C60.3714 56.0199 59.9326 55.5811 59.3913 55.5811H52.7418C52.2005 55.5811 51.7617 56.0199 51.7617 56.5612V63.2107C51.7617 63.752 52.2005 64.1908 52.7418 64.1908ZM53.7219 57.5413H58.4112V62.2305H53.7219V57.5413Z" fill="white"/>
<path d="M37.7352 22.6943H37.7327C37.1914 22.6943 36.7539 23.1331 36.7539 23.6744C36.7539 24.2158 37.1939 24.6546 37.7352 24.6546C38.2765 24.6546 38.7153 24.2158 38.7153 23.6744C38.7153 23.1331 38.2765 22.6943 37.7352 22.6943Z" fill="white"/>
</g>
<defs>
<clipPath id="clip0_112_667">
<rect width="50.1818" height="50.1818" fill="white" transform="translate(17.9551 17.4551)"/>
</clipPath>
</defs>
</svg>
