<svg width="85" height="84" viewBox="0 0 85 84" fill="none" xmlns="http://www.w3.org/2000/svg">
<rect x="0.5" width="84" height="84" rx="16" fill="#2E3032"/>
<g clip-path="url(#clip0_112_283)">
<path d="M62.6222 39.7853C62.6222 37.7434 60.9611 36.0823 58.9194 36.0823H54.2384V28.2226C54.2384 27.8193 54.432 27.4353 54.7562 27.1953C55.7339 26.4717 56.3176 25.3135 56.3176 24.0972V20.1775C56.3176 18.6764 55.0962 17.4551 53.5951 17.4551H49.7193C48.2181 17.4551 46.9968 18.6764 46.9968 20.1775V24.0971C46.9968 25.3134 47.5804 26.4716 48.5582 27.1953C48.8824 27.4352 49.0759 27.8192 49.0759 28.2225V36.0821H39.913V33.5892C39.913 32.1623 40.7038 30.8756 41.9771 30.2313C44.0988 29.1576 45.4168 27.0134 45.4168 24.6355V23.4796C45.4168 21.1583 44.1669 18.9972 42.1548 17.8396C40.8247 17.0744 39.149 17.9363 38.9951 19.4608L38.7601 21.7894C38.5817 23.5572 37.1073 24.8903 35.3306 24.8903C33.5538 24.8903 32.0794 23.5572 31.9011 21.7893L31.666 19.4608C31.512 17.9345 29.8348 17.0755 28.5062 17.8396C26.4939 18.9971 25.2439 21.1583 25.2439 23.4796V24.6358C25.2439 27.0137 26.5619 29.1579 28.6836 30.2316C29.9568 30.8759 30.7478 32.1626 30.7478 33.5895V36.0824H27.1727C25.1309 36.0824 23.4698 37.7435 23.4698 39.7854C23.4698 40.5307 23.4697 57.9806 23.4697 58.7278C23.4697 60.7696 25.1308 62.4307 27.1727 62.4307H39.2564L38.6325 65.6767H36.2914C35.7502 65.6767 35.3113 66.1156 35.3113 66.6568C35.3113 67.198 35.7502 67.6369 36.2914 67.6369H49.8007C50.3419 67.6369 50.7808 67.198 50.7808 66.6568C50.7808 66.1156 50.3419 65.6767 49.8007 65.6767H47.4596L46.8356 62.4306H58.9194C60.9612 62.4306 62.6223 60.7695 62.6223 58.7277C62.6223 57.9799 62.6222 40.5331 62.6222 39.7853ZM48.6108 50.0218V41.5721C48.6108 41.3351 48.8037 41.1422 49.0408 41.1422H54.2735C54.5106 41.1422 54.7035 41.3351 54.7035 41.5721V50.0218C54.7035 51.7015 53.3369 53.0681 51.6572 53.0681C49.9752 53.0681 48.6108 51.6994 48.6108 50.0218ZM48.957 24.0972V20.1775C48.957 19.7573 49.299 19.4153 49.7193 19.4153H53.5951C54.0154 19.4153 54.3573 19.7573 54.3573 20.1775V24.0971C54.3573 24.6949 54.0704 25.264 53.5902 25.6196C52.7687 26.2275 52.2782 27.2006 52.2782 28.2226V39.1819H51.036C51.036 38.1443 51.036 29.4818 51.036 28.2226C51.036 27.2006 50.5457 26.2277 49.7242 25.6196C49.2438 25.2641 48.957 24.6949 48.957 24.0972ZM29.5688 28.4825C28.1102 27.7445 27.2042 26.2704 27.2042 24.6358V23.4796C27.2042 21.8577 28.0775 20.3476 29.4834 19.5387C29.5868 19.4794 29.7045 19.5498 29.7154 19.6578L29.9504 21.9862C30.2302 24.7594 32.543 26.8505 35.3303 26.8505C38.1175 26.8505 40.4303 24.7594 40.7101 21.9863L40.9452 19.6578C40.9566 19.5447 41.0785 19.4821 41.177 19.5387C42.583 20.3476 43.4564 21.8577 43.4564 23.4796V24.6358C43.4564 26.2704 42.5504 27.7445 41.0918 28.4825C39.1555 29.4625 37.9527 31.4193 37.9527 33.5894V37.0624C37.9479 51.2993 37.9648 50.5246 37.9391 50.7767C37.8046 52.0973 36.6859 53.1312 35.3303 53.1312C33.8828 53.1312 32.7079 51.9534 32.7079 50.5089C32.7079 48.6582 32.7079 35.2977 32.7079 33.5894C32.7079 31.4193 31.5051 29.4625 29.5688 28.4825ZM27.1727 38.0426H30.7478V50.5089C30.7478 53.0358 32.8035 55.0915 35.3304 55.0915C37.8572 55.0915 39.913 53.0358 39.913 50.5089V38.0426H49.0759V39.182H49.0409C47.7229 39.182 46.6507 40.2542 46.6507 41.5722V50.0219C46.6507 52.7825 48.8966 55.0284 51.6572 55.0284C54.4178 55.0284 56.6637 52.7825 56.6637 50.0219V41.5722C56.6637 40.2543 55.5916 39.182 54.2735 39.182H54.2385V38.0426H58.9195C59.8804 38.0426 60.6621 38.8244 60.6621 39.7853V55.7862H25.4301V39.7853C25.4301 38.8243 26.2118 38.0426 27.1727 38.0426ZM45.4634 65.6767H40.6287L41.2525 62.4306H44.8395L45.4634 65.6767ZM27.1727 60.4704C26.2118 60.4704 25.4301 59.6886 25.4301 58.7277V57.7465H60.6621V58.7277C60.6621 59.6887 59.8803 60.4704 58.9195 60.4704C57.7199 60.4704 28.5015 60.4704 27.1727 60.4704Z" fill="white"/>
<path d="M35.3307 50.8387C35.8719 50.8387 36.3108 50.3998 36.3108 49.8586V44.0827C36.3108 43.5414 35.8719 43.1025 35.3307 43.1025C34.7895 43.1025 34.3506 43.5414 34.3506 44.0827V49.8586C34.3506 50.3999 34.7895 50.8387 35.3307 50.8387Z" fill="white"/>
<path d="M51.6569 42.5342C51.1157 42.5342 50.6768 42.9731 50.6768 43.5143V49.0193C50.6768 49.5605 51.1157 49.9994 51.6569 49.9994C52.1981 49.9994 52.637 49.5605 52.637 49.0193V43.5143C52.637 42.973 52.1982 42.5342 51.6569 42.5342Z" fill="white"/>
<path d="M35.1384 39.2012C34.0932 39.4133 34.0906 40.9104 35.1384 41.1231C35.7413 41.2434 36.3107 40.7833 36.3107 40.1625C36.3107 39.5491 35.7447 39.0786 35.1384 39.2012Z" fill="white"/>
</g>
<defs>
<clipPath id="clip0_112_283">
<rect width="50.1818" height="50.1818" fill="white" transform="translate(17.9551 17.4551)"/>
</clipPath>
</defs>
</svg>
