<svg width="578" height="704" viewBox="0 0 578 704" fill="none" xmlns="http://www.w3.org/2000/svg">
<g clip-path="url(#clip0_845_6511)">
<path d="M36.0827 366.062C-13.0205 313.704 -110.611 243.064 -112.32 200.26C-114.381 157.134 -20.9124 141.523 54.4888 115.294C129.537 88.7447 186.839 51.2242 232.373 64.2437C277.908 77.2632 311.996 140.47 347.75 189.076C383.184 238.036 419.962 272.748 441.405 318.661C462.847 364.575 469.339 422.684 451.508 473.514C434.029 524.665 392.227 568.536 341.662 598.643C291.097 628.75 231.738 644.42 188.191 623.538C144.966 602.304 117.232 544.872 102.527 498.636C87.5024 452.754 85.8598 418.388 36.0827 366.062Z" fill="#1E2022"/>
</g>
<defs>
<clipPath id="clip0_845_6511">
<rect width="629.661" height="462.706" fill="white" transform="translate(265.986 703.903) rotate(-137.736)"/>
</clipPath>
</defs>
</svg>
