<svg width="46" height="46" viewBox="0 0 46 46" fill="none" xmlns="http://www.w3.org/2000/svg">
<g clip-path="url(#clip0_671_1883)">
<path d="M46 14.7491C46 6.80436 39.5366 0.34082 31.5918 0.34082C28.3746 0.34082 25.4005 1.40098 23 3.18986C20.5995 1.40098 17.6254 0.34082 14.4082 0.34082C6.46345 0.34091 0 6.80436 0 14.7491C0 20.7607 3.7012 25.9233 8.94421 28.0802C8.71404 29.1009 8.59185 30.162 8.59185 31.2513C8.59185 39.196 15.0553 45.6595 23.0001 45.6595C26.0612 45.6595 28.9849 44.712 31.4549 42.9193C31.8572 42.6273 31.9467 42.0644 31.6546 41.6619C31.3627 41.2595 30.7996 41.1702 30.3974 41.4621C28.2369 43.0303 25.6789 43.8591 23.0001 43.8591C16.0481 43.8591 10.3922 38.2032 10.3922 31.2512C10.3922 30.3638 10.4849 29.4978 10.6601 28.6617C11.8558 28.9842 13.1122 29.1572 14.4083 29.1572C17.6255 29.1572 20.5996 28.0971 23.0001 26.3082C25.4006 28.0971 28.3747 29.1572 31.5918 29.1572C32.888 29.1572 34.1443 28.9842 35.34 28.6617C35.5152 29.4978 35.608 30.3638 35.608 31.2512C35.608 32.7164 35.3592 34.1515 34.8685 35.5166C34.7003 35.9845 34.9432 36.5001 35.411 36.6683C35.8791 36.8363 36.3944 36.5936 36.5626 36.1257C37.1239 34.5646 37.4083 32.9245 37.4083 31.2512C37.4083 30.1619 37.2861 29.1008 37.056 28.0801C42.2988 25.9233 46 20.7607 46 14.7491ZM1.80038 14.7491C1.80038 7.79704 7.45622 2.1412 14.4082 2.1412C17.074 2.1412 19.5486 2.97351 21.5874 4.39089C18.8738 7.01262 17.1835 10.687 17.1835 14.7491C17.1835 15.8383 17.3058 16.8995 17.5359 17.9203C13.7958 19.4589 10.8405 22.5268 9.45354 26.3419C4.95767 24.413 1.80038 19.943 1.80038 14.7491ZM27.0162 14.7491C27.0162 15.6364 26.9236 16.5025 26.7483 17.3385C25.5526 17.0161 24.2963 16.8431 23 16.8431C21.7038 16.8431 20.4474 17.0161 19.2517 17.3385C19.0765 16.5025 18.9838 15.6364 18.9838 14.7491C18.9838 11.1141 20.5306 7.83415 23 5.53109C25.4693 7.83424 27.0162 11.1142 27.0162 14.7491ZM23 23.9671C21.5613 22.6253 20.4354 20.9521 19.7467 19.0699C20.785 18.7924 21.8753 18.6435 23 18.6435C24.1247 18.6435 25.215 18.7924 26.2533 19.0699C25.5646 20.9521 24.4387 22.6252 23 23.9671ZM14.4082 27.357C13.2837 27.357 12.1933 27.2081 11.155 26.9306C12.3507 23.6628 14.8626 21.0241 18.0452 19.6586C18.8017 21.7394 20.0248 23.5978 21.5873 25.1073C19.5486 26.5247 17.074 27.357 14.4082 27.357ZM31.5918 27.357C28.926 27.357 26.4514 26.5247 24.4126 25.1073C25.9751 23.5978 27.1982 21.7394 27.9547 19.6586C31.1373 21.024 33.6492 23.6627 34.8449 26.9306C33.8067 27.2081 32.7163 27.357 31.5918 27.357ZM36.5465 26.3419C35.1595 22.5268 32.2042 19.4589 28.4641 17.9203C28.6943 16.8996 28.8165 15.8383 28.8165 14.7491C28.8165 10.687 27.1262 7.01262 24.4126 4.39089C26.4514 2.97351 28.926 2.1412 31.5918 2.1412C38.5438 2.1412 44.1996 7.79704 44.1996 14.7491C44.1996 19.943 41.0423 24.413 36.5465 26.3419Z" fill="#0C0D0E"/>
<path d="M33.7821 40.2575C34.2793 40.2575 34.6823 39.8545 34.6823 39.3573C34.6823 38.8601 34.2793 38.457 33.7821 38.457C33.2849 38.457 32.8818 38.8601 32.8818 39.3573C32.8818 39.8545 33.2849 40.2575 33.7821 40.2575Z" fill="#0C0D0E"/>
</g>
<defs>
<clipPath id="clip0_671_1883">
<rect width="46" height="46" fill="white"/>
</clipPath>
</defs>
</svg>
