<svg width="46" height="46" viewBox="0 0 46 46" fill="none" xmlns="http://www.w3.org/2000/svg">
<g clip-path="url(#clip0_671_1874)">
<path d="M45.8563 21.7566L44.1352 10.316C43.643 7.04392 40.8297 4.62695 37.5263 4.62695H8.47338C5.16419 4.62695 2.35587 7.04967 1.86452 10.316C1.5161 12.6128 0 22.5138 0 23.1331C0 25.5999 1.34522 27.757 3.33965 28.9136C1.34522 30.0703 0 32.2274 0 34.6942C0 38.377 2.99618 41.3732 6.67895 41.3732H39.3208C43.0036 41.3732 45.9997 38.377 45.9997 34.6942C45.9997 32.2275 44.6545 30.0704 42.6601 28.9137C45.1621 27.4627 46.4513 24.585 45.8563 21.7566ZM1.81564 22.719L1.91043 22.0889C2.3901 19.8972 4.34536 18.251 6.67886 18.251H39.3207C41.6544 18.251 43.6098 19.8974 44.0893 22.0894L44.1839 22.7184C44.3966 25.2334 42.1032 28.0153 38.9644 28.0153H7.03517C3.84215 28.0152 1.60873 25.1688 1.81564 22.719ZM8.47338 6.42382H37.5263C39.9457 6.42382 41.9991 8.19517 42.3584 10.5833L43.4585 17.8962C42.3198 16.9946 40.8826 16.4542 39.3208 16.4542H6.67895C5.11711 16.4542 3.67998 16.9945 2.54122 17.8961L3.64135 10.5832C4.00135 8.19076 6.05831 6.42382 8.47338 6.42382ZM44.2029 34.6942C44.2029 37.3862 42.0128 39.5763 39.3208 39.5763H6.67895C3.98697 39.5763 1.79686 37.3862 1.79686 34.6942C1.79686 32.0023 3.98697 29.8122 6.67895 29.8122H39.3208C42.0128 29.8121 44.2029 32.0022 44.2029 34.6942Z" fill="#0C0D0E"/>
<path d="M29.876 20.3115H7.4135C5.8576 20.3115 4.5918 21.5773 4.5918 23.1332C4.5918 24.6891 5.8576 25.9549 7.4135 25.9549H29.876C31.4319 25.9549 32.6977 24.6891 32.6977 23.1332C32.6977 21.5773 31.4319 20.3115 29.876 20.3115ZM29.876 24.1581H7.4135C6.84839 24.1581 6.38866 23.6983 6.38866 23.1332C6.38866 22.5681 6.84839 22.1084 7.4135 22.1084H29.876C30.4411 22.1084 30.9009 22.5681 30.9009 23.1332C30.9009 23.6983 30.4411 24.1581 29.876 24.1581Z" fill="#0C0D0E"/>
<path d="M29.876 31.8726H7.4135C5.8576 31.8726 4.5918 33.1384 4.5918 34.6943C4.5918 36.2502 5.8576 37.516 7.4135 37.516H29.876C31.4319 37.516 32.6977 36.2502 32.6977 34.6943C32.6977 33.1384 31.4319 31.8726 29.876 31.8726ZM29.876 35.7191H7.4135C6.84839 35.7191 6.38866 35.2594 6.38866 34.6943C6.38866 34.1291 6.84839 33.6694 7.4135 33.6694H29.876C30.4411 33.6694 30.9009 34.1291 30.9009 34.6943C30.9009 35.2594 30.4411 35.7191 29.876 35.7191Z" fill="black"/>
<path d="M41.4365 23.1333C41.4365 21.3929 40.0207 19.9771 38.2803 19.9771C36.54 19.9771 35.124 21.3929 35.124 23.1333C35.124 24.8736 36.54 26.2895 38.2803 26.2895C40.0207 26.2895 41.4365 24.8736 41.4365 23.1333ZM38.2803 24.4926C37.5308 24.4926 36.9209 23.8828 36.9209 23.1333C36.9209 22.3837 37.5308 21.7739 38.2803 21.7739C39.0299 21.7739 39.6397 22.3838 39.6397 23.1333C39.6397 23.8828 39.0299 24.4926 38.2803 24.4926Z" fill="black"/>
<path d="M35.124 34.6943C35.124 36.4347 36.54 37.8505 38.2803 37.8505C40.0207 37.8505 41.4365 36.4347 41.4365 34.6943C41.4365 32.9539 40.0207 31.5381 38.2803 31.5381C36.54 31.5381 35.124 32.9539 35.124 34.6943ZM39.6397 34.6943C39.6397 35.4439 39.0299 36.0536 38.2803 36.0536C37.5308 36.0536 36.9209 35.4439 36.9209 34.6943C36.9209 33.9447 37.5308 33.335 38.2803 33.335C39.0299 33.335 39.6397 33.9447 39.6397 34.6943Z" fill="black"/>
<path d="M10.7549 9.92821H26.683C27.1791 9.92821 27.5814 9.52598 27.5814 9.02978C27.5814 8.53358 27.1791 8.13135 26.683 8.13135H10.7549C10.2587 8.13135 9.85645 8.53358 9.85645 9.02978C9.85645 9.52598 10.2587 9.92821 10.7549 9.92821Z" fill="black"/>
<path d="M30.2774 9.92822H30.2797C30.7758 9.92822 31.1769 9.52599 31.1769 9.02979C31.1769 8.53358 30.7736 8.13135 30.2773 8.13135C29.7811 8.13135 29.3789 8.53358 29.3789 9.02979C29.3789 9.52599 29.7813 9.92822 30.2774 9.92822Z" fill="black"/>
</g>
<defs>
<clipPath id="clip0_671_1874">
<rect width="46" height="46" fill="white"/>
</clipPath>
</defs>
</svg>
