<svg width="104" height="39" viewBox="0 0 104 39" fill="none" xmlns="http://www.w3.org/2000/svg">
<path d="M103.991 27.5327C103.54 28.1035 103.173 28.8215 102.623 29.2157C101.379 30.1102 100.121 29.6198 99.0128 27.9799C94.4073 30.1828 90.4592 29.2589 87.9318 25.3887C86.802 23.6518 86.2176 21.5379 86.2713 19.3826C86.3251 17.2272 87.0139 15.1539 88.2284 13.4917C89.5158 11.743 91.3119 10.5698 93.2947 10.1824C95.2775 9.79489 97.3175 10.2184 99.0493 11.3772C100.387 9.80789 101.46 9.42931 102.659 10.3159C103.204 10.7181 103.559 11.4458 104 12.0264L103.991 27.5327ZM90.7558 19.6982C90.7763 20.8876 91.2096 22.0203 91.9623 22.8515C92.7149 23.6828 93.7264 24.146 94.7785 24.1411C96.9555 24.1235 98.7943 22.0638 98.7821 19.653C98.77 17.2423 96.9243 15.1532 94.7837 15.1414C93.7161 15.145 92.6932 15.6264 91.9385 16.4802C91.1838 17.334 90.7586 18.4909 90.7558 19.6982ZM71.0743 29.0314V34.6415C71.0743 35.1319 71.0899 35.6223 71.0743 36.1127C70.9979 37.7898 69.9086 38.9609 68.4254 38.9805C66.9423 39.0001 65.7801 37.8388 65.6846 36.2088C65.6239 35.1672 65.6569 34.1158 65.6552 33.0702C65.6552 26.597 65.6708 20.1238 65.643 13.6506C65.643 12.201 65.9136 10.9691 67.1192 10.2649C68.2693 9.59015 69.3344 9.83143 70.3336 10.7612C70.4897 10.9044 70.9129 10.8044 71.161 10.6828C76.3477 8.1327 82.334 11.5164 83.4685 17.7052C84.1485 21.4126 83.2638 24.6786 80.7884 27.2365C78.2627 29.8474 75.2808 30.4986 72.0023 29.3687C71.7473 29.2726 71.5045 29.1804 71.0743 29.0314ZM74.8333 15.1042C74.2775 15.0982 73.7261 15.2167 73.211 15.4527C72.6959 15.6887 72.2271 16.0377 71.8317 16.4795C71.4364 16.9213 71.1222 17.4472 70.9074 18.0268C70.6925 18.6065 70.5812 19.2285 70.5799 19.8571C70.5761 20.8008 70.8198 21.7245 71.2801 22.5118C71.7403 23.299 72.3966 23.9143 73.1659 24.2799C73.9353 24.6456 74.7832 24.7453 75.6026 24.5664C76.422 24.3874 77.1761 23.9379 77.7697 23.2746C78.3633 22.6113 78.7698 21.7639 78.9378 20.8395C79.1058 19.9151 79.0277 18.9551 78.7135 18.0809C78.3993 17.2066 77.863 16.4572 77.1724 15.9274C76.4818 15.3976 75.6678 15.1111 74.8333 15.1042ZM49.6858 29.0314C49.6858 31.4696 49.7049 33.7548 49.6771 36.0401C49.679 36.6505 49.5104 37.2461 49.1956 37.742C48.8807 38.2379 48.4355 38.6088 47.9234 38.802C46.8236 39.1943 45.7308 39.0452 45.0074 37.9781C44.576 37.3369 44.3274 36.5624 44.2945 35.7576C44.2424 28.2075 44.265 20.6535 44.2615 13.1073C44.2615 11.8205 44.7038 10.8161 45.736 10.2277C46.7681 9.63919 47.8384 9.7412 48.7265 10.6082C49.1845 11.0535 49.5071 10.7926 49.894 10.6082C55.0529 8.19547 60.8224 11.4693 62.0193 17.5483C62.7669 21.3302 61.8805 24.6296 59.3496 27.2404C56.8188 29.8513 53.8889 30.4653 50.652 29.3746C50.3727 29.2844 50.1039 29.1863 49.6858 29.0314ZM53.3546 24.6021C54.1861 24.6064 55.0001 24.3316 55.6935 23.8127C56.3869 23.2937 56.9286 22.5538 57.25 21.6867C57.5715 20.8195 57.6582 19.864 57.4993 18.941C57.3404 18.0181 56.943 17.1691 56.3574 16.5017C55.7717 15.8342 55.0241 15.3781 54.2092 15.1912C53.3943 15.0043 52.5487 15.0949 51.7793 15.4516C51.0099 15.8083 50.3514 16.415 49.887 17.195C49.4227 17.975 49.1734 18.8932 49.1706 19.8335C49.1637 22.3953 51.0909 24.5923 53.3546 24.61V24.6021ZM23.024 13.5957V3.29153C23.0274 1.29464 24.1116 0 25.7561 0C27.4005 0 28.4639 1.33976 28.4639 3.32095C28.4639 9.7 28.476 16.0712 28.4535 22.4581C28.4535 23.2937 28.587 23.8312 29.3642 24.1823C30.6322 24.7708 31.189 26.3146 30.8039 27.7583C30.6241 28.4725 30.2248 29.0907 29.6778 29.5016C29.1309 29.9126 28.4723 30.0895 27.8203 30.0004C24.9217 29.6434 23.0534 27.2934 23.0292 23.8999C23.0031 20.4651 23.024 17.0304 23.024 13.5957ZM13.3844 19.9139L17.6604 24.3451C19.0013 25.7359 19.1695 27.6661 18.068 29.0235C16.9665 30.3809 15.2579 30.3515 13.9048 28.9627C11.7642 26.7736 9.6248 24.5831 7.48654 22.3914C6.0988 20.9673 6.08666 18.9528 7.46746 17.5149C9.63001 15.2604 11.8024 13.0144 13.9846 10.7769C15.27 9.46069 17.0081 9.50581 18.0854 10.8416C19.1626 12.1775 19.0238 14.0567 17.7679 15.3847C16.3385 16.8951 14.8797 18.3721 13.3844 19.9139ZM34.4173 19.8492C34.4173 17.5954 34.4069 15.3376 34.4173 13.0876C34.4277 11.1516 35.5673 9.85301 37.2187 9.86478C38.8112 9.87458 39.9387 11.181 39.9439 13.0739C39.9543 17.6169 39.9543 22.1586 39.9439 26.699C39.9439 28.6233 38.7453 30.0337 37.1858 30.02C35.5847 29.9984 34.4259 28.6292 34.4103 26.7108C34.4086 24.4236 34.4173 22.1364 34.4173 19.8492ZM0.0205264 7.89339C0.0205264 6.39082 0.00317972 4.88825 0.0205264 3.38176C0.0586891 1.28876 1.12898 0 2.77518 0C4.46301 0.00980789 5.55065 1.3731 5.56106 3.46611C5.56106 6.53794 5.57146 9.60977 5.56106 12.6855C5.57227 13.3438 5.39677 13.9888 5.06026 14.526C4.72375 15.0633 4.24392 15.4646 3.69108 15.671C2.57222 16.0849 1.2851 15.7495 0.658884 14.6726C0.300387 14.0159 0.0906586 13.2694 0.0482811 12.4992C-0.0419216 10.9711 0.0222611 9.42931 0.0205264 7.89339Z" fill="#1E2022"/>
<path d="M5.41804 26.758C5.41804 28.647 4.38765 29.8573 2.7692 29.8553C1.22882 29.8553 0.12904 28.596 0.122101 26.8247C0.115162 25.0534 1.28606 23.6705 2.80043 23.6862C4.31479 23.7019 5.41457 24.9847 5.41804 26.758Z" fill="#1E2022"/>
</svg>
