<svg width="149" height="56" viewBox="0 0 149 56" fill="none" xmlns="http://www.w3.org/2000/svg">
<g opacity="0.8" clip-path="url(#clip0_63_6820)">
<path opacity="0.5" d="M27.5267 19.4852L15.9735 26.1498L4.44922 19.4852L15.9735 12.7974L27.5267 19.4852Z" fill="#F1F1F1"/>
<path d="M13.4049 27.6305L3.15918 33.5662V21.6948L13.4049 27.6305Z" fill="#F1F1F1"/>
<path opacity="0.5" d="M27.5266 35.776L15.9966 42.4638L4.44336 35.776L15.9966 29.1172L27.5266 35.776Z" fill="#F1F1F1"/>
<path d="M0.989283 37.616L15.0359 45.7327C15.6492 46.0856 16.4013 46.0856 17.0145 45.7327L31.1248 37.5755C32.4439 36.8118 32.4381 34.9142 31.1248 34.1564L19.8493 27.6537L30.9339 21.261C32.253 20.5031 32.253 18.5997 30.9339 17.8419L16.9972 9.80032C16.3839 9.44742 15.6318 9.44742 15.0244 9.80032L0.989283 17.8997C0.376043 18.2526 0 18.9064 0 19.6122V35.9093C0 36.6151 0.376043 37.2631 0.989283 37.616ZM15.9732 13.5087L26.2941 19.456L15.9732 25.409L5.65222 19.4617L15.9732 13.5087ZM12.1722 27.6306L3.77779 32.496V22.7651L12.1722 27.6306ZM15.9732 41.7525L5.68115 35.8052L15.9963 29.8521L26.3173 35.7994L15.9732 41.7525Z" fill="#F1F1F1"/>
<path d="M50.4364 21.759C51.472 21.759 52.4613 22.0309 53.3233 22.5226C54.139 22.9912 55.1746 22.8408 55.8399 22.1755C56.8002 21.2151 56.6325 19.5837 55.4465 18.8895C53.9423 18.0275 52.2357 17.5588 50.4364 17.5588C44.9057 17.5588 40.4395 22.054 40.4395 27.6079C40.4395 33.1386 44.9346 37.6569 50.4364 37.6569C52.2125 37.6569 53.9423 37.1883 55.4465 36.3263C56.6325 35.6379 56.806 34.0064 55.8399 33.0692C55.1746 32.4039 54.139 32.2535 53.3233 32.7221C52.4613 33.2138 51.4489 33.4857 50.4364 33.4857C47.2256 33.4857 44.6106 30.8419 44.6106 27.6079C44.6106 24.3971 47.2256 21.759 50.4364 21.759ZM74.5553 17.582C73.3924 17.582 72.4552 18.5192 72.4552 19.682V27.5327C72.4552 30.8187 70.3552 33.48 67.7865 33.48C65.2178 33.48 63.1178 30.8129 63.1178 27.5327V19.682C63.1178 18.5192 62.1806 17.582 61.0177 17.582C59.8549 17.582 58.9177 18.5192 58.9177 19.682V27.5327C58.9177 33.1097 62.8921 37.6569 67.7576 37.6569C72.6461 37.6569 76.5975 33.1155 76.5975 27.5327V19.682C76.6553 18.5192 75.7181 17.582 74.5553 17.582ZM110.008 17.582C107.907 17.582 105.935 18.2704 104.355 19.4101V13.3877C104.355 12.2248 103.418 11.2876 102.255 11.2876C101.092 11.2876 100.155 12.2248 100.155 13.3877V27.6079C100.155 33.1386 104.575 37.6569 110.008 37.6569C115.44 37.6569 119.86 33.1618 119.86 27.6079C119.837 22.1003 115.417 17.582 110.008 17.582ZM110.008 33.5089C106.872 33.5089 104.355 30.865 104.355 27.631C104.355 24.3971 106.901 21.7532 110.008 21.7532C113.143 21.7532 115.683 24.3971 115.683 27.631C115.666 30.865 113.12 33.5089 110.008 33.5089ZM124.106 17.582C122.943 17.582 122.006 18.5192 122.006 19.682V35.58C122.006 36.7429 122.943 37.6801 124.106 37.6801C125.269 37.6801 126.206 36.7429 126.206 35.58V19.682C126.206 18.5192 125.269 17.582 124.106 17.582ZM88.4053 17.582C82.9729 17.582 78.5529 22.0772 78.5529 27.631C78.5529 33.1618 83.1464 37.6801 88.7987 37.6801C90.6268 37.6801 92.4029 37.2115 93.936 36.3205C95.122 35.6552 95.3187 34.0238 94.3815 33.0634C93.7161 32.3981 92.7037 32.2245 91.888 32.6932C90.9739 33.2138 89.9152 33.5089 88.8276 33.5089C86.2358 33.5089 84.0374 31.9295 83.1522 29.7311H96.1865C97.3493 29.7311 98.2865 28.7939 98.2865 27.631C98.2576 22.1003 93.8376 17.582 88.4053 17.582ZM83.1002 25.531C83.9159 23.3326 85.987 21.7532 88.4053 21.7532C90.8235 21.7532 92.9004 23.3326 93.7104 25.531H83.1002ZM124.106 11.3397C122.943 11.3397 122.006 12.2769 122.006 13.4397C122.006 14.6026 122.943 15.5398 124.106 15.5398C125.269 15.5398 126.206 14.6026 126.206 13.4397C126.206 12.2537 125.269 11.3397 124.106 11.3397ZM138.228 17.582C132.796 17.582 128.376 22.0772 128.376 27.631C128.376 33.1618 132.796 37.6801 138.228 37.6801C140.328 37.6801 142.301 36.9916 143.904 35.8288V41.8513C143.904 43.0141 144.841 43.9513 146.004 43.9513C147.166 43.9513 148.104 43.0141 148.104 41.8513V27.631C148.08 22.1003 143.661 17.582 138.228 17.582ZM138.228 33.5089C135.093 33.5089 132.553 30.865 132.553 27.631C132.553 24.3971 135.098 21.7532 138.228 21.7532C141.364 21.7532 143.904 24.3971 143.904 27.631C143.904 30.865 141.364 33.5089 138.228 33.5089Z" fill="#F1F1F1"/>
</g>
<defs>
<clipPath id="clip0_63_6820">
<rect width="148.103" height="55.5387" fill="white"/>
</clipPath>
</defs>
</svg>
