<svg width="148" height="38" viewBox="0 0 148 38" fill="none" xmlns="http://www.w3.org/2000/svg">
<g opacity="0.8" clip-path="url(#clip0_671_2027)">
<path opacity="0.25" d="M0 26.6559C0 25.8055 0.288209 24.9899 0.801226 24.3885C1.31424 23.787 2.01005 23.4492 2.73556 23.4492H10.002V35.174H2.73556C2.01005 35.174 1.31424 34.8362 0.801226 34.2348C0.288209 33.6333 0 32.8177 0 31.9673V26.6559Z" fill="#0C0D0E"/>
<path opacity="0.5" d="M10.001 14.7784C10.0094 14.3672 10.0869 13.9621 10.2289 13.5861C10.371 13.21 10.5749 12.8705 10.8289 12.5868C11.083 12.3032 11.3822 12.081 11.7094 11.933C12.0368 11.7849 12.3858 11.714 12.7365 11.7241H20.003V35.1736H10.001V14.7784Z" fill="#0C0D0E"/>
<path d="M20.0029 3.10116C20.0089 2.68696 20.0843 2.27817 20.2249 1.89814C20.3656 1.5181 20.5687 1.17428 20.8228 0.886297C21.0767 0.598311 21.3767 0.371811 21.7054 0.219731C22.0341 0.0676523 22.3852 -0.00702659 22.7386 -3.9616e-05H27.2694C27.6228 -0.00702659 27.9739 0.0676523 28.3025 0.219731C28.6312 0.371811 28.9312 0.598311 29.1852 0.886297C29.4393 1.17428 29.6424 1.5181 29.783 1.89814C29.9237 2.27817 29.9991 2.68696 30.005 3.10116V32.0732C29.9991 32.4874 29.9237 32.8961 29.783 33.2761C29.6424 33.6561 29.4393 34 29.1852 34.2879C28.9312 34.576 28.6312 34.8024 28.3025 34.9546C27.9739 35.1066 27.6228 35.1813 27.2694 35.1743H20.0029V3.10116Z" fill="#0C0D0E"/>
<path d="M35.1833 13.1844C35.1833 16.86 37.0037 19.1933 40.4795 20.0785L43.7251 20.9285C45.4055 21.3565 46.1056 22.3121 46.1056 23.9184C46.1056 25.9233 44.6053 27.1369 42.2148 27.1369C39.9193 27.1369 38.5191 25.9233 38.489 23.8832H34.9033C34.9883 28.1862 37.8439 30.9181 42.2148 30.9181C46.7157 30.9181 49.7163 28.028 49.7163 23.5608C49.7163 19.9847 48.006 17.886 44.5053 16.9949L41.2846 16.1741C39.5793 15.7168 38.7841 14.7672 38.7841 13.0553C38.7841 11.0563 40.2144 9.8076 42.4249 9.8076C44.4252 9.8076 45.7005 11.0211 45.7855 13.0905H49.3712C49.2562 8.75823 46.6257 6.05566 42.4798 6.05566C38.154 6.06153 35.1833 8.98099 35.1833 13.1844Z" fill="#0C0D0E"/>
<path d="M52.1494 37.9997H55.5652V28.315C56.4354 29.9565 58.2257 30.9121 60.2961 30.9121C64.4119 30.9121 66.7674 27.2363 66.7674 22.1772C66.7674 17.118 64.1919 13.7764 60.2961 13.7764C58.1957 13.7764 56.3753 14.8551 55.5352 16.7076L55.3151 14.2453H52.1494V37.9997ZM55.5951 22.3764C55.5951 19.4452 57.1355 17.4169 59.4859 17.4169C61.8364 17.4169 63.3217 19.4862 63.3217 22.3764C63.3217 25.2667 61.8914 27.3008 59.4859 27.3008C57.0804 27.3008 55.5951 25.2959 55.5951 22.3764Z" fill="#0C0D0E"/>
<path d="M75.393 30.9121C79.0087 30.9121 81.5292 28.7781 82.1194 25.2315H78.9537C78.5587 26.7733 77.3284 27.6291 75.453 27.6291C73.1826 27.6291 71.8923 26.1812 71.6422 23.3262H82.0593V22.0775C82.0593 17.0241 79.4288 13.7764 75.283 13.7764C71.2222 13.7764 68.3916 17.2938 68.3916 22.3764C68.3916 27.4592 71.2772 30.9121 75.393 30.9121ZM75.313 17.0593C77.3534 17.0593 78.6737 18.5366 78.6737 20.7643H71.7272C72.0623 18.3373 73.2976 17.0593 75.313 17.0593Z" fill="#0C0D0E"/>
<path d="M87.9323 30.484V21.7489C87.9323 19.1226 89.2226 17.4166 91.323 17.4166C93.0883 17.4166 94.2335 18.7298 94.2335 21.4558V30.484H97.6492V20.5178C97.6492 16.3145 95.8589 13.7878 92.3882 13.7878C91.5235 13.7441 90.6636 13.959 89.8893 14.4124C89.1151 14.8657 88.4519 15.5425 87.9623 16.379L87.6822 14.2803H84.5166V30.484H87.9323Z" fill="#0C0D0E"/>
<path d="M106.417 30.9122C108.518 30.9122 110.308 29.8277 111.148 27.981L111.373 30.4842H114.524V6.06152H111.133V16.3325C110.268 14.7261 108.558 13.7765 106.632 13.7765C102.456 13.7765 99.9355 17.3876 99.9355 22.441C99.9355 27.4944 102.411 30.9122 106.417 30.9122ZM107.172 27.2365C104.792 27.2365 103.331 25.1964 103.331 22.312C103.331 19.4277 104.792 17.3525 107.172 17.3525C109.553 17.3525 111.093 19.3867 111.093 22.312C111.093 25.2374 109.553 27.2365 107.172 27.2365Z" fill="#0C0D0E"/>
<path d="M116.419 14.2695V17.6169H118.419V30.4848H121.81V17.6169H127.31V30.4848H130.726V6.06215H127.31V14.2695H121.81V12.3115C121.81 10.6993 122.144 9.64994 123.685 9.64994H124.891V6.2263C124.307 6.10729 123.716 6.05232 123.125 6.06215C120.324 6.06215 118.419 7.89709 118.419 12.2997V14.2695H116.419Z" fill="#0C0D0E"/>
<path d="M133.217 22.3418C133.217 27.401 136.323 30.8774 140.609 30.8774C144.895 30.8774 148.001 27.401 148.001 22.3418C148.001 17.2825 144.895 13.8062 140.609 13.8062C136.323 13.8062 133.217 17.2885 133.217 22.3418ZM136.633 22.3418C136.633 19.4106 138.259 17.388 140.634 17.388C143.01 17.388 144.61 19.3872 144.61 22.3418C144.61 25.2965 142.984 27.3013 140.634 27.3013C138.283 27.3013 136.633 25.2965 136.633 22.3418Z" fill="#0C0D0E"/>
</g>
<defs>
<clipPath id="clip0_671_2027">
<rect width="148" height="38" fill="white"/>
</clipPath>
</defs>
</svg>
