<svg width="112" height="42" viewBox="0 0 112 42" fill="none" xmlns="http://www.w3.org/2000/svg">
<g opacity="0.8">
<path d="M111.172 0.161621H0.0190302V3.92169H111.172V0.161621ZM111.172 38.2676H0.0190302V42.0005H111.172V38.2676ZM107.217 21.0322C107.217 17.772 106.881 15.7778 104.539 15.7778H102.58V26.243H104.539C106.881 26.243 107.217 24.2543 107.217 20.9833V21.0322ZM111.172 20.9833C111.172 26.0474 109.647 29.8293 104.539 29.8293H99.0588C99.0106 29.8324 98.9622 29.8247 98.9169 29.8068C98.8716 29.7888 98.8305 29.7609 98.7962 29.7249C98.7621 29.6889 98.7355 29.6457 98.7184 29.5981C98.7012 29.5505 98.6939 29.4996 98.697 29.4489V12.5394C98.6939 12.4886 98.7012 12.4377 98.7184 12.3902C98.7355 12.3426 98.7621 12.2994 98.7962 12.2634C98.8305 12.2274 98.8716 12.1995 98.9169 12.1815C98.9622 12.1635 99.0106 12.1559 99.0588 12.1591H104.539C109.647 12.1591 111.172 15.9626 111.172 21.005V20.9833ZM90.7766 26.6397V29.4706C90.7797 29.5214 90.7724 29.5722 90.7553 29.6198C90.7383 29.6674 90.7117 29.7106 90.6774 29.7466C90.6432 29.7826 90.602 29.8105 90.5567 29.8285C90.5115 29.8465 90.4631 29.8541 90.4148 29.851H79.8734C79.825 29.8541 79.7767 29.8465 79.7314 29.8285C79.6861 29.8105 79.6449 29.7826 79.6108 29.7466C79.5765 29.7106 79.5499 29.6674 79.5328 29.6198C79.5157 29.5722 79.5085 29.5214 79.5115 29.4706V12.5394C79.5085 12.4886 79.5157 12.4377 79.5328 12.3902C79.5499 12.3426 79.5765 12.2994 79.6108 12.2634C79.6449 12.2274 79.6861 12.1995 79.7314 12.1815C79.7767 12.1635 79.825 12.1559 79.8734 12.1591H90.3941C90.4424 12.1559 90.4909 12.1635 90.5361 12.1815C90.5813 12.1995 90.6225 12.2274 90.6567 12.2634C90.691 12.2994 90.7175 12.3426 90.7346 12.3902C90.7517 12.4377 90.7591 12.4886 90.756 12.5394V15.3757C90.7591 15.4265 90.7517 15.4774 90.7346 15.525C90.7175 15.5726 90.691 15.6158 90.6567 15.6517C90.6225 15.6878 90.5813 15.7156 90.5361 15.7336C90.4909 15.7517 90.4424 15.7593 90.3941 15.7561H83.3993V19.1793H89.8048C89.8531 19.1762 89.9014 19.1837 89.9467 19.2017C89.992 19.2198 90.0332 19.2476 90.0674 19.2836C90.1016 19.3197 90.1281 19.3629 90.1453 19.4105C90.1624 19.4581 90.1696 19.5088 90.1666 19.5596V22.3906C90.1696 22.4414 90.1624 22.4922 90.1453 22.5398C90.1281 22.5874 90.1016 22.6306 90.0674 22.6666C90.0332 22.7026 89.992 22.7304 89.9467 22.7485C89.9014 22.7665 89.8531 22.7741 89.8048 22.7709H83.3993V26.2974H90.42C90.4676 26.2924 90.5155 26.2985 90.5606 26.3152C90.6057 26.332 90.6467 26.3589 90.6808 26.3942C90.7149 26.4295 90.7411 26.4722 90.7577 26.5192C90.7742 26.5664 90.7807 26.6168 90.7766 26.6668V26.6397ZM71.7669 24.8357C71.7669 28.6392 69.6007 30.2694 65.3614 30.2694C61.4064 30.2694 59.4625 28.8566 59.1576 25.3194C59.1473 25.2677 59.1484 25.2142 59.1607 25.1631C59.173 25.112 59.1963 25.0645 59.2286 25.0241C59.261 24.9839 59.3017 24.9517 59.3476 24.9304C59.3935 24.9091 59.4435 24.8989 59.4935 24.901H62.3887C62.6059 24.901 62.6886 25.0422 62.7507 25.2433C63.066 26.1506 63.8311 26.5962 65.3356 26.5962C66.9486 26.5962 67.9464 26.118 67.9464 24.9661C67.9464 23.8142 67.5845 23.1622 65.2528 22.6785C62.2698 22.0591 59.3851 20.7605 59.3851 17.1961C59.3851 13.9359 61.2721 11.9254 65.2528 11.9254C68.7995 11.9254 70.9398 13.3382 71.2396 16.7505C71.2511 16.8042 71.2511 16.86 71.2396 16.9138C71.2283 16.9676 71.2057 17.0181 71.1736 17.0616C71.1416 17.1053 71.1007 17.1409 71.054 17.166C71.0073 17.1911 70.956 17.205 70.9035 17.2069H68.2617C68.0447 17.2069 67.9619 17.0276 67.8999 16.8265C67.6724 16.093 66.9125 15.5659 65.3511 15.5659C63.919 15.5659 63.2004 16.2615 63.2004 17.1961C63.2004 17.9513 63.1539 18.7392 65.2943 19.1685C68.4479 19.7825 71.7773 20.9453 71.7773 24.8249L71.7669 24.8357ZM43.896 20.5106H46.4292C47.882 20.5106 48.4507 20.2443 48.4507 18.1252C48.4507 16.006 47.8872 15.7507 46.4292 15.7507H43.896V20.5106ZM51.9817 29.851H48.9987C48.9078 29.8582 48.8171 29.8332 48.7412 29.7801C48.6653 29.7269 48.6085 29.6486 48.58 29.5575L46.2844 24.1239H43.8909V29.4923C43.8939 29.5431 43.8865 29.5939 43.8694 29.6416C43.8524 29.6892 43.8258 29.7324 43.7916 29.7683C43.7573 29.8044 43.7163 29.8322 43.671 29.8502C43.6257 29.8682 43.5772 29.8759 43.5289 29.8727H40.3442C40.2956 29.8757 40.2466 29.868 40.2009 29.8502C40.1551 29.8323 40.1133 29.8046 40.0784 29.7688C40.0434 29.733 40.0158 29.69 39.9975 29.6423C39.9792 29.5947 39.9705 29.5436 39.9721 29.4923V12.5394C39.9705 12.4882 39.9792 12.437 39.9975 12.3894C40.0158 12.3418 40.0434 12.2988 40.0784 12.263C40.1133 12.2272 40.1551 12.1995 40.2009 12.1816C40.2466 12.1637 40.2956 12.156 40.3442 12.1591H46.4035C50.9477 12.1591 52.1368 14.3325 52.1368 18.1361C52.1368 20.7876 51.5577 22.6351 49.6966 23.5153L52.2351 29.4C52.3488 29.6716 52.2351 29.851 51.961 29.851H51.9817ZM32.0104 26.6397V29.4706C32.0135 29.5214 32.0061 29.5722 31.989 29.6198C31.9719 29.6674 31.9454 29.7106 31.9111 29.7466C31.8769 29.7826 31.8357 29.8105 31.7906 29.8285C31.7453 29.8465 31.6968 29.8541 31.6485 29.851H21.107C21.0587 29.8541 21.0104 29.8465 20.9651 29.8285C20.9198 29.8105 20.8786 29.7826 20.8444 29.7466C20.8103 29.7106 20.7837 29.6674 20.7665 29.6198C20.7494 29.5722 20.7422 29.5214 20.7452 29.4706V12.5394C20.7422 12.4886 20.7494 12.4377 20.7665 12.3902C20.7837 12.3426 20.8103 12.2994 20.8444 12.2634C20.8786 12.2274 20.9198 12.1995 20.9651 12.1815C21.0104 12.1635 21.0587 12.1559 21.107 12.1591H31.6278C31.6761 12.1559 31.7245 12.1635 31.7698 12.1815C31.8151 12.1995 31.8562 12.2274 31.8905 12.2634C31.9247 12.2994 31.9512 12.3426 31.9683 12.3902C31.9855 12.4377 31.9928 12.4886 31.9897 12.5394V15.3757C31.9928 15.4265 31.9855 15.4774 31.9683 15.525C31.9512 15.5726 31.9247 15.6158 31.8905 15.6517C31.8562 15.6878 31.8151 15.7156 31.7698 15.7336C31.7245 15.7517 31.6761 15.7593 31.6278 15.7561H24.6278V19.1793H31.0384C31.0868 19.1762 31.1352 19.1837 31.1804 19.2017C31.2257 19.2198 31.2669 19.2476 31.301 19.2836C31.3353 19.3197 31.3619 19.3629 31.379 19.4105C31.3961 19.4581 31.4033 19.5088 31.4004 19.5596V22.3906C31.4033 22.4414 31.3961 22.4922 31.379 22.5398C31.3619 22.5874 31.3353 22.6306 31.301 22.6666C31.2669 22.7026 31.2257 22.7304 31.1804 22.7485C31.1352 22.7665 31.0868 22.7741 31.0384 22.7709H24.6278V26.2974H31.6485C31.6962 26.2925 31.7444 26.2986 31.7898 26.3154C31.8351 26.3321 31.8763 26.3589 31.9109 26.3941C31.9453 26.4292 31.9719 26.4719 31.9891 26.5189C32.0063 26.5661 32.0136 26.6165 32.0104 26.6668V26.6397ZM9.89355 12.1591H13.1248C13.3884 12.1591 13.4608 12.3383 13.4143 12.5883L9.54199 29.5413C9.5182 29.634 9.4644 29.7151 9.38986 29.7706C9.31531 29.8261 9.22469 29.8527 9.13356 29.8455H4.29972C4.20859 29.8527 4.11797 29.8261 4.04342 29.7706C3.96888 29.7151 3.91508 29.634 3.89129 29.5413L0.0190302 12.5883C-0.0430084 12.3383 0.0448806 12.1591 0.308545 12.1591H3.5294C3.62147 12.1461 3.71482 12.1702 3.79062 12.2267C3.86641 12.2831 3.91902 12.3677 3.93782 12.4634L6.52277 25.6018H6.88466L9.46961 12.4634C9.48841 12.3677 9.54102 12.2831 9.61681 12.2267C9.69261 12.1702 9.78596 12.1461 9.87803 12.1591" fill="#F1F1F1"/>
</g>
</svg>
