<svg width="149" height="56" viewBox="0 0 149 56" fill="none" xmlns="http://www.w3.org/2000/svg">
<g opacity="0.8" clip-path="url(#clip0_63_6851)">
<path d="M29.8521 12.9067V42.6778H25.7734V12.9067H29.8521ZM0 42.6836V12.9067H12.7797H13.9367C17.3848 12.9067 19.3807 13.7745 20.6187 15.0878C21.8799 16.4011 22.8287 18.692 22.8287 22.3194C22.8287 25.7906 21.8568 27.8675 20.5378 29.1287C19.2476 30.3899 17.1187 31.3097 13.5433 31.3097L12.2012 31.3387H4.02656V42.6721H0V42.6836ZM4.02656 27.9774H11.5474C14.7062 27.9774 16.3897 27.3468 17.2575 26.7162C18.1542 26.0567 18.9121 24.8765 18.9121 22.5624C18.9121 19.8259 18.2815 18.3276 17.674 17.616C17.0666 16.9044 15.9095 16.3258 13.7574 16.3258C11.6053 16.3258 3.99763 16.3027 3.99763 16.3027V27.9832H4.02656V27.9774ZM37.1878 27.6361H33.5604C33.8208 25.0848 34.4803 24.0608 35.5332 23.112C36.5861 22.1632 38.744 20.983 42.0301 20.983C45.8426 20.983 47.6302 21.8508 48.9204 23.0079C50.4708 24.3732 51.1824 26.398 51.1824 30.4246C51.1824 30.4246 51.1824 39.1835 51.1824 40.2596C51.1824 41.81 51.5527 42.5216 51.5527 42.5216V42.7068H47.7922L47.7112 41.0522L47.6302 41.0232C45.8946 42.863 44.2921 43.0481 41.0003 43.1002C36.239 43.1522 32.9009 40.8902 32.8488 36.8116C32.8199 34.2892 33.5836 32.6288 34.7927 31.6279C35.9787 30.656 37.9515 29.7361 41.1044 29.7072C44.5235 29.6551 46.7335 30.1527 47.6534 31.4717L47.7344 31.4428V30.0254C47.7344 27.6303 47.2079 26.265 46.5252 25.5534C45.8657 24.8418 44.6566 24.0781 42.3946 24.1071C38.9234 24.1418 37.4539 25.2699 37.1878 27.6361ZM41.9491 32.6866C39.6581 32.7156 38.3449 33.0048 37.506 33.6354C36.6903 34.2429 36.2969 35.0008 36.2969 36.5801C36.3258 38.2116 36.8465 38.5819 37.6101 39.1315C38.3969 39.71 39.5829 39.9703 41.6598 39.9472C45.8657 39.8951 47.5261 39.2124 47.474 36.4471C47.4451 34.8677 47.1038 34.1561 46.4211 33.6354C45.6864 33.0569 44.3153 32.6346 41.9491 32.6866ZM68.8854 35.1338H72.4896C72.2813 38.2637 71.9631 39.1025 70.8061 40.5257C69.597 41.972 67.9366 42.9208 64.153 42.9208C60.3116 42.9208 58.1537 42.5795 56.4181 40.7398C55.0238 39.2645 54.185 36.3487 54.185 31.8478C54.185 27.6129 55.0528 25.2699 56.3949 23.6674C57.6851 22.1401 60.0223 20.983 63.4935 20.983C66.7795 20.983 68.9374 21.6425 70.3606 22.7475C71.7838 23.8525 72.4896 25.7732 72.4896 28.5849H68.8854C68.8854 27.3237 68.3878 25.6922 67.439 25.1137C66.4903 24.5641 65.2811 24.298 63.2852 24.298C61.1794 24.298 59.733 25.322 59.1025 26.2187C58.4198 27.1906 57.9454 28.8221 57.9454 32.137C57.9454 35.371 58.6801 37.4769 59.3628 38.3678C60.0744 39.2645 61.5728 39.5769 64.1472 39.5769C66.3283 39.5769 67.0399 39.0794 67.6184 38.5009C68.2548 37.8934 68.7523 37.3149 68.8854 35.1338ZM91.1876 22.7186C89.6082 21.5326 88.1099 20.983 84.7197 20.983C81.4047 20.983 78.8534 21.9839 77.4881 23.4533C76.1459 24.9286 75.093 27.6072 75.093 31.842C75.093 36.6843 76.0418 39.2587 77.6443 40.734C79.5881 42.4985 81.4857 42.944 84.98 42.944C88.8967 42.944 90.9215 41.758 92.1075 40.2885C92.9753 39.2124 93.4728 38.1827 93.6869 36.1347L90.0074 35.7123C89.9033 37.0025 89.3768 37.8182 88.9024 38.2637C88.2718 38.8133 87.6933 39.5017 85.4544 39.5017C82.799 39.5017 81.4568 39.2414 80.6121 38.3157C79.8485 37.4769 79.0328 35.9206 79.0096 32.7387H94.1092V29.9502C94.0803 26.9303 93.1315 24.1649 91.1876 22.7186ZM79.0906 29.5568C79.2757 27.7402 79.7212 26.6352 80.2766 25.9815C81.0634 25.0616 82.5907 24.269 84.4825 24.269C86.5594 24.269 87.7454 24.7145 88.7983 25.4782C90.0595 26.398 90.3488 27.37 90.3488 29.5568H79.0906Z" fill="#F1F1F1"/>
<path opacity="0.5" d="M135.162 26.2942C135.214 29.372 135.214 31.4258 134.925 32.1836L130.349 28.7125L127.56 32.5539L132.871 36.3953C132.322 37.078 130.87 37.211 128.926 37.211C125.113 37.211 123.534 36.7656 122.562 35.8689C121.59 34.949 120.982 33.0572 120.982 28.9497C120.982 23.5289 121.272 21.6891 122.14 20.1907C122.955 18.7965 124.639 18.0618 128.191 18.0618C131.165 18.0618 132.767 18.6114 133.664 19.4271C134.85 20.5089 135.162 23.2164 135.162 26.2942ZM148.104 13.8559V41.6541C148.104 46.6237 145.501 50.6503 138.217 50.6503H106.629C100.63 50.6503 97.4248 47.3642 97.4248 42.0765V14.3303C97.4248 8.90944 100.555 4.88867 107.104 4.88867H138.587C144.766 4.88867 148.104 8.14579 148.104 13.8559ZM110.783 13.8848H105.021V42.2905H110.783V13.8848ZM143.372 38.2929L140.213 36.0019C140.635 34.4515 141 31.715 141 27.324C141 21.1453 140.45 17.8535 138.24 15.7245C136.475 14.0121 133.635 12.936 128.116 12.936C122.487 12.936 119.987 13.8559 118.096 16.0948C115.863 18.7271 115.226 21.828 115.226 28.6951C115.226 34.5845 116.198 37.6912 117.858 39.6119C119.698 41.7409 122.672 42.5335 128.197 42.5335C133.218 42.5335 135.984 42.1112 137.823 40.3235L140.479 42.2442L143.372 38.2929Z" fill="#F1F1F1"/>
</g>
<defs>
<clipPath id="clip0_63_6851">
<rect width="148.103" height="55.5387" fill="white"/>
</clipPath>
</defs>
</svg>
