<svg width="151" height="39" viewBox="0 0 151 39" fill="none" xmlns="http://www.w3.org/2000/svg">
<g opacity="0.8">
<path opacity="0.5" d="M12.0521 5.31377C14.9127 -0.0140935 22.1987 -0.0140965 25.0592 5.31377C25.0592 5.31377 25.3268 5.768 25.4657 6.07624C26.6536 8.71092 25.4542 10.5101 24.185 13.4048C23.5364 14.8839 22.6412 16.2573 21.6576 17.6493C21.3981 18.0165 21.1304 18.3878 20.8597 18.7632C20.1227 19.7852 19.3645 20.8364 18.697 21.9121C16.8315 24.918 15.5311 28.3272 16.6524 32.8697C17.2003 35.0896 18.131 36.6264 19.1589 37.6823H7.48258C1.76038 37.6823 -1.83795 31.1841 0.978998 25.9374L12.0521 5.31377Z" fill="#F1F1F1"/>
<path d="M33.0343 36.8313C32.0308 37.3721 30.8808 37.6831 29.6289 37.6831H23.5625C22.9497 37.6831 22.3289 37.5965 21.7955 37.2839C20.6807 36.6305 19.2929 35.2828 18.5847 32.4138C17.6296 28.5442 18.6914 25.6691 20.3963 22.9224C21.0257 21.9084 21.724 20.9398 22.4472 19.9369C22.7262 19.55 23.009 19.1579 23.2929 18.7562C24.2946 17.3384 25.2827 15.8356 26.0119 14.1725C26.7328 12.5283 27.1376 10.9717 27.3381 9.55908L36.1323 25.9384C38.2449 29.8733 36.7492 34.5122 33.4553 36.5858C33.318 36.6722 33.1778 36.7541 33.0343 36.8313Z" fill="#F1F1F1"/>
<path d="M61.7907 30.0301H65.9658L58.4508 9.5918H53.9975L46.4268 30.0301H50.4904L52.1326 25.3602H60.1486L61.7907 30.0301ZM56.1407 14.0023L58.8683 21.7279H53.4129L56.1407 14.0023ZM71.9132 30.0301V15.8472H68.2114V30.0301H71.9132ZM67.766 11.2061C67.766 12.4745 68.7958 13.5411 70.0483 13.5411C71.3288 13.5411 72.3306 12.4745 72.3306 11.2061C72.3306 9.88007 71.3288 8.81348 70.0483 8.81348C68.7958 8.81348 67.766 9.88007 67.766 11.2061ZM84.2265 15.7896C83.948 15.7607 83.6697 15.7319 83.3636 15.7319C82.1946 15.7319 80.302 16.0779 79.467 17.9516V15.8472H75.8765V30.0301H79.5782V23.544C79.5782 20.4883 81.2204 19.5371 83.113 19.5371C83.447 19.5371 83.8089 19.566 84.2265 19.6524V15.7896ZM90.5321 30.0301V21.7279C90.5321 20.1713 91.4784 18.9317 93.0929 18.9317C94.7628 18.9317 95.5144 20.0849 95.5144 21.6127V30.0301H99.1883V21.7279C99.1883 20.2001 100.135 18.9317 101.721 18.9317C103.419 18.9317 104.143 20.0849 104.143 21.6127V30.0301H107.733V20.8343C107.733 17.0291 105.312 15.4437 102.779 15.4437C100.97 15.4437 99.5223 16.0779 98.4369 17.8075C97.741 16.2796 96.2379 15.4437 94.3732 15.4437C92.8702 15.4437 91.1167 16.1932 90.3651 17.5768V15.8472H86.8304V30.0301H90.5321ZM114.183 21.3243C114.267 20.0272 115.325 18.5281 117.245 18.5281C119.36 18.5281 120.251 19.9119 120.307 21.3243H114.183ZM120.669 25.0143C120.223 26.2826 119.277 27.1762 117.551 27.1762C115.714 27.1762 114.183 25.8214 114.1 23.9476H123.897C123.897 23.8899 123.953 23.3135 123.953 22.7657C123.953 18.211 121.42 15.4148 117.189 15.4148C113.682 15.4148 110.454 18.3552 110.454 22.881C110.454 27.6663 113.766 30.4624 117.523 30.4624C120.891 30.4624 123.062 28.4159 123.758 25.9655L120.669 25.0143ZM129.568 21.3243C129.651 20.0272 130.709 18.5281 132.63 18.5281C134.745 18.5281 135.635 19.9119 135.691 21.3243H129.568ZM136.053 25.0143C135.608 26.2826 134.661 27.1762 132.936 27.1762C131.099 27.1762 129.568 25.8214 129.484 23.9476H139.282C139.282 23.8899 139.337 23.3135 139.337 22.7657C139.337 18.211 136.804 15.4148 132.574 15.4148C129.067 15.4148 125.838 18.3552 125.838 22.881C125.838 27.6663 129.15 30.4624 132.908 30.4624C136.276 30.4624 138.447 28.4159 139.142 25.9655L136.053 25.0143ZM146.817 11.6097H143.477V13.5987C143.477 14.8671 142.809 15.8472 141.362 15.8472H140.666V19.2488H143.143V25.8502C143.143 28.5886 144.813 30.2319 147.485 30.2319C148.571 30.2319 149.239 30.0301 149.573 29.886V26.7151C149.378 26.7726 148.877 26.8303 148.431 26.8303C147.374 26.8303 146.817 26.4267 146.817 25.1872V19.2488H149.573V15.8472H146.817V11.6097Z" fill="#F1F1F1"/>
</g>
</svg>
