<svg width="149" height="56" viewBox="0 0 149 56" fill="none" xmlns="http://www.w3.org/2000/svg">
<g opacity="0.8" clip-path="url(#clip0_31_6844)">
<path d="M0.914075 20.4106L0 7.36475H13.0458V19.8031L0.914075 20.4106Z" fill="#0C0D0E"/>
<path opacity="0.5" d="M16.3835 7.97217L29.7532 8.88624V19.8089H15.7471L16.3835 7.97217Z" fill="#0C0D0E"/>
<path opacity="0.5" d="M0.914062 23.6099V33.3176L13.9541 34.8333V23.6099H0.914062Z" fill="#0C0D0E"/>
<path d="M16.9453 23.9277L16.9858 34.1503L28.4349 33.7454L28.9324 23.5459L16.9453 23.9277Z" fill="#0C0D0E"/>
<path d="M13.0467 37.8588V48.1682H1.20996L2.12404 37.2456L13.0467 37.8588Z" fill="#0C0D0E"/>
<path d="M49.1859 42.7071C49.2553 43.3666 48.914 43.9972 48.3239 44.298C48.0115 44.4253 47.6817 44.4947 47.3404 44.4947C47.028 44.4831 46.7272 44.4137 46.4379 44.298C45.8536 43.9914 45.5123 43.3666 45.5759 42.7071V26.9826H43.58C42.8221 27.0521 42.1568 26.4967 42.0874 25.7388C42.0758 25.6462 42.0816 25.5479 42.0931 25.4553C42.0006 24.7032 42.5328 24.0206 43.2849 23.9338C43.3833 23.9222 43.4816 23.9222 43.58 23.928H45.599C45.599 20.9486 45.599 19.8899 46.2643 18.7155C47.2016 16.951 49.1628 16.2856 51.5637 16.2856C52.1885 16.2856 53.6001 16.2856 53.6001 17.813C53.6001 19.1841 52.4662 19.3056 51.8356 19.3403C50.7769 19.4213 50.3083 19.456 49.8396 19.8725C49.1743 20.4048 49.1743 20.9312 49.1743 23.9512H52.067C52.5992 23.9512 53.5596 24.0669 53.5596 25.4785C53.629 26.2421 53.0621 26.919 52.2984 26.9826C52.2116 26.9884 52.1248 26.9884 52.0438 26.9826H49.1801L49.1859 42.7071ZM70.0129 42.8864C69.9782 43.3145 69.8972 44.4774 68.422 44.4774C67.7972 44.5121 67.2129 44.1765 66.9294 43.6153C66.8137 43.3029 66.7732 43.141 66.7732 41.7351C65.2459 43.6443 62.9086 44.7203 60.4614 44.6336C56.3828 44.6336 53.8778 42.1285 53.8778 38.4028C53.8778 33.7399 57.7192 32.9936 59.8366 32.5712L63.1689 31.8654C64.4996 31.5877 65.2054 31.4373 65.5583 31.3332C66.3798 31.1018 66.6575 30.8009 66.6575 29.8059C66.6575 26.4735 63.2847 26.4735 62.5788 26.4735C59.1713 26.4735 58.5812 28.1571 58.2283 29.2215C58.1126 29.7538 57.9159 30.477 56.5795 30.477C55.1274 30.477 54.7398 29.6554 54.7398 28.9496C54.8266 28.1339 55.11 27.3587 55.5613 26.676C57.1522 24.2867 59.8713 23.5809 62.5731 23.5809C64.8467 23.5809 67.1955 24.009 68.6476 25.7041C69.9782 27.295 69.9782 29.2736 69.9782 31.1885L70.0129 42.8864ZM61.9772 34.9374C61.3003 35.0647 60.6292 35.2383 59.9813 35.4697C58.5928 35.7821 57.6093 37.0259 57.6266 38.4491C57.6266 40.607 59.3102 41.7004 61.2714 41.7004C62.9491 41.7062 64.5401 40.9368 65.5814 39.6235C66.5996 38.2119 66.6401 36.3664 66.6806 33.7456C65.8302 34.0986 64.9392 34.3473 64.031 34.4919L61.9772 34.9374ZM86.8481 37.9978C87.1258 37.2573 87.4729 36.4705 88.5316 36.4705C89.006 36.4705 90.4119 36.7482 90.4119 38.1193C90.3424 38.9582 90.0647 39.7681 89.5961 40.4681C88.9713 41.5674 87.1663 44.622 81.6009 44.622C74.4618 44.622 72.1535 38.9408 72.1535 34.0176C72.1304 32.4729 72.3676 30.934 72.8593 29.4703C74.9825 23.5115 80.3455 23.5115 81.7976 23.5115C86.3448 23.5115 88.1614 25.4322 89.2201 27.1562C90.0416 28.4521 90.0416 28.9207 90.0416 29.1984C90.0069 30.1819 89.1854 30.9571 88.1961 30.9282C88.173 30.9282 88.144 30.9282 88.1209 30.9224C87.0217 30.9224 86.6688 30.1819 86.2407 29.2736C85.4423 27.4802 83.6026 26.3752 81.6414 26.514C77.4875 26.514 75.8792 30.0836 75.8792 33.8845C75.8792 37.2573 76.8974 41.5674 81.6414 41.5674C85.234 41.5674 86.258 39.2532 86.8481 37.9978ZM94.8087 26.9826H92.7318C91.9681 27.0405 91.297 26.4678 91.2392 25.7041C91.2334 25.6231 91.2334 25.5363 91.2449 25.4553C91.1524 24.7032 91.6846 24.0206 92.4367 23.9338C92.5351 23.9222 92.6334 23.9222 92.7318 23.928H94.855V19.3403C94.855 18.808 95.0112 17.6568 96.6195 17.6568C98.2278 17.6568 98.4245 18.7907 98.4245 19.3403V23.928H100.854C101.601 23.8586 102.26 24.4024 102.335 25.1487C102.347 25.2471 102.341 25.3512 102.33 25.4553C102.405 26.219 101.844 26.9017 101.074 26.9769C100.999 26.9826 100.924 26.9826 100.854 26.9826H98.4245V36.9449C98.4245 39.2995 98.4592 39.5946 98.5807 40.04C98.8584 41.174 99.5989 41.3707 100.658 41.4517C101.601 41.4921 102.578 41.5674 102.578 42.9443C102.578 44.3154 101.323 44.4831 100.264 44.4831C94.8145 44.4831 94.8145 41.5384 94.8145 38.4896V26.9826H94.8087ZM122.017 42.7418C122.063 43.3781 121.722 43.9798 121.155 44.2691C120.576 44.5063 119.928 44.5063 119.35 44.2691C118.528 43.841 118.528 43.2104 118.528 41.6194C116.845 43.8525 115.156 44.5988 112.292 44.5988C111.355 44.5988 108.838 44.5179 107.079 42.6029C105.396 40.7227 105.396 38.2119 105.396 36.3664V25.4958C105.436 24.4892 106.287 23.7082 107.293 23.7545C108.225 23.795 108.977 24.5297 109.035 25.4611V35.2151C109.035 37.8648 109.15 38.9235 109.66 39.8781C110.562 41.5269 112.408 41.5269 112.87 41.5269C115.416 41.6194 117.655 39.8665 118.17 37.373C118.366 36.2854 118.436 35.1804 118.366 34.0812V25.4958C118.418 24.4892 119.28 23.7197 120.287 23.7718C121.219 23.8239 121.959 24.5644 122.011 25.4958L122.017 42.7418ZM140.565 42.8864C140.53 43.3145 140.449 44.4774 138.974 44.4774C138.349 44.5121 137.764 44.1765 137.481 43.6153C137.365 43.3029 137.325 43.141 137.325 41.7351C135.797 43.6443 133.454 44.7203 131.013 44.6336C126.934 44.6336 124.429 42.1285 124.429 38.4028C124.429 33.7399 128.271 32.9936 130.388 32.5712L133.721 31.8654C135.051 31.5877 135.757 31.4373 136.11 31.3332C136.931 31.1018 137.209 30.8009 137.209 29.8059C137.209 26.4735 133.836 26.4735 133.13 26.4735C129.723 26.4735 129.133 28.1571 128.78 29.2215C128.664 29.7538 128.467 30.477 127.131 30.477C125.679 30.477 125.291 29.6554 125.291 28.9496C125.378 28.1339 125.662 27.3587 126.113 26.676C127.704 24.2867 130.423 23.5809 133.125 23.5809C135.398 23.5809 137.753 24.009 139.199 25.7041C140.53 27.295 140.53 29.2736 140.53 31.1885L140.565 42.8864ZM132.546 34.9374C131.869 35.0647 131.198 35.2383 130.55 35.4697C129.162 35.7821 128.178 37.0259 128.196 38.4491C128.196 40.607 129.879 41.7004 131.84 41.7004C133.518 41.7062 135.109 40.9368 136.15 39.6235C137.169 38.2119 137.209 36.3664 137.25 33.7456C136.399 34.0986 135.508 34.3473 134.6 34.4919L132.546 34.9374ZM148.097 42.7071C148.097 43.7021 147.287 44.5063 146.292 44.5063C145.297 44.5063 144.493 43.7021 144.493 42.7071V18.0502C144.446 17.1419 145.141 16.3724 146.049 16.3204C146.13 16.3146 146.217 16.3204 146.298 16.3261C147.189 16.222 147.993 16.8642 148.091 17.7551C148.103 17.8535 148.103 17.9518 148.097 18.0502V42.7071V42.7071Z" fill="#0C0D0E"/>
</g>
<defs>
<clipPath id="clip0_31_6844">
<rect width="148.103" height="55.5387" fill="white"/>
</clipPath>
</defs>
</svg>
