<svg width="149" height="56" viewBox="0 0 149 56" fill="none" xmlns="http://www.w3.org/2000/svg">
<g opacity="0.8">
<path d="M28.8857 20.6707C32.5131 20.6707 34.7751 18.6401 34.7751 15.7937V15.7185C34.7751 12.525 32.4726 10.8415 28.8857 10.8415H23.3087V20.6707H28.8857ZM18.5127 6.47363H29.2733C35.6313 6.47363 39.6463 10.101 39.6463 15.597V15.6722C39.6463 21.7989 34.7288 24.9923 28.7295 24.9923H23.3087V33.7686H18.5127V6.47363ZM41.029 6.6819H45.744V33.7744H41.029V6.6819ZM62.1453 25.1543C60.6353 24.5989 59.0386 24.3213 57.4245 24.3328C54.4624 24.3328 52.7037 25.542 52.7037 27.5263V27.6015C52.7037 29.5512 54.4567 30.6446 56.684 30.6446C59.8023 30.6446 62.1395 28.8916 62.1395 26.3172V25.1543H62.1453ZM62.0296 33.7744V31.2405C60.3808 33.2017 57.922 34.2951 55.3649 34.2025C51.4657 34.2025 48.0292 31.981 48.0292 27.8445V27.7693C48.0292 23.2047 51.5756 21.0236 56.3774 21.0236C58.3097 20.9889 60.2362 21.2782 62.0701 21.8799V21.4922C62.0701 18.6459 60.2767 17.0839 57.0022 17.0839C54.9716 17.0896 52.9641 17.5293 51.1128 18.3682L49.8227 14.5846C52.2698 13.416 54.9542 12.8317 57.6617 12.8664C63.742 12.8664 66.7099 16.0599 66.7099 21.5617V33.7628L62.0296 33.7744ZM67.9364 23.5981V23.5229C67.8554 17.6566 72.5415 12.8375 78.4077 12.7565C78.4772 12.7565 78.5524 12.7565 78.6218 12.7565C81.7632 12.6176 84.7947 13.9251 86.8485 16.3028L83.9269 19.4616C82.6194 17.8475 80.6582 16.8987 78.5813 16.8872C75.1506 16.8872 72.6514 19.8492 72.6514 23.4361V23.5171C72.6514 27.1792 75.1853 30.147 78.8127 30.147C80.878 30.0892 82.8219 29.152 84.1525 27.5726L86.9989 30.3842C83.169 34.9546 76.3597 35.5505 71.7894 31.7206C69.3885 29.7016 67.9827 26.7337 67.9364 23.5981ZM102.388 22.0361C102.075 18.993 100.282 16.6152 97.1636 16.6152C94.2826 16.6152 92.2519 18.8368 91.8238 22.0361H102.388ZM87.1435 23.5576V23.4824C87.1435 17.593 91.3147 12.7565 97.2041 12.7565C103.759 12.7565 107.068 17.9054 107.068 23.8295C107.068 24.2576 107.028 24.6799 106.993 25.1543H91.8585C92.1362 28.1916 94.7338 30.4884 97.7884 30.3785C99.9116 30.39 101.942 29.4933 103.365 27.9197L106.131 30.3785C104.083 32.9124 100.965 34.3414 97.7074 34.2372C92.0379 34.405 87.3055 29.9446 87.1377 24.275C87.1319 24.032 87.1319 23.7948 87.1435 23.5576ZM124.95 23.5171V23.4361C124.95 19.4616 122.144 16.8467 118.991 16.8467C115.752 16.8467 113.062 19.3401 113.062 23.4361V23.5171C113.062 27.4916 115.792 30.1065 118.991 30.1065C122.144 30.1065 124.95 27.4569 124.95 23.5171ZM108.295 23.5171V23.4361C108.295 16.6152 112.934 12.7507 117.846 12.7507C120.64 12.7391 123.261 14.0929 124.864 16.378V6.6819H129.59V33.7686H124.869V30.338C123.354 32.7504 120.698 34.2141 117.852 34.1967C113.015 34.2025 108.295 30.338 108.295 23.5171Z" fill="#F1F1F1"/>
<path opacity="0.5" d="M75.7407 39.7564H73.9357C73.8142 39.7564 73.7159 39.8547 73.7159 39.9762V44.5987C73.7159 45.345 73.4093 45.7557 72.7208 45.7557C72.0324 45.7557 71.7257 45.3508 71.7257 44.5987V39.9762C71.7315 39.8605 71.639 39.7564 71.5233 39.7564C71.5175 39.7564 71.5117 39.7564 71.5059 39.7564H69.6835C69.562 39.7564 69.4637 39.8547 69.4637 39.9762V45.0441C69.4637 46.6062 70.5976 47.8789 72.7034 47.8789C74.8324 47.8789 75.9837 46.6235 75.9837 45.0441V39.9762C75.9779 39.8489 75.8738 39.7506 75.7465 39.7506C75.7465 39.7564 75.7465 39.7564 75.7407 39.7564ZM88.8328 42.9961L87.5138 42.5507C87.1262 42.4118 87.0857 42.2036 87.0857 42.0647C87.0857 41.8622 87.2882 41.6597 87.6758 41.6597C88.2659 41.6655 88.8328 41.868 89.2956 42.2267C89.3766 42.2903 89.4923 42.2845 89.556 42.2093L90.5684 40.9308C90.6378 40.844 90.6263 40.7225 90.5511 40.6473C89.7353 39.982 88.7055 39.6349 87.6526 39.6522C85.7666 39.6522 84.6327 40.8209 84.6327 42.0994C84.6443 43.1986 85.3906 44.159 86.4551 44.4309L87.6121 44.8359C88.1791 45.0383 88.2832 45.1772 88.2832 45.426C88.2832 45.6458 88.0634 45.8946 87.5948 45.8946C86.889 45.8367 86.2237 45.5532 85.6914 45.0846C85.6104 45.021 85.4947 45.0268 85.4311 45.102L84.3955 46.4789C84.3319 46.5657 84.3377 46.6872 84.4129 46.7624C85.3327 47.526 86.5014 47.9252 87.6931 47.8963C89.4576 47.8963 90.7535 46.8607 90.7535 45.3218C90.7304 44.1995 89.9378 43.2333 88.8328 42.9961ZM80.5656 43.1581H79.397V41.7812H80.5656C81.2367 41.7812 81.4797 42.0879 81.4797 42.4697C81.4797 42.8573 81.2136 43.1581 80.5656 43.1581ZM82.3475 44.7549C83.2732 44.3615 83.8575 43.43 83.8054 42.4234C83.7418 40.8903 82.4517 39.6985 80.9186 39.7564C80.8607 39.7564 80.8029 39.7622 80.745 39.7679H77.2796C77.1639 39.7795 77.0771 39.8721 77.0771 39.9878V47.526C77.0771 47.6359 77.1697 47.7285 77.2796 47.7285H79.1425C79.2524 47.7285 79.345 47.6359 79.345 47.526V45.0962H80.0739L81.3929 47.5434C81.4566 47.6533 81.5723 47.7169 81.6996 47.7227H83.8459C83.9674 47.7227 84.0079 47.6417 83.95 47.5434L82.3475 44.7549ZM59.756 39.7564H54.3467C54.2079 39.7506 54.0922 39.8547 54.0864 39.9936V39.9994V47.4971C54.0864 47.6186 54.1848 47.7169 54.3062 47.7169H56.1286C56.2443 47.7054 56.3311 47.6128 56.3311 47.4971V45.0673H58.6394C58.7609 45.0673 58.8651 44.9863 58.8824 44.8648L59.2295 43.2044C59.2584 43.1234 59.2122 43.0366 59.137 43.0077C59.1138 43.0019 59.0907 42.9961 59.0675 43.0019H56.3542V41.787H59.4147C59.5361 41.787 59.6403 41.706 59.6576 41.5845L59.9758 40.0225C59.999 39.901 59.918 39.7853 59.7965 39.7622C59.7791 39.7622 59.7676 39.7564 59.756 39.7564ZM129.017 41.8044C129.139 41.8044 129.243 41.7234 129.26 41.6019L129.579 40.0399C129.596 39.901 129.579 39.7795 129.376 39.7795H123.926C123.799 39.7737 123.689 39.8721 123.683 40.0051C123.683 40.0109 123.683 40.0167 123.683 40.0225V47.5202C123.683 47.6417 123.782 47.7401 123.903 47.7401H128.867C128.988 47.7401 129.093 47.6591 129.11 47.5376L129.428 45.9756C129.446 45.8367 129.428 45.7152 129.226 45.7152H125.928V44.8012H128.236C128.358 44.8012 128.462 44.7202 128.479 44.5987L128.826 42.9383C128.855 42.8573 128.809 42.7705 128.734 42.7416C128.711 42.7358 128.688 42.73 128.664 42.7358H125.928V41.8217H129.012L129.017 41.8044ZM111.268 44.2747H110.539L111.268 41.8449L111.997 44.2747H111.268ZM112.767 39.9357C112.732 39.8316 112.633 39.7564 112.524 39.7564H110.03C109.92 39.7564 109.822 39.8316 109.787 39.9357L107.49 47.5318C107.456 47.6012 107.49 47.688 107.56 47.7227C107.583 47.7343 107.606 47.7401 107.635 47.7343H109.683C109.799 47.7227 109.897 47.6417 109.926 47.5318L110.244 46.3748H112.292L112.639 47.5318C112.668 47.6417 112.767 47.7227 112.882 47.7343H114.907C114.994 47.7285 115.063 47.6533 115.052 47.5665C115.052 47.5549 115.052 47.5434 115.046 47.5318L112.767 39.9357ZM106.866 39.7564H105.061C104.939 39.7564 104.841 39.8547 104.841 39.9762V44.5987C104.841 45.345 104.534 45.7557 103.846 45.7557C103.157 45.7557 102.851 45.3508 102.851 44.5987V39.9762C102.856 39.8605 102.764 39.7564 102.648 39.7564C102.642 39.7564 102.637 39.7564 102.631 39.7564H100.826C100.704 39.7564 100.606 39.8547 100.606 39.9762V45.0441C100.606 46.6062 101.74 47.8789 103.846 47.8789C105.975 47.8789 107.126 46.6235 107.126 45.0441V39.9762C107.103 39.8547 106.993 39.768 106.866 39.7564ZM119.327 43.1581H118.158V41.7812H119.327C119.975 41.7812 120.241 42.0879 120.241 42.4697C120.241 42.8573 119.981 43.1581 119.327 43.1581ZM121.115 44.7549C122.046 44.3615 122.625 43.43 122.573 42.4234C122.509 40.8903 121.219 39.6985 119.686 39.7564C119.628 39.7564 119.57 39.7622 119.512 39.7679H116.047C115.931 39.7795 115.844 39.8721 115.844 39.9878V47.526C115.844 47.6359 115.937 47.7285 116.047 47.7285H117.915C118.025 47.7285 118.118 47.6359 118.118 47.526V45.0962H118.847L120.166 47.5434C120.23 47.6533 120.345 47.7169 120.473 47.7227H122.619C122.74 47.7227 122.781 47.6417 122.723 47.5434L121.115 44.7549ZM95.4801 45.7731C94.3636 45.9409 93.3164 45.1714 93.1486 44.0548C92.9809 42.9383 93.7503 41.8912 94.8669 41.7234C95.9834 41.5556 97.0306 42.325 97.1983 43.4416C97.2157 43.5457 97.2215 43.6499 97.2215 43.754C97.3141 44.778 96.562 45.6805 95.538 45.7731C95.5206 45.7731 95.4975 45.7731 95.4801 45.7731ZM99.6108 46.745C99.2058 46.907 98.7604 46.9417 98.3323 46.8491C98.4133 46.7682 98.4942 46.7103 98.5752 46.6293C99.6397 45.4665 99.9637 43.8119 99.4257 42.3366C98.8471 40.8324 97.4471 39.7969 95.8388 39.6812C93.571 39.4382 91.5346 41.0812 91.2916 43.349C91.1701 44.4772 91.5172 45.6053 92.2519 46.4673C93.2239 47.5492 94.6817 48.0698 96.1223 47.8442L96.1801 47.9021C97.0595 48.6484 98.1703 49.0533 99.3215 49.0591L99.767 46.8723C99.7786 46.7913 99.7149 46.7103 99.6108 46.745ZM64.3553 45.7731C63.2387 45.9409 62.1916 45.1714 62.0238 44.0548C61.856 42.9383 62.6255 41.8912 63.742 41.7234C64.8586 41.5556 65.9057 42.325 66.0735 43.4416C66.0909 43.5457 66.0967 43.6499 66.0967 43.754C66.2066 44.7549 65.4892 45.6574 64.4883 45.7673C64.4421 45.7673 64.4016 45.7731 64.3553 45.7731ZM64.7198 39.6522C62.4519 39.4093 60.4155 41.0523 60.1725 43.3201C60.051 44.4482 60.3982 45.5764 61.1329 46.4384C62.7701 48.226 65.5471 48.3533 67.3347 46.7161C67.3752 46.6756 67.4157 46.6409 67.4562 46.6004C69.0182 44.94 68.9372 42.325 67.2769 40.763C66.5768 40.1093 65.6743 39.7159 64.7198 39.6522ZM20.8384 41.0407C21.064 41.168 21.2549 41.3531 21.3764 41.5845C21.6367 42.0878 21.6367 42.6779 21.3764 43.1813C21.2549 43.4069 21.0698 43.5978 20.8442 43.7251C20.607 43.8581 20.3408 43.9218 20.0747 43.916C19.8433 43.9218 19.6177 43.8697 19.4152 43.7656C19.2185 43.6614 19.0507 43.511 18.9292 43.3201V44.9978H18.5127V40.8672H18.9003V41.463C19.016 41.2663 19.1838 41.1101 19.3863 41.006C19.5945 40.8961 19.8317 40.844 20.0632 40.844C20.3351 40.844 20.6012 40.9077 20.8384 41.0407ZM20.6128 43.4069C20.7863 43.3085 20.9252 43.1639 21.0177 42.9904C21.1161 42.7994 21.1681 42.5912 21.1624 42.3771C21.1681 42.1631 21.1161 41.9548 21.0177 41.7639C20.9252 41.5903 20.7863 41.4457 20.6128 41.3473C20.4392 41.249 20.2425 41.1969 20.04 41.1969C19.8375 41.1911 19.6408 41.2432 19.4615 41.3473C19.2937 41.4457 19.1549 41.5903 19.0623 41.7639C18.9639 41.949 18.9119 42.1631 18.9177 42.3771C18.9119 42.5912 18.9639 42.7994 19.0623 42.9904C19.1549 43.1639 19.2937 43.3085 19.4615 43.4069C19.635 43.5052 19.8375 43.5573 20.04 43.5515C20.2367 43.5573 20.4392 43.5052 20.6128 43.4069ZM22.736 43.7193C22.5045 43.592 22.3136 43.4011 22.1863 43.1697C21.9202 42.678 21.9202 42.0821 22.1863 41.5845C22.3136 41.3531 22.5045 41.168 22.736 41.0407C23.2277 40.7804 23.8178 40.7804 24.3096 41.0407C24.541 41.168 24.7261 41.3589 24.8592 41.5845C25.1253 42.0763 25.1253 42.6722 24.8592 43.1697C24.7319 43.4011 24.541 43.592 24.3096 43.7193C23.812 43.9796 23.2219 43.9796 22.736 43.7193ZM24.0955 43.4069C24.2633 43.3085 24.4021 43.1639 24.4947 42.9904C24.6856 42.6027 24.6856 42.1515 24.4947 41.7639C24.4021 41.5903 24.2691 41.4457 24.0955 41.3473C23.7368 41.1506 23.3029 41.1506 22.9442 41.3473C22.7764 41.4457 22.6318 41.5903 22.545 41.7639C22.3483 42.1515 22.3483 42.6027 22.545 42.9904C22.6376 43.1639 22.7764 43.3085 22.9442 43.4069C23.3029 43.6036 23.7368 43.6036 24.0955 43.4069ZM30.1064 40.8672L28.9667 43.8813H28.5849L27.6303 41.411L26.6757 43.8813H26.2939L25.1542 40.8672H25.5418L26.4906 43.43L27.4625 40.8672H27.8154L28.7758 43.43L29.7361 40.8672H30.1064V40.8672ZM33.1495 42.5044H30.6271C30.6386 42.7937 30.7717 43.0713 30.9858 43.2623C31.2172 43.459 31.5122 43.5631 31.8131 43.5515C31.9924 43.5515 32.166 43.5168 32.328 43.4532C32.4842 43.3838 32.623 43.2854 32.7329 43.1581L32.9643 43.4243C32.8313 43.5862 32.6577 43.7135 32.461 43.7887C32.2527 43.8755 32.0271 43.916 31.8015 43.916C31.5122 43.9218 31.2287 43.8524 30.98 43.7193C30.7486 43.592 30.5519 43.4011 30.4188 43.1697C30.28 42.9267 30.2105 42.6548 30.2163 42.3771C30.2105 42.0994 30.28 41.8275 30.4072 41.5845C30.5287 41.3589 30.7139 41.168 30.9395 41.0407C31.1709 40.9077 31.4312 40.844 31.6916 40.844C31.9577 40.8382 32.2122 40.9077 32.4437 41.0407C32.6635 41.168 32.8428 41.3589 32.9643 41.5845C33.0916 41.8275 33.161 42.0994 33.1553 42.3771L33.1495 42.5044ZM30.9626 41.4746C30.7659 41.6655 30.6444 41.9259 30.6271 42.1978H32.7676C32.7503 41.9201 32.6346 41.6655 32.4321 41.4746C32.0098 41.1044 31.3792 41.1044 30.9626 41.4746ZM34.6883 41.0002C34.9082 40.8903 35.1454 40.8382 35.3884 40.844V41.2374H35.29C35.0123 41.2201 34.7404 41.33 34.5437 41.5325C34.3528 41.7639 34.2545 42.0531 34.2718 42.354V43.8929H33.8668V40.8787H34.2545V41.4688C34.347 41.2663 34.4974 41.1044 34.6883 41.0002ZM38.605 42.5044H36.0826C36.0942 42.7937 36.2272 43.0713 36.4413 43.2623C36.6727 43.459 36.9678 43.5631 37.2686 43.5515C37.4479 43.5515 37.6215 43.5168 37.7835 43.4532C37.9397 43.3838 38.0785 43.2854 38.1884 43.1581L38.4199 43.4243C38.2868 43.5862 38.1132 43.7135 37.9165 43.7887C37.7083 43.8755 37.4826 43.916 37.257 43.916C36.9678 43.9218 36.6843 43.8524 36.4355 43.7193C36.2041 43.592 36.0074 43.4011 35.8743 43.1697C35.7355 42.9267 35.6661 42.6548 35.6718 42.3771C35.6661 42.0994 35.7355 41.8275 35.8628 41.5845C35.9843 41.3589 36.1694 41.168 36.395 41.0407C36.8636 40.7804 37.4306 40.7804 37.8992 41.0407C38.119 41.168 38.2984 41.3589 38.4199 41.5845C38.5471 41.8275 38.6166 42.0994 38.6108 42.3771L38.605 42.5044ZM36.4181 41.4746C36.2215 41.6655 36.1 41.9259 36.0826 42.1978H38.2232C38.2058 41.9201 38.0843 41.6655 37.8876 41.4746C37.4653 41.1044 36.8405 41.1044 36.4181 41.4746ZM42.0819 39.6349V43.8929H41.6943V43.297C41.5786 43.4937 41.4109 43.6557 41.2084 43.7598C41.0001 43.8697 40.7629 43.9218 40.5315 43.9218C40.2654 43.9276 39.9992 43.8581 39.762 43.7251C39.5364 43.5978 39.3513 43.4069 39.224 43.1813C38.9637 42.6837 38.9637 42.0821 39.224 41.5845C39.3513 41.3589 39.5364 41.168 39.762 41.0407C39.9992 40.9134 40.2596 40.844 40.5315 40.8498C40.7629 40.844 40.9885 40.8961 41.191 41.0002C41.3877 41.1044 41.5555 41.2548 41.677 41.4457V39.6349H42.0819ZM41.1332 43.4127C41.3009 43.3143 41.4456 43.1697 41.5323 42.9961C41.729 42.6085 41.729 42.1573 41.5323 41.7697C41.4398 41.5961 41.3009 41.4515 41.1332 41.3531C40.7745 41.1564 40.3464 41.1564 39.9877 41.3531C39.8199 41.4515 39.6753 41.5961 39.5885 41.7697C39.3918 42.1573 39.3918 42.6085 39.5885 42.9961C39.681 43.1697 39.8199 43.3143 39.9877 43.4127C40.3464 43.6094 40.7745 43.6094 41.1332 43.4127ZM46.8143 41.0407C47.0399 41.168 47.2308 41.3531 47.3523 41.5845C47.6127 42.0821 47.6127 42.6837 47.3523 43.1813C47.2251 43.4069 47.0399 43.5978 46.8143 43.7251C46.5771 43.8581 46.3168 43.9218 46.0449 43.9218C45.8077 43.9276 45.5763 43.8697 45.368 43.7598C45.1655 43.6499 44.9977 43.4937 44.882 43.297V43.8929H44.4944V39.6291H44.8994V41.4399C45.0209 41.249 45.1829 41.0986 45.3853 40.9944C45.5878 40.8903 45.8192 40.8382 46.0449 40.844C46.311 40.844 46.5771 40.9077 46.8143 41.0407ZM46.5887 43.4069C46.7622 43.3085 46.9011 43.1639 46.9937 42.9904C47.1904 42.6027 47.1904 42.1515 46.9937 41.7639C46.9011 41.5903 46.7622 41.4457 46.5887 41.3473C46.23 41.1506 45.7961 41.1506 45.4374 41.3473C45.2696 41.4457 45.125 41.5903 45.0382 41.7639C44.8415 42.1515 44.8415 42.6027 45.0382 42.9904C45.1308 43.1639 45.2696 43.3085 45.4374 43.4069C45.7961 43.6036 46.23 43.6036 46.5887 43.4069ZM50.7136 40.8672L49.2036 44.2458C49.1168 44.483 48.9722 44.6854 48.7755 44.8474C48.6077 44.9689 48.4053 45.0326 48.197 45.0268C48.0581 45.0268 47.9193 45.0036 47.792 44.9574C47.6705 44.9111 47.5548 44.8416 47.468 44.7491L47.659 44.4425C47.8036 44.5929 48.0003 44.6739 48.2086 44.6739C48.3358 44.6797 48.4573 44.6392 48.5615 44.5582C48.683 44.4482 48.7755 44.3152 48.8334 44.1706L48.9664 43.8755L47.6185 40.8672H48.0466L49.1747 43.43L50.3086 40.8672H50.7136Z" fill="#F1F1F1"/>
</g>
</svg>
