<svg width="46" height="46" viewBox="0 0 46 46" fill="none" xmlns="http://www.w3.org/2000/svg">
<path d="M40.1763 5.98201H39.6305C40.6709 4.28822 40.2867 2.01423 38.617 0.775398C36.8179 -0.559294 34.2613 -0.12967 33.0057 1.74659L30.1716 5.9821H5.82466C3.82343 5.9821 2.19531 7.61022 2.19531 9.61145V32.8153C2.19531 34.8165 3.82343 36.4446 5.82466 36.4446H19.9221L18.857 40.9185H16.558C15.0597 40.9185 13.8407 42.1374 13.8407 43.6357V44.203H11.0067C10.5105 44.203 10.1082 44.6054 10.1082 45.1015C10.1082 45.5976 10.5105 45.9999 11.0067 45.9999H34.9944C35.4906 45.9999 35.8928 45.5976 35.8928 45.1015C35.8928 44.6054 35.4906 44.203 34.9944 44.203H32.1603V43.6357C32.1603 42.1374 30.9413 40.9185 29.443 40.9185H27.1441L26.0789 36.4446H40.1764C42.1776 36.4446 43.8057 34.8165 43.8057 32.8153V27.7096V9.61136C43.8057 7.61013 42.1776 5.98201 40.1763 5.98201ZM27.3035 21.7761C25.8989 22.7595 23.2673 21.4229 20.7542 22.7639C20.1411 19.5785 20.5277 16.5827 23.7193 15.9215C24.1318 15.8355 24.5758 15.7966 24.9539 15.8042C26.0342 16.6056 27.1268 17.4163 28.204 18.2156C28.6756 19.5873 28.4986 20.9396 27.3035 21.7761ZM28.209 12.1462L30.7521 14.033L28.7964 16.4175C27.9912 15.8202 27.2991 15.3066 26.4939 14.7092C26.6611 14.4593 28.0562 12.3744 28.209 12.1462ZM34.4992 2.7459C35.1796 1.7288 36.5674 1.49216 37.5463 2.21853C38.5256 2.94499 38.701 4.34168 37.925 5.2878C36.5482 6.96632 33.2749 10.9572 31.8929 12.6422L29.2093 10.6511L34.4992 2.7459ZM30.3634 43.6357V44.203H15.6376V43.6357C15.6376 43.1283 16.0505 42.7153 16.558 42.7153H29.443C29.9505 42.7153 30.3634 43.1283 30.3634 43.6357ZM25.2969 40.9185H20.704L21.7692 36.4446H24.2318L25.2969 40.9185ZM42.0089 32.8153C42.0089 33.8258 41.1868 34.6478 40.1764 34.6478C38.7502 34.6478 7.42825 34.6478 5.82475 34.6478C4.8143 34.6478 3.99224 33.8258 3.99224 32.8153V28.608H6.55957C7.05576 28.608 7.45799 28.2057 7.45799 27.7096C7.45799 27.2135 7.05576 26.8112 6.55957 26.8112H3.99206V9.61136C3.99206 8.60091 4.81412 7.77885 5.82457 7.77885H28.9692C28.1085 9.06512 25.5975 12.8176 24.8022 14.0062C23.0415 14.0221 21.2838 14.6354 20.1331 15.9787C18.5672 17.8066 18.2921 20.6786 19.3154 24.5151C19.4903 25.1711 20.3089 25.4061 20.8042 24.933C23.1272 22.7133 26.0205 25.1345 28.6115 23.0374C30.193 21.7572 30.5673 19.7219 29.971 17.8187C30.7771 16.8358 37.3977 8.76406 38.2057 7.77885H40.1762C41.1866 7.77885 42.0087 8.60091 42.0087 9.61136V26.8111H13.7467C13.2506 26.8111 12.8483 27.2134 12.8483 27.7095C12.8483 28.2056 13.2506 28.6079 13.7467 28.6079H42.0089V32.8153Z" fill="#0C0D0E"/>
<path d="M9.98016 26.8286C9.54765 26.917 9.25781 27.2909 9.25781 27.7101C9.25781 28.272 9.77163 28.7024 10.3314 28.5905C10.8289 28.4896 11.132 28.0102 11.0367 27.534C10.9367 27.0425 10.46 26.732 9.98016 26.8286Z" fill="#0C0D0E"/>
</svg>
