<svg width="79" height="60" viewBox="0 0 79 60" fill="none" xmlns="http://www.w3.org/2000/svg">
<g clip-path="url(#clip0_665_2591)">
<path d="M7.14551 55.1211C2.71342 50.2731 0.0541687 44.9845 0.0541687 36.17C0.0541687 20.7448 11.1344 7.0824 26.6467 0.0308533L30.6356 5.76023C16.0097 13.6932 12.9072 23.8298 12.0208 30.4406C14.2368 29.1185 17.3393 28.6778 20.4418 29.1185C28.4195 29.9999 34.6244 36.17 34.6244 44.5437C34.6244 48.5102 32.8516 52.4767 30.1924 55.5618C27.0899 58.6468 23.5442 59.969 19.1121 59.969C14.2368 59.969 9.80476 57.7654 7.14551 55.1211ZM51.4664 55.1211C47.0343 50.2731 44.375 44.9845 44.375 36.17C44.375 20.7448 55.4553 7.0824 70.9676 0.0308533L74.9564 5.76023C60.3305 13.6932 57.2281 23.8298 56.3417 30.4406C58.5577 29.1185 61.6602 28.6778 64.7626 29.1185C72.7404 29.9999 78.9453 36.6107 78.9453 44.5437C78.9453 48.5102 77.1725 52.4767 74.5132 55.5618C71.4108 58.6468 67.8651 59.969 63.433 59.969C58.5577 59.969 54.1256 57.7654 51.4664 55.1211Z" fill="#DCE4EC"/>
</g>
<defs>
<clipPath id="clip0_665_2591">
<rect width="79" height="60" fill="white" transform="matrix(-1 0 0 -1 79 60)"/>
</clipPath>
</defs>
</svg>
