<svg width="28" height="28" viewBox="0 0 28 28" fill="none" xmlns="http://www.w3.org/2000/svg">
<g clip-path="url(#clip0_63_9183)">
<path d="M27.9994 4.66666C27.9994 7.24399 25.91 9.33334 23.3328 9.33334C20.7554 9.33334 18.666 7.24399 18.666 4.66666C18.666 2.08933 20.7554 0 23.3328 0C25.91 0 27.9994 2.08933 27.9994 4.66666Z" fill="#014FE5"/>
<path d="M27.9994 23.3334C27.9994 25.9106 25.91 28 23.3328 28C20.7554 28 18.666 25.9106 18.666 23.3334C18.666 20.756 20.7554 18.6666 23.3328 18.6666C25.91 18.6666 27.9994 20.756 27.9994 23.3334Z" fill="#014FE5"/>
<path d="M9.33334 4.66666C9.33334 7.24399 7.24399 9.33334 4.66666 9.33334C2.08933 9.33334 0 7.24399 0 4.66666C0 2.08933 2.08933 0 4.66666 0C7.24399 0 9.33334 2.08933 9.33334 4.66666Z" fill="#014FE5"/>
<path d="M9.33334 23.3334C9.33334 25.9106 7.24399 28 4.66666 28C2.08933 28 0 25.9106 0 23.3334C0 20.756 2.08933 18.6666 4.66666 18.6666C7.24399 18.6666 9.33334 20.756 9.33334 23.3334Z" fill="#014FE5"/>
</g>
<defs>
<clipPath id="clip0_63_9183">
<rect width="28" height="28" fill="white"/>
</clipPath>
</defs>
</svg>
