<svg width="51" height="51" viewBox="0 0 51 51" fill="none" xmlns="http://www.w3.org/2000/svg">
<g clip-path="url(#clip0_0_607)">
<path d="M50.6367 16.5447C50.6367 7.87779 43.5856 0.82666 34.9186 0.82666C31.409 0.82666 28.1645 1.98319 25.5457 3.9347C22.927 1.98319 19.6825 0.82666 16.1729 0.82666C7.50587 0.826758 0.454834 7.87779 0.454834 16.5447C0.454834 23.1029 4.49251 28.7348 10.2122 31.0878C9.96105 32.2013 9.82776 33.3589 9.82776 34.5472C9.82776 43.2141 16.8788 50.2653 25.5458 50.2653C28.8853 50.2653 32.0747 49.2315 34.7693 47.2759C35.2082 46.9574 35.3058 46.3432 34.9872 45.9042C34.6686 45.4653 34.0544 45.3678 33.6156 45.6863C31.2587 47.397 28.4681 48.3011 25.5458 48.3011C17.9618 48.3011 11.7918 42.1311 11.7918 34.5471C11.7918 33.579 11.8929 32.6343 12.0841 31.7222C13.3884 32.074 14.759 32.2627 16.173 32.2627C19.6826 32.2627 22.9271 31.1062 25.5458 29.1547C28.1646 31.1062 31.4091 32.2627 34.9187 32.2627C36.3327 32.2627 37.7032 32.074 39.0076 31.7222C39.1987 32.6343 39.2999 33.579 39.2999 34.5471C39.2999 36.1454 39.0285 37.711 38.4931 39.2003C38.3097 39.7107 38.5747 40.2732 39.085 40.4567C39.5957 40.64 40.1579 40.3751 40.3413 39.8647C40.9536 38.1616 41.2639 36.3725 41.2639 34.5471C41.2639 33.3588 41.1305 32.2012 40.8795 31.0877C46.599 28.7348 50.6367 23.1029 50.6367 16.5447ZM2.41888 16.5447C2.41888 8.96072 8.58889 2.79071 16.1729 2.79071C19.081 2.79071 21.7805 3.69869 24.0047 5.24491C21.0445 8.10498 19.2005 12.1134 19.2005 16.5447C19.2005 17.733 19.3339 18.8906 19.5849 20.0042C15.5048 21.6828 12.2808 25.0296 10.7678 29.1914C5.8632 27.0872 2.41888 22.2109 2.41888 16.5447ZM29.927 16.5447C29.927 17.5128 29.826 18.4575 29.6348 19.3696C28.3303 19.0179 26.9599 18.8291 25.5457 18.8291C24.1317 18.8291 22.7611 19.0179 21.4567 19.3696C21.2656 18.4575 21.1644 17.5128 21.1644 16.5447C21.1644 12.5793 22.8519 9.0012 25.5457 6.48878C28.2395 9.0013 29.927 12.5794 29.927 16.5447ZM25.5457 26.6008C23.9763 25.137 22.748 23.3117 21.9967 21.2584C23.1294 20.9556 24.3188 20.7932 25.5457 20.7932C26.7726 20.7932 27.9621 20.9556 29.0948 21.2584C28.3435 23.3117 27.1152 25.1369 25.5457 26.6008ZM16.1729 30.2989C14.9461 30.2989 13.7566 30.1365 12.6239 29.8337C13.9284 26.2688 16.6686 23.3902 20.1405 21.9006C20.9658 24.1705 22.3001 26.1979 24.0046 27.8447C21.7805 29.3909 19.081 30.2989 16.1729 30.2989ZM34.9186 30.2989C32.0105 30.2989 29.3109 29.3909 27.0868 27.8447C28.7913 26.1979 30.1256 24.1705 30.9509 21.9006C34.4228 23.3902 37.163 26.2687 38.4675 29.8337C37.3348 30.1365 36.1454 30.2989 34.9186 30.2989ZM40.3237 29.1914C38.8107 25.0296 35.5867 21.6828 31.5066 20.0042C31.7577 18.8907 31.891 17.733 31.891 16.5447C31.891 12.1134 30.047 8.10498 27.0868 5.24491C29.3109 3.69869 32.0105 2.79071 34.9186 2.79071C42.5026 2.79071 48.6726 8.96072 48.6726 16.5447C48.6726 22.2109 45.2283 27.0872 40.3237 29.1914Z" fill="white"/>
<path d="M37.3075 44.3721C37.8499 44.3721 38.2896 43.9324 38.2896 43.39C38.2896 42.8476 37.8499 42.408 37.3075 42.408C36.7651 42.408 36.3254 42.8476 36.3254 43.39C36.3254 43.9324 36.7651 44.3721 37.3075 44.3721Z" fill="white"/>
</g>
<defs>
<clipPath id="clip0_0_607">
<rect width="50.1818" height="50.1818" fill="white" transform="translate(0.454834 0.454834)"/>
</clipPath>
</defs>
</svg>
