<svg width="51" height="51" viewBox="0 0 51 51" fill="none" xmlns="http://www.w3.org/2000/svg">
<g clip-path="url(#clip0_0_577)">
<path d="M46.073 5.32812H5.01854C2.5021 5.32812 0.454834 7.37529 0.454834 9.89173V41.1997C0.454834 43.7161 2.5021 45.7634 5.01854 45.7634H46.073C48.5895 45.7634 50.6367 43.7161 50.6367 41.1997C50.6367 40.3282 50.6367 10.7074 50.6367 9.89173C50.6367 7.37529 48.5894 5.32812 46.073 5.32812ZM2.41506 9.89173C2.41506 8.45626 3.58296 7.28825 5.01854 7.28825H46.073C47.5085 7.28825 48.6765 8.45616 48.6765 9.89173V16.5098H2.41506V9.89173ZM11.3776 43.8031V42.9555H12.7715C13.3128 42.9555 13.7516 42.5166 13.7516 41.9754C13.7516 41.4341 13.3128 40.9952 12.7715 40.9952H11.3776V39.7766H12.7715C13.3128 39.7766 13.7516 39.3377 13.7516 38.7965C13.7516 38.2552 13.3128 37.8163 12.7715 37.8163H11.3776V36.5976H12.7715C13.3128 36.5976 13.7516 36.1587 13.7516 35.6175C13.7516 35.0762 13.3128 34.6373 12.7715 34.6373H11.3776V33.4386C11.3776 33.2934 11.4958 33.1751 11.6411 33.1751H15.2053C15.3506 33.1751 15.4688 33.2933 15.4688 33.4386V43.8031H11.3776ZM27.3515 35.392H26.5259V30.5041C26.5259 29.9629 26.0871 29.524 25.5457 29.524C25.0044 29.524 24.5656 29.9629 24.5656 30.5041V35.392H23.7732L20.9007 28.5001C20.6857 27.9841 20.8164 27.3831 21.2258 27.0043C22.5989 25.7347 24.3269 23.9527 25.5626 22.0423C26.7942 23.9528 28.5119 25.7356 29.8761 27.0059C30.2812 27.383 30.411 27.981 30.1993 28.4939L27.3515 35.392ZM22.3203 43.8031V37.955C22.3203 37.6226 22.5907 37.3523 22.9231 37.3523H28.1684C28.5008 37.3523 28.7712 37.6227 28.7712 37.955V43.8031H22.3203ZM36.3736 33.1338C36.3736 32.9719 36.5053 32.8402 36.6672 32.8402H37.3412C37.503 32.8402 37.6348 32.9719 37.6348 33.1338V33.8632H36.3736V33.1338ZM35.4368 43.8031V36.001C35.4368 35.9031 35.5164 35.8234 35.6144 35.8234H38.3939C38.4918 35.8234 38.5715 35.9031 38.5715 36.001V43.8031H35.4368ZM46.073 43.8031H40.5317V36.001C40.5317 35.2672 40.1599 34.6186 39.595 34.2335V33.1338C39.595 32.1144 38.9146 31.2514 37.9843 30.974V28.5706C37.9843 28.0294 37.5455 27.5905 37.0042 27.5905C36.4628 27.5905 36.024 28.0294 36.024 28.5706V30.974C35.0937 31.2515 34.4133 32.1144 34.4133 33.1338V34.2335C33.8484 34.6186 33.4766 35.2672 33.4766 36.001V43.8031H30.7314V37.955C30.7314 36.9687 30.171 36.1112 29.3522 35.6828L32.0113 29.2418C32.5333 27.9774 32.212 26.5022 31.212 25.5711C29.8933 24.3432 27.5218 21.9376 26.4535 19.6223C26.1039 18.8643 25.0232 18.8644 24.6736 19.6223C23.6067 21.9351 21.2218 24.3383 19.895 25.5651C18.8842 26.4999 18.5613 27.9823 19.0913 29.2541L21.7652 35.6697C20.9323 36.0934 20.3601 36.9585 20.3601 37.9551V43.8032H17.429V33.4386C17.429 32.2124 16.4315 31.2149 15.2053 31.2149H11.6411C10.4149 31.2149 9.41739 32.2124 9.41739 33.4386V43.8031H5.01854C3.58296 43.8031 2.41506 42.6352 2.41506 41.1997V18.4702H48.6764V41.1997C48.6764 42.6352 47.5085 43.8031 46.073 43.8031Z" fill="white"/>
<path d="M7.41949 9.23462C5.78496 9.23462 4.45514 10.5643 4.45514 12.1989C4.45514 13.8334 5.78496 15.1632 7.41949 15.1632C9.05403 15.1632 10.3838 13.8334 10.3838 12.1989C10.3838 10.5643 9.05403 9.23462 7.41949 9.23462ZM7.41949 13.203C6.86583 13.203 6.41537 12.7525 6.41537 12.1989C6.41537 11.6453 6.86583 11.1948 7.41949 11.1948C7.97316 11.1948 8.42362 11.6453 8.42362 12.1989C8.42362 12.7526 7.97316 13.203 7.41949 13.203Z" fill="white"/>
<path d="M15.4075 9.23462C13.773 9.23462 12.4432 10.5643 12.4432 12.1989C12.4432 13.8334 13.773 15.1632 15.4075 15.1632C17.0421 15.1632 18.3719 13.8334 18.3719 12.1989C18.3719 10.5643 17.042 9.23462 15.4075 9.23462ZM15.4075 13.203C14.8539 13.203 14.4034 12.7525 14.4034 12.1989C14.4034 11.6453 14.8539 11.1948 15.4075 11.1948C15.9612 11.1948 16.4117 11.6453 16.4117 12.1989C16.4116 12.7526 15.9611 13.203 15.4075 13.203Z" fill="white"/>
<path d="M23.3954 9.23462C21.7609 9.23462 20.4311 10.5643 20.4311 12.1989C20.4311 13.8334 21.7609 15.1632 23.3954 15.1632C25.03 15.1632 26.3598 13.8334 26.3598 12.1989C26.3598 10.5643 25.03 9.23462 23.3954 9.23462ZM23.3954 13.203C22.8418 13.203 22.3913 12.7525 22.3913 12.1989C22.3913 11.6453 22.8418 11.1948 23.3954 11.1948C23.9491 11.1948 24.3996 11.6453 24.3996 12.1989C24.3996 12.7526 23.9491 13.203 23.3954 13.203Z" fill="white"/>
<path d="M25.3546 26.3268C24.8132 26.4366 24.4798 26.9596 24.5852 27.4795C24.6813 27.9513 25.0897 28.2685 25.5457 28.2685C26.0788 28.2685 26.5258 27.8348 26.5258 27.2884C26.5258 26.6612 25.9476 26.2073 25.3546 26.3268Z" fill="black"/>
</g>
<defs>
<clipPath id="clip0_0_577">
<rect width="50.1818" height="50.1818" fill="white" transform="translate(0.454834 0.454834)"/>
</clipPath>
</defs>
</svg>
