<svg width="51" height="51" viewBox="0 0 51 51" fill="none" xmlns="http://www.w3.org/2000/svg">
<g clip-path="url(#clip0_0_597)">
<path d="M47.2431 30.3815H39.5461V27.1566C39.5461 25.3617 38.0858 23.9013 36.2909 23.9013H28.1949C27.909 23.131 27.2963 22.5182 26.5259 22.2323V20.7101H34.2229C36.0941 20.7101 37.6165 19.1878 37.6165 17.3165C37.6165 15.7039 37.6165 5.67846 37.6165 4.11449C37.6165 2.24336 36.0942 0.720947 34.2229 0.720947H16.8686C14.9975 0.720947 13.4751 2.24326 13.4751 4.11449V17.3165C13.4751 19.1877 14.9974 20.7101 16.8686 20.7101H24.5657V22.2323C23.7953 22.5182 23.1825 23.131 22.8966 23.9013H14.8007C13.0058 23.9013 11.5454 25.3616 11.5454 27.1566V30.3815H3.84841C1.97718 30.3815 0.454865 31.9039 0.454865 33.775V46.977C0.454865 48.8482 1.97718 50.3706 3.84841 50.3706H21.2027C23.0738 50.3706 24.5961 48.8483 24.5961 46.977C24.5961 45.3644 24.5961 35.339 24.5961 33.775C24.5961 31.9039 23.0738 30.3814 21.2027 30.3814H13.5057V27.1565C13.5057 26.4424 14.0866 25.8615 14.8007 25.8615H22.8966C23.2959 26.9373 24.3327 27.706 25.5458 27.706C26.7589 27.706 27.7956 26.9372 28.1949 25.8615H36.2909C37.005 25.8615 37.5859 26.4424 37.5859 27.1565V30.3814H29.8889C28.0177 30.3814 26.4954 31.9038 26.4954 33.775V46.977C26.4954 48.8482 28.0177 50.3706 29.8889 50.3706H47.2431C49.1143 50.3706 50.6367 48.8483 50.6367 46.977C50.6367 45.3644 50.6367 35.339 50.6367 33.775C50.6367 31.9039 49.1144 30.3815 47.2431 30.3815ZM22.6359 46.977C22.6359 47.7673 21.993 48.4103 21.2027 48.4103H3.84841C3.05814 48.4103 2.41509 47.7674 2.41509 46.977V37.315H22.6359V46.977ZM21.2027 32.3418C21.993 32.3418 22.6359 32.9847 22.6359 33.7751V35.3548H2.41509V33.7751C2.41509 32.9848 3.05805 32.3418 3.84841 32.3418H21.2027ZM16.8686 18.7497C16.0784 18.7497 15.4353 18.1068 15.4353 17.3164V7.65447H16.3123C16.8536 7.65447 17.2924 7.21567 17.2924 6.67435C17.2924 6.13304 16.8536 5.69424 16.3123 5.69424H15.4353V4.11449C15.4353 3.32423 16.0783 2.68117 16.8686 2.68117H34.2229C35.0132 2.68117 35.6562 3.32413 35.6562 4.11449V5.69424H24.1532C23.6119 5.69424 23.1731 6.13304 23.1731 6.67435C23.1731 7.21567 23.6119 7.65447 24.1532 7.65447H35.6561V17.3165C35.6561 18.1068 35.0132 18.7498 34.2228 18.7498H16.8686V18.7497ZM25.5458 25.7459C25.069 25.7459 24.6813 25.3581 24.6813 24.8814C24.6813 24.4048 25.0691 24.0169 25.5458 24.0169C26.0224 24.0169 26.4102 24.4047 26.4102 24.8814C26.4102 25.3582 26.0225 25.7459 25.5458 25.7459ZM48.6765 46.977C48.6765 47.7673 48.0335 48.4103 47.2431 48.4103H29.8889C29.0986 48.4103 28.4556 47.7674 28.4556 46.977V37.315H48.6765V46.977ZM48.6765 35.3547H28.4556V33.775C28.4556 32.9847 29.0986 32.3417 29.8889 32.3417H47.2431C48.0334 32.3417 48.6765 32.9846 48.6765 33.775V35.3547Z" fill="white"/>
<path d="M25.5458 8.4917C23.0057 8.4917 20.9392 10.5582 20.9392 13.0982C20.9392 15.6383 23.0057 17.7048 25.5458 17.7048C28.0858 17.7048 30.1523 15.6383 30.1523 13.0982C30.1523 10.5582 28.0858 8.4917 25.5458 8.4917ZM25.5458 15.7445C24.0866 15.7445 22.8995 14.5574 22.8995 13.0982C22.8995 11.639 24.0866 10.4519 25.5458 10.4519C27.005 10.4519 28.1921 11.639 28.1921 13.0982C28.1921 14.5574 27.005 15.7445 25.5458 15.7445Z" fill="white"/>
<path d="M8.14161 46.8258H16.9095C17.6876 46.8258 18.1569 45.9586 17.7283 45.307L13.3443 38.6422C12.9579 38.0545 12.0937 38.0538 11.7067 38.6422L7.32272 45.307C6.89588 45.956 7.36007 46.8258 8.14161 46.8258ZM12.5256 40.9644L15.0916 44.8656H9.95943L12.5256 40.9644Z" fill="white"/>
<path d="M35.2413 47.191H41.8908C42.4321 47.191 42.8709 46.7522 42.8709 46.2109V39.5614C42.8709 39.0201 42.4321 38.5813 41.8908 38.5813H35.2413C34.7 38.5813 34.2612 39.0201 34.2612 39.5614V46.2109C34.2612 46.7522 34.7 47.191 35.2413 47.191ZM36.2214 40.5415H40.9107V45.2308H36.2214V40.5415Z" fill="white"/>
<path d="M20.2352 5.69458H20.2327C19.6914 5.69458 19.2539 6.13338 19.2539 6.67469C19.2539 7.21601 19.6939 7.65481 20.2352 7.65481C20.7765 7.65481 21.2153 7.21601 21.2153 6.67469C21.2153 6.13338 20.7765 5.69458 20.2352 5.69458Z" fill="black"/>
</g>
<defs>
<clipPath id="clip0_0_597">
<rect width="50.1818" height="50.1818" fill="white" transform="translate(0.454865 0.454834)"/>
</clipPath>
</defs>
</svg>
