<svg width="51" height="51" viewBox="0 0 51 51" fill="none" xmlns="http://www.w3.org/2000/svg">
<g clip-path="url(#clip0_0_587)">
<path d="M42.0995 12.8906L36.2947 9.53921C34.979 8.77971 33.3037 9.23261 32.5471 10.5434L28.2276 18.0249L25.0302 12.4868C24.2429 11.123 22.9716 10.1476 21.4506 9.74002C16.4255 8.39355 12.1838 13.8172 14.8194 18.3821C15.8944 20.2441 20.5746 28.3505 21.4204 29.8155L13.7105 43.1694C12.9525 44.4824 13.4013 46.159 14.7146 46.917L20.5194 50.2685C21.8306 51.0254 23.508 50.5794 24.267 49.2643C24.761 48.4086 27.9608 42.8666 28.4581 42.0052C28.4987 42.0755 28.4175 41.9349 30.9678 46.3522C31.6472 47.5289 32.7199 48.4463 33.99 48.9348C36.666 49.9034 37.0686 50.2694 38.0867 50.2694C39.6946 50.2694 41.1558 49.109 41.4233 47.4146C41.8605 44.6046 42.5005 42.7463 41.1788 40.4567C40.2758 38.8926 35.8294 31.1913 35.2654 30.2146C36.8931 27.3954 41.3375 19.6974 43.1037 16.6383C43.8616 15.3252 43.4128 13.6487 42.0995 12.8906ZM34.2421 11.5218C34.4595 11.1455 34.9397 11.0168 35.3161 11.2342L41.1209 14.5856H41.121C41.4973 14.8028 41.626 15.2832 41.4086 15.6596L40.3718 17.4555L37.7209 15.9249C37.2528 15.6546 36.6544 15.8151 36.3841 16.2831C36.1139 16.7512 36.2742 17.3496 36.7423 17.6199L39.3932 19.1504L37.7411 22.012L35.0903 20.4815C34.6222 20.2112 34.0237 20.3717 33.7535 20.8397C33.4833 21.3077 33.6437 21.9062 34.1117 22.1765L36.7626 23.7069L35.1104 26.5685C32.3282 24.9769 32.4548 25.0025 32.2204 24.9404L29.3576 19.982L34.2421 11.5218ZM31.3964 43.1801L18.2269 20.3698L25.0478 16.4317C26.0399 18.1501 34.7565 33.2477 38.2172 39.2418C35.511 39.5791 33.041 41.0061 31.3964 43.1801ZM16.1208 14.4151C17.0295 11.0242 21.5937 10.4493 23.3352 13.4654L24.0692 14.7368L17.2484 18.6748C16.9168 17.9067 15.5453 16.5636 16.1208 14.4151ZM22.572 48.2857C22.3554 48.6605 21.8758 48.7914 21.498 48.5733L15.6931 45.2219C15.3169 45.0046 15.1881 44.5244 15.4054 44.1479L22.5504 31.7725L27.3281 40.0479L27.2182 40.2382L24.5674 38.7077C24.0992 38.4374 23.5009 38.5979 23.2306 39.0659C22.9603 39.5339 23.1207 40.1323 23.5888 40.4026L26.2396 41.9332L24.5875 44.7947L21.9367 43.2642C21.4685 42.994 20.8702 43.1544 20.5999 43.6223C20.3296 44.0904 20.49 44.6888 20.9581 44.9591L23.6089 46.4897L22.572 48.2857ZM37.5735 48.2157C34.5913 47.0677 34.6802 47.1066 34.5341 47.0431C33.0685 46.4056 32.5851 45.1937 32.4819 45.0603C33.9235 42.6714 36.5133 41.1762 39.3029 41.1222C40.3756 43.1313 40.0769 43.2495 39.4899 47.1095C39.3485 48.0047 38.4182 48.5406 37.5735 48.2157Z" fill="white"/>
<path d="M26.9233 25.5991C26.653 25.1312 26.0547 24.9706 25.5865 25.2409C25.1184 25.5112 24.958 26.1096 25.2283 26.5777L31.3012 37.096C31.5724 37.5656 32.1713 37.7237 32.638 37.4542C33.106 37.1839 33.2664 36.5855 32.9961 36.1174L26.9233 25.5991Z" fill="white"/>
<path d="M24.2892 22.0154C23.7489 22.0154 23.3106 22.4536 23.3106 22.994C23.3106 23.5344 23.7489 23.9726 24.2892 23.9726H24.2916C24.832 23.9726 25.2689 23.5344 25.2689 22.994C25.2689 22.4536 24.8296 22.0154 24.2892 22.0154Z" fill="white"/>
<path d="M12.2169 14.7911C12.5994 14.4094 12.6001 13.7898 12.2184 13.4071L10.3323 11.5167C9.18572 10.3676 7.32695 10.3673 6.18012 11.5167L4.29385 13.4071C3.9122 13.7896 3.91278 14.4093 4.29542 14.7911C4.67688 15.1716 5.29644 15.1734 5.67946 14.7896L7.28066 13.1848C7.27949 13.2044 7.27763 13.2239 7.27763 13.2438V26.7141C5.64649 27.1473 4.44084 28.6362 4.44084 30.4017C4.44084 32.1672 5.64658 33.656 7.27763 34.0893V47.5595C7.27763 47.5794 7.27939 47.5988 7.28056 47.6184L5.67937 46.0138C5.29751 45.6313 4.67805 45.6307 4.29532 46.0122C3.91278 46.394 3.9121 47.0136 4.29376 47.3963L6.18002 49.2866C7.32548 50.4347 9.18533 50.4358 10.3322 49.2866L12.2183 47.3963C12.6 47.0136 12.5994 46.3941 12.2168 46.0122C11.8342 45.6307 11.2146 45.6312 10.8327 46.0138L9.23152 47.6185C9.23269 47.5989 9.23455 47.5795 9.23455 47.5595V34.0893C10.8657 33.656 12.0713 32.1672 12.0713 30.4017C12.0713 28.6362 10.8656 27.1473 9.23455 26.7141C9.23406 22.8319 9.23621 13.262 9.23152 13.1848L10.8327 14.7896C11.2147 15.1721 11.8343 15.1727 12.2169 14.7911ZM10.1143 30.4017C10.1143 31.4263 9.28064 32.2599 8.25614 32.2599C7.23163 32.2599 6.39796 31.4262 6.39796 30.4017C6.39796 29.3772 7.23163 28.5435 8.25614 28.5435C9.28064 28.5435 10.1143 29.3771 10.1143 30.4017Z" fill="white"/>
<path d="M46.2217 2.62689L44.3312 0.740625C43.9486 0.358968 43.329 0.359653 42.9472 0.742191C42.5655 1.12483 42.5661 1.74438 42.9488 2.12624L44.5535 3.72743C44.5339 3.72626 44.5144 3.7244 44.4945 3.7244H32.7459C32.3127 2.09326 30.8238 0.887612 29.0583 0.887612C27.2928 0.887612 25.804 2.09335 25.3707 3.7244C21.4469 3.72499 13.641 3.72274 13.5631 3.72743L15.1679 2.12624C15.5504 1.74448 15.5511 1.12492 15.1694 0.742191C14.7877 0.359751 14.168 0.358968 13.7854 0.740625L11.895 2.62679C10.7459 3.77333 10.7456 5.63219 11.895 6.77903L13.7854 8.66519C14.1668 9.04568 14.7864 9.04744 15.1694 8.66363C15.5511 8.28099 15.5505 7.66144 15.1679 7.27958L13.5631 5.67839C13.5827 5.67956 13.6022 5.68142 13.6221 5.68142H25.3707C25.804 7.31256 27.2928 8.51821 29.0583 8.51821C30.8238 8.51821 32.3127 7.31246 32.7459 5.68142H44.4945C44.5144 5.68142 44.5339 5.67956 44.5535 5.67839L42.9488 7.27958C42.5662 7.66134 42.5655 8.28089 42.9472 8.66363C43.3278 9.04499 43.9473 9.04812 44.3312 8.66519L46.2216 6.77903C47.3708 5.63249 47.3711 3.77362 46.2217 2.62689ZM29.0583 6.56119C28.0337 6.56119 27.2001 5.72751 27.2001 4.70301C27.2001 3.6785 28.0338 2.84483 29.0583 2.84483C30.0828 2.84483 30.9165 3.6785 30.9165 4.70301C30.9165 5.72751 30.0829 6.56119 29.0583 6.56119Z" fill="white"/>
</g>
<defs>
<clipPath id="clip0_0_587">
<rect width="50.1818" height="50.1818" fill="white" transform="translate(0.454865 0.454834)"/>
</clipPath>
</defs>
</svg>
