<svg width="51" height="51" viewBox="0 0 51 51" fill="none" xmlns="http://www.w3.org/2000/svg">
<g clip-path="url(#clip0_0_617)">
<path d="M45.122 22.7851C45.122 20.7432 43.4609 19.0821 41.4191 19.0821H36.7382V11.2224C36.7382 10.819 36.9317 10.435 37.256 10.1951C38.2336 9.47149 38.8173 8.31329 38.8173 7.09697V3.1773C38.8173 1.67615 37.596 0.454834 36.0948 0.454834H32.2191C30.7178 0.454834 29.4965 1.67615 29.4965 3.1773V7.09687C29.4965 8.31319 30.0802 9.47139 31.0579 10.195C31.3821 10.4349 31.5756 10.8189 31.5756 11.2223V19.0819H22.4127V16.589C22.4127 15.162 23.2036 13.8753 24.4769 13.2311C26.5985 12.1574 27.9166 10.0132 27.9166 7.63524V6.4794C27.9166 4.1581 26.6666 1.99694 24.6546 0.839333C23.3244 0.0741578 21.6487 0.93607 21.4949 2.46054L21.2598 4.78919C21.0814 6.55692 19.6071 7.89007 17.8303 7.89007C16.0536 7.89007 14.5792 6.55692 14.4008 4.78909L14.1658 2.46054C14.0117 0.934208 12.3345 0.075236 11.006 0.839333C8.99361 1.99685 7.74367 4.1581 7.74367 6.4794V7.63554C7.74367 10.0135 9.06163 12.1577 11.1834 13.2314C12.4565 13.8756 13.2475 15.1623 13.2475 16.5893V19.0822H9.67243C7.63066 19.0822 5.96957 20.7433 5.96957 22.7852C5.96957 23.5304 5.96947 40.9804 5.96947 41.7275C5.96947 43.7694 7.63056 45.4305 9.67243 45.4305H21.7562L21.1322 48.6764H18.7911C18.2499 48.6764 17.811 49.1153 17.811 49.6565C17.811 50.1978 18.2499 50.6367 18.7911 50.6367H32.3004C32.8416 50.6367 33.2805 50.1978 33.2805 49.6565C33.2805 49.1153 32.8416 48.6764 32.3004 48.6764H29.9593L29.3354 45.4304H41.4191C43.461 45.4304 45.1221 43.7693 45.1221 41.7274C45.1221 40.9797 45.122 23.5329 45.122 22.7851ZM31.1106 33.0216V24.5719C31.1106 24.3348 31.3034 24.1419 31.5405 24.1419H36.7733C37.0104 24.1419 37.2032 24.3348 37.2032 24.5719V33.0216C37.2032 34.7013 35.8367 36.0679 34.1569 36.0679C32.475 36.0679 31.1106 34.6991 31.1106 33.0216ZM31.4567 7.09697V3.1773C31.4567 2.75702 31.7987 2.41506 32.2191 2.41506H36.0948C36.5151 2.41506 36.8571 2.75702 36.8571 3.1773V7.09687C36.8571 7.69464 36.5702 8.26379 36.0899 8.61938C35.2684 9.22724 34.7779 10.2004 34.7779 11.2224V22.1817H33.5358C33.5358 21.1441 33.5358 12.4815 33.5358 11.2224C33.5358 10.2004 33.0454 9.22744 32.224 8.61938C31.7435 8.26389 31.4567 7.69464 31.4567 7.09697ZM12.0685 11.4823C10.6099 10.7443 9.7039 9.27017 9.7039 7.63554V6.4794C9.7039 4.85741 10.5773 3.34735 11.9832 2.53846C12.0866 2.47916 12.2043 2.54953 12.2151 2.65754L12.4502 4.986C12.7299 7.75913 15.0428 9.8503 17.83 9.8503C20.6173 9.8503 22.93 7.75913 23.2099 4.9861L23.4449 2.65754C23.4564 2.54444 23.5783 2.48191 23.6768 2.53846C25.0828 3.34735 25.9561 4.85741 25.9561 6.4794V7.63554C25.9561 9.27017 25.0501 10.7443 23.5915 11.4823C21.6552 12.4622 20.4524 14.4191 20.4524 16.5892V20.0622C20.4476 34.299 20.4646 33.5244 20.4389 33.7764C20.3043 35.097 19.1856 36.131 17.83 36.131C16.3826 36.131 15.2076 34.9532 15.2076 33.5087C15.2076 31.6579 15.2076 18.2974 15.2076 16.5892C15.2076 14.4191 14.0048 12.4622 12.0685 11.4823ZM9.67243 21.0423H13.2475V33.5087C13.2475 36.0355 15.3033 38.0913 17.8301 38.0913C20.3569 38.0913 22.4127 36.0355 22.4127 33.5087V21.0423H31.5756V22.1818H31.5406C30.2227 22.1818 29.1504 23.2539 29.1504 24.572V33.0217C29.1504 35.7822 31.3964 38.0282 34.1569 38.0282C36.9175 38.0282 39.1635 35.7822 39.1635 33.0217V24.572C39.1635 23.254 38.0913 22.1818 36.7733 22.1818H36.7383V21.0423H41.4192C42.3801 21.0423 43.1618 21.8242 43.1618 22.7851V38.786H7.92979V22.7851C7.92979 21.8241 8.71153 21.0423 9.67243 21.0423ZM27.9631 48.6764H23.1284L23.7523 45.4304H27.3393L27.9631 48.6764ZM9.67243 43.4702C8.71153 43.4702 7.92979 42.6883 7.92979 41.7274V40.7462H43.1618V41.7274C43.1618 42.6884 42.38 43.4702 41.4192 43.4702C40.2196 43.4702 11.0013 43.4702 9.67243 43.4702Z" fill="white"/>
<path d="M17.83 33.8384C18.3712 33.8384 18.8101 33.3995 18.8101 32.8583V27.0824C18.8101 26.5412 18.3712 26.1023 17.83 26.1023C17.2888 26.1023 16.8499 26.5412 16.8499 27.0824V32.8583C16.8499 33.3996 17.2888 33.8384 17.83 33.8384Z" fill="white"/>
<path d="M34.1569 25.5342C33.6156 25.5342 33.1767 25.9731 33.1767 26.5143V32.0193C33.1767 32.5605 33.6156 32.9994 34.1569 32.9994C34.6981 32.9994 35.137 32.5605 35.137 32.0193V26.5143C35.137 25.973 34.6982 25.5342 34.1569 25.5342Z" fill="white"/>
<path d="M17.6381 22.2004C16.5929 22.4126 16.5903 23.9096 17.6381 24.1223C18.241 24.2427 18.8104 23.7825 18.8104 23.1618C18.8104 22.5484 18.2444 22.0779 17.6381 22.2004Z" fill="white"/>
</g>
<defs>
<clipPath id="clip0_0_617">
<rect width="50.1818" height="50.1818" fill="white" transform="translate(0.454865 0.454834)"/>
</clipPath>
</defs>
</svg>
