<svg width="42" height="116" viewBox="0 0 42 116" fill="none" xmlns="http://www.w3.org/2000/svg">
<g filter="url(#filter0_d_800_4870)">
<path d="M26.192 36.248C26.192 37.0693 26.0427 37.784 25.744 38.392C25.4453 39 25.0293 39.4693 24.496 39.8C23.9627 40.1307 23.344 40.296 22.64 40.296L22.64 38.888C23.0773 38.888 23.4827 38.7867 23.856 38.584C24.2187 38.3813 24.512 38.088 24.736 37.704C24.9493 37.3093 25.056 36.824 25.056 36.248C25.056 35.4907 24.8747 34.904 24.512 34.488C24.1493 34.072 23.696 33.864 23.152 33.864C22.704 33.864 22.3467 33.96 22.08 34.152C21.8027 34.344 21.5787 34.6053 21.408 34.936C21.2373 35.256 21.088 35.6293 20.96 36.056C20.832 36.472 20.688 36.9093 20.528 37.368C20.2293 38.232 19.8613 38.872 19.424 39.288C18.976 39.704 18.3947 39.912 17.68 39.912C17.0827 39.9227 16.5547 39.784 16.096 39.496C15.6267 39.208 15.264 38.8027 15.008 38.28C14.7413 37.7467 14.608 37.1173 14.608 36.392C14.608 35.6773 14.7413 35.0587 15.008 34.536C15.2747 34.0027 15.6427 33.592 16.112 33.304C16.5813 33.0053 17.1147 32.8507 17.712 32.84L17.712 34.248C17.4027 34.248 17.0987 34.328 16.8 34.488C16.4907 34.648 16.24 34.8933 16.048 35.224C15.856 35.544 15.76 35.9493 15.76 36.44C15.7493 37.048 15.904 37.5493 16.224 37.944C16.544 38.328 16.9867 38.52 17.552 38.52C18.032 38.52 18.4 38.3867 18.656 38.12C18.912 37.8427 19.1253 37.4587 19.296 36.968C19.456 36.4773 19.6427 35.912 19.856 35.272C20.048 34.7387 20.272 34.2587 20.528 33.832C20.784 33.4053 21.1147 33.0747 21.52 32.84C21.9253 32.5947 22.4427 32.472 23.072 32.472C23.6053 32.472 24.112 32.6107 24.592 32.888C25.0613 33.1653 25.4453 33.5867 25.744 34.152C26.0427 34.7067 26.192 35.4053 26.192 36.248ZM26.192 26.998C26.192 27.7553 26.0213 28.438 25.68 29.046C25.328 29.6433 24.8427 30.118 24.224 30.47C23.5947 30.8113 22.864 30.982 22.032 30.982C21.2 30.982 20.4747 30.8113 19.856 30.47C19.2267 30.118 18.7413 29.6433 18.4 29.046C18.048 28.438 17.872 27.7553 17.872 26.998C17.872 26.0593 18.1173 25.27 18.608 24.63C19.0987 23.9793 19.7547 23.5687 20.576 23.398L20.576 24.774C20.0853 24.8807 19.7067 25.142 19.44 25.558C19.1627 25.974 19.024 26.4593 19.024 27.014C19.024 27.462 19.136 27.8833 19.36 28.278C19.584 28.6727 19.92 28.9927 20.368 29.238C20.816 29.4833 21.3707 29.606 22.032 29.606C22.6933 29.606 23.248 29.4833 23.696 29.238C24.144 28.9927 24.4853 28.6727 24.72 28.278C24.944 27.8833 25.056 27.462 25.056 27.014C25.056 26.4593 24.9227 25.974 24.656 25.558C24.3787 25.142 23.9893 24.8807 23.488 24.774L23.488 23.398C24.288 23.558 24.9387 23.9633 25.44 24.614C25.9413 25.2647 26.192 26.0593 26.192 26.998ZM26 21.521L18.064 21.521L18.064 20.305L19.584 20.193C19.0613 19.9477 18.6453 19.5743 18.336 19.073C18.0267 18.5717 17.872 17.953 17.872 17.217L19.28 17.217L19.28 17.585C19.28 18.0543 19.3653 18.4863 19.536 18.881C19.696 19.2757 19.9733 19.5903 20.368 19.825C20.7627 20.0597 21.3067 20.177 22 20.177L26 20.177L26 21.521ZM26.192 12.3894C26.192 13.136 26.0213 13.808 25.68 14.4054C25.3387 15.0027 24.8587 15.4774 24.24 15.8294C23.6107 16.1707 22.8747 16.3414 22.032 16.3414C21.1893 16.3414 20.4587 16.1654 19.84 15.8134C19.2107 15.4614 18.7253 14.9867 18.384 14.3894C18.0427 13.7814 17.872 13.104 17.872 12.3574C17.872 11.6107 18.0427 10.9387 18.384 10.3414C18.7253 9.74404 19.2107 9.27471 19.84 8.93337C20.4587 8.58137 21.1893 8.40537 22.032 8.40537C22.8747 8.40537 23.6107 8.58137 24.24 8.93337C24.8587 9.28537 25.3387 9.76537 25.68 10.3734C26.0213 10.9707 26.192 11.6427 26.192 12.3894ZM25.04 12.3894C25.04 11.9307 24.928 11.504 24.704 11.1094C24.48 10.7147 24.144 10.3947 23.696 10.1494C23.248 9.90404 22.6933 9.78137 22.032 9.78137C21.3707 9.78137 20.816 9.90404 20.368 10.1494C19.92 10.384 19.584 10.6987 19.36 11.0934C19.136 11.488 19.024 11.9094 19.024 12.3574C19.024 12.816 19.136 13.2427 19.36 13.6374C19.584 14.032 19.92 14.352 20.368 14.5974C20.816 14.8427 21.3707 14.9654 22.032 14.9654C22.6933 14.9654 23.248 14.8427 23.696 14.5974C24.144 14.352 24.48 14.0374 24.704 13.6534C24.928 13.2587 25.04 12.8374 25.04 12.3894ZM26 6.53662L14.48 6.53662L14.48 5.19262L26 5.19262L26 6.53662ZM26 2.98975L14.48 2.98975L14.48 1.64575L26 1.64575L26 2.98975Z" fill="white"/>
<g clip-path="url(#clip0_800_4870)">
<path opacity="0.5" d="M21 60C11.626 60 4 67.7006 4 77.1655V90.8349C4 100.3 11.626 108 21 108C30.3734 108 38 100.323 38 90.8874V77.1655C38 67.7006 30.3734 60 21 60ZM34.8024 90.8874C34.8024 98.5706 28.611 104.821 21 104.821C13.3894 104.821 7.19756 98.5468 7.19756 90.8345V77.1655C7.19756 69.4532 13.3894 63.1788 21 63.1788C28.6111 63.1788 34.8024 69.4532 34.8024 77.1655V90.8874Z" fill="white"/>
<path d="M19.9594 93.3738C20.3499 93.7643 20.9831 93.7643 21.3736 93.3738L27.7376 87.0098C28.1281 86.6193 28.1281 85.9861 27.7376 85.5956C27.347 85.2051 26.7139 85.2051 26.3234 85.5956L20.6665 91.2525L15.0096 85.5956C14.6191 85.2051 13.986 85.2051 13.5954 85.5956C13.2049 85.9861 13.2049 86.6193 13.5954 87.0098L19.9594 93.3738ZM19.6665 74L19.6665 92.6667L21.6665 92.6667L21.6665 74L19.6665 74Z" fill="white"/>
</g>
<rect x="4.5" y="0.5" width="33.0002" height="107" stroke="black" shape-rendering="crispEdges"/>
</g>
<defs>
<filter id="filter0_d_800_4870" x="0" y="0" width="42" height="116" filterUnits="userSpaceOnUse" color-interpolation-filters="sRGB">
<feFlood flood-opacity="0" result="BackgroundImageFix"/>
<feColorMatrix in="SourceAlpha" type="matrix" values="0 0 0 0 0 0 0 0 0 0 0 0 0 0 0 0 0 0 127 0" result="hardAlpha"/>
<feOffset dy="4"/>
<feGaussianBlur stdDeviation="2"/>
<feComposite in2="hardAlpha" operator="out"/>
<feColorMatrix type="matrix" values="0 0 0 0 0 0 0 0 0 0 0 0 0 0 0 0 0 0 0.25 0"/>
<feBlend mode="normal" in2="BackgroundImageFix" result="effect1_dropShadow_800_4870"/>
<feBlend mode="normal" in="SourceGraphic" in2="effect1_dropShadow_800_4870" result="shape"/>
</filter>
<clipPath id="clip0_800_4870">
<rect width="34.0002" height="48" fill="white" transform="translate(4 60)"/>
</clipPath>
</defs>
</svg>
