<svg width="72" height="54" viewBox="0 0 72 54" fill="none" xmlns="http://www.w3.org/2000/svg">
<g clip-path="url(#clip0_764_3722)">
<path d="M65.0778 49.6095C69.061 45.2464 71.451 40.4866 71.451 32.5536C71.451 18.6708 61.4928 6.37471 47.5514 0.0283241L43.9664 5.18476C57.1112 12.3245 59.8995 21.4474 60.6962 27.3971C58.7045 26.2072 55.9162 25.8105 53.128 26.2072C45.9581 27.0005 40.3815 32.5536 40.3815 40.0899C40.3815 43.6598 41.9748 47.2296 44.3648 50.0062C47.1531 52.7827 50.3397 53.9727 54.3229 53.9727C58.7045 53.9727 62.6878 51.9894 65.0778 49.6095ZM25.2451 49.6095C29.2284 45.2464 31.6183 40.4866 31.6183 32.5536C31.6183 18.6708 21.6601 6.37471 7.71871 0.0283241L4.13377 5.18476C17.2786 12.3245 20.0668 21.4474 20.8635 27.3971C18.8719 26.2072 16.0836 25.8105 13.2953 26.2072C6.1254 27.0005 0.548828 32.9502 0.548828 40.0899C0.548828 43.6598 2.14214 47.2296 4.5321 50.0062C7.32038 52.7827 10.507 53.9727 14.4903 53.9727C18.8719 53.9727 22.8551 51.9894 25.2451 49.6095Z" fill="#014FE5"/>
</g>
<defs>
<clipPath id="clip0_764_3722">
<rect width="71" height="54" fill="white" transform="matrix(1 0 0 -1 0.5 54)"/>
</clipPath>
</defs>
</svg>
