<svg width="14" height="14" viewBox="0 0 14 14" fill="none" xmlns="http://www.w3.org/2000/svg">
<g clip-path="url(#clip0_0_374)">
<path d="M2.11555 14H11.8844C12.9085 14 13.7407 13.1678 13.7407 12.1437V2.89332C13.7407 1.86925 12.9085 1.03702 11.8844 1.03702H11.1482V0.518509C11.1482 0.23332 10.9148 0 10.6296 0C10.3444 0 10.1111 0.23332 10.1111 0.518509V1.03702H3.8889V0.518509C3.8889 0.23332 3.65553 0 3.37034 0C3.08516 0 2.85183 0.23332 2.85183 0.518509V1.03702H2.11555C1.09148 1.03702 0.259247 1.86925 0.259247 2.89332V12.1437C0.259247 13.1678 1.09148 14 2.11555 14ZM1.29631 2.89332C1.29631 2.44222 1.66445 2.07408 2.11555 2.07408H2.85183V2.59259C2.85183 2.87778 3.08516 3.1111 3.37034 3.1111C3.65553 3.1111 3.88885 2.87778 3.88885 2.59259V2.07408H10.1111V2.59259C10.1111 2.87778 10.3444 3.1111 10.6296 3.1111C10.9148 3.1111 11.1481 2.87778 11.1481 2.59259V2.07408H11.8844C12.3355 2.07408 12.7036 2.44222 12.7036 2.89332V12.1437C12.7036 12.5948 12.3355 12.9629 11.8844 12.9629H2.11555C1.66445 12.9629 1.29631 12.5948 1.29631 12.1437V2.89332Z" fill="#6C7074"/>
<path d="M4.01853 5.9629C4.37648 5.9629 4.66666 5.67272 4.66666 5.31476C4.66666 4.95681 4.37648 4.66663 4.01853 4.66663C3.66057 4.66663 3.37039 4.95681 3.37039 5.31476C3.37039 5.67272 3.66057 5.9629 4.01853 5.9629Z" fill="#6C7074"/>
<path d="M6.87037 5.9629C7.22832 5.9629 7.5185 5.67272 7.5185 5.31476C7.5185 4.95681 7.22832 4.66663 6.87037 4.66663C6.51241 4.66663 6.22223 4.95681 6.22223 5.31476C6.22223 5.67272 6.51241 5.9629 6.87037 5.9629Z" fill="#6C7074"/>
<path d="M9.7222 5.9629C10.0802 5.9629 10.3703 5.67272 10.3703 5.31476C10.3703 4.95681 10.0802 4.66663 9.7222 4.66663C9.36425 4.66663 9.07407 4.95681 9.07407 5.31476C9.07407 5.67272 9.36425 5.9629 9.7222 5.9629Z" fill="#6C7074"/>
<path d="M4.01853 8.55555C4.37648 8.55555 4.66666 8.26537 4.66666 7.90741C4.66666 7.54946 4.37648 7.25928 4.01853 7.25928C3.66057 7.25928 3.37039 7.54946 3.37039 7.90741C3.37039 8.26537 3.66057 8.55555 4.01853 8.55555Z" fill="#6C7074"/>
<path d="M6.87037 8.55555C7.22832 8.55555 7.5185 8.26537 7.5185 7.90741C7.5185 7.54946 7.22832 7.25928 6.87037 7.25928C6.51241 7.25928 6.22223 7.54946 6.22223 7.90741C6.22223 8.26537 6.51241 8.55555 6.87037 8.55555Z" fill="#6C7074"/>
<path d="M9.7222 8.55555C10.0802 8.55555 10.3703 8.26537 10.3703 7.90741C10.3703 7.54946 10.0802 7.25928 9.7222 7.25928C9.36425 7.25928 9.07407 7.54946 9.07407 7.90741C9.07407 8.26537 9.36425 8.55555 9.7222 8.55555Z" fill="#6C7074"/>
<path d="M4.01853 11.1481C4.37648 11.1481 4.66666 10.8579 4.66666 10.4999C4.66666 10.142 4.37648 9.85181 4.01853 9.85181C3.66057 9.85181 3.37039 10.142 3.37039 10.4999C3.37039 10.8579 3.66057 11.1481 4.01853 11.1481Z" fill="#6C7074"/>
<path d="M6.87037 11.1481C7.22832 11.1481 7.5185 10.8579 7.5185 10.4999C7.5185 10.142 7.22832 9.85181 6.87037 9.85181C6.51241 9.85181 6.22223 10.142 6.22223 10.4999C6.22223 10.8579 6.51241 11.1481 6.87037 11.1481Z" fill="#6C7074"/>
<path d="M9.7222 11.1481C10.0802 11.1481 10.3703 10.8579 10.3703 10.4999C10.3703 10.142 10.0802 9.85181 9.7222 9.85181C9.36425 9.85181 9.07407 10.142 9.07407 10.4999C9.07407 10.8579 9.36425 11.1481 9.7222 11.1481Z" fill="#6C7074"/>
</g>
<defs>
<clipPath id="clip0_0_374">
<rect width="14" height="14" fill="white"/>
</clipPath>
</defs>
</svg>
