<svg width="71" height="69" viewBox="0 0 71 69" fill="none" xmlns="http://www.w3.org/2000/svg">
<circle cx="30.5" cy="38.5" r="30.5" fill="#DCE4EC"/>
<g clip-path="url(#clip0_725_3464)">
<path d="M62.4951 12.3901L56.7113 9.05082C55.4003 8.29407 53.7311 8.74533 52.9773 10.0513L48.6735 17.5058L45.4877 11.9877C44.7031 10.6289 43.4365 9.65701 41.921 9.2509C36.9142 7.90931 32.6877 13.3133 35.3138 17.8617C36.3849 19.7169 41.0482 27.7939 41.8909 29.2536L34.2089 42.5592C33.4537 43.8674 33.9008 45.5379 35.2095 46.2932L40.9932 49.6325C42.2996 50.3867 43.971 49.9423 44.7272 48.632C45.2194 47.7794 48.4076 42.2574 48.9031 41.3992C48.9436 41.4692 48.8627 41.3292 51.4038 45.7304C52.0807 46.9029 53.1495 47.8169 54.415 48.3037C57.0813 49.2688 57.4824 49.6335 58.4969 49.6335C60.0989 49.6335 61.5548 48.4772 61.8213 46.789C62.257 43.9891 62.8947 42.1376 61.5778 39.8563C60.678 38.2979 56.2477 30.6244 55.6857 29.6513C57.3076 26.8423 61.7358 19.1722 63.4956 16.1242C64.2508 14.8159 63.8036 13.1454 62.4951 12.3901ZM54.6661 11.0262C54.8828 10.6513 55.3612 10.5231 55.7363 10.7396L61.52 14.0789H61.5201C61.895 14.2954 62.0233 14.774 61.8067 15.149L60.7736 16.9384L58.1324 15.4134C57.6659 15.1441 57.0698 15.304 56.8004 15.7703C56.5311 16.2366 56.6909 16.8329 57.1573 17.1022L59.7986 18.6272L58.1525 21.4784L55.5113 19.9535C55.0448 19.6842 54.4486 19.8441 54.1794 20.3103C53.9101 20.7767 54.0699 21.373 54.5362 21.6423L57.1775 23.1672L55.5313 26.0184C52.7592 24.4326 52.8854 24.4581 52.6517 24.3962L49.7994 19.4558L54.6661 11.0262ZM51.8307 42.5698L38.709 19.8421L45.5051 15.9184C46.4936 17.6305 55.1787 32.6734 58.6268 38.6458C55.9305 38.9819 53.4694 40.4037 51.8307 42.5698ZM36.6105 13.9091C37.516 10.5305 42.0636 9.95762 43.7988 12.9628L44.5302 14.2296L37.734 18.1533C37.4036 17.388 36.0371 16.0497 36.6105 13.9091ZM43.0383 47.6569C42.8225 48.0304 42.3447 48.1607 41.9682 47.9435L36.1843 44.6042C35.8095 44.3877 35.6812 43.9093 35.8977 43.5341L43.0168 31.2035L47.7772 39.4489L47.6677 39.6386L45.0265 38.1136C44.56 37.8443 43.9639 38.0042 43.6945 38.4705C43.4252 38.9368 43.585 39.5331 44.0514 39.8024L46.6927 41.3274L45.0466 44.1786L42.4053 42.6536C41.9388 42.3844 41.3427 42.5442 41.0734 43.0105C40.8041 43.4768 40.9639 44.0731 41.4303 44.3424L44.0715 45.8674L43.0383 47.6569ZM57.9855 47.5872C55.0141 46.4434 55.1027 46.4821 54.9571 46.4188C53.4968 45.7836 53.0152 44.5761 52.9124 44.4432C54.3487 42.063 56.9291 40.5732 59.7087 40.5194C60.7774 42.5212 60.4798 42.639 59.8949 46.485C59.7541 47.377 58.8271 47.9109 57.9855 47.5872Z" fill="#0C0D0E"/>
<path d="M47.3724 25.0521C47.1031 24.5859 46.5069 24.4259 46.0404 24.6952C45.5741 24.9646 45.4143 25.5608 45.6836 26.0272L51.7344 36.5074C52.0046 36.9753 52.6013 37.1328 53.0663 36.8643C53.5327 36.595 53.6925 35.9987 53.4232 35.5324L47.3724 25.0521Z" fill="#0C0D0E"/>
<path d="M44.7485 21.4824C44.2101 21.4824 43.7734 21.9191 43.7734 22.4575C43.7734 22.9959 44.2101 23.4325 44.7485 23.4325H44.7508C45.2893 23.4325 45.7246 22.9959 45.7246 22.4575C45.7246 21.9191 45.2869 21.4824 44.7485 21.4824Z" fill="#0C0D0E"/>
<path d="M32.7202 14.2854C33.1013 13.905 33.102 13.2877 32.7217 12.9064L30.8424 11.0229C29.7 9.87794 27.848 9.87765 26.7053 11.0229L24.8259 12.9064C24.4456 13.2875 24.4462 13.9049 24.8274 14.2854C25.2075 14.6645 25.8248 14.6663 26.2065 14.2839L27.8019 12.685C27.8007 12.7045 27.7988 12.7239 27.7988 12.7437V26.1652C26.1736 26.5968 24.9723 28.0803 24.9723 29.8394C24.9723 31.5985 26.1737 33.082 27.7988 33.5136V46.9351C27.7988 46.9549 27.8006 46.9743 27.8018 46.9938L26.2064 45.395C25.8259 45.0138 25.2087 45.0132 24.8273 45.3934C24.4462 45.7738 24.4455 46.3912 24.8258 46.7724L26.7052 48.6559C27.8465 49.7999 29.6996 49.801 30.8423 48.656L32.7216 46.7724C33.1019 46.3912 33.1013 45.7739 32.7201 45.3934C32.3389 45.0132 31.7215 45.0137 31.341 45.395L29.7456 46.9939C29.7468 46.9744 29.7487 46.955 29.7487 46.9351V33.5136C31.3739 33.082 32.5752 31.5985 32.5752 29.8394C32.5752 28.0803 31.3738 26.5968 29.7487 26.1652C29.7482 22.297 29.7503 12.7618 29.7456 12.685L31.341 14.2839C31.7216 14.665 32.339 14.6656 32.7202 14.2854ZM30.6252 29.8394C30.6252 30.8603 29.7946 31.6909 28.7738 31.6909C27.753 31.6909 26.9223 30.8602 26.9223 29.8394C26.9223 28.8186 27.753 27.988 28.7738 27.988C29.7946 27.988 30.6252 28.8185 30.6252 29.8394Z" fill="#0C0D0E"/>
<path d="M66.6022 2.16419L64.7185 0.284755C64.3373 -0.0955189 63.7199 -0.0948363 63.3395 0.286315C62.9592 0.667565 62.9598 1.28488 63.3411 1.66535L64.94 3.26074C64.9205 3.25957 64.9011 3.25772 64.8812 3.25772H53.1752C52.7435 1.63249 51.26 0.43121 49.5009 0.43121C47.7418 0.43121 46.2584 1.63258 45.8267 3.25772C41.9171 3.2583 34.1395 3.25606 34.0619 3.26074L35.6608 1.66535C36.042 1.28497 36.0426 0.667662 35.6624 0.286315C35.282 -0.0947388 34.6646 -0.0955189 34.2833 0.284755L32.3998 2.16409C31.2549 3.30647 31.2546 5.1586 32.3998 6.30128L34.2833 8.18061C34.6634 8.55972 35.2807 8.56147 35.6624 8.17905C36.0426 7.7978 36.0421 7.18049 35.6608 6.80002L34.0619 5.20462C34.0814 5.20579 34.1008 5.20765 34.1207 5.20765H45.8267C46.2584 6.83288 47.7418 8.03416 49.5009 8.03416C51.26 8.03416 52.7435 6.83278 53.1752 5.20765H64.8812C64.9011 5.20765 64.9205 5.20579 64.94 5.20462L63.3411 6.80002C62.9599 7.18039 62.9592 7.7977 63.3395 8.17905C63.7187 8.55903 64.336 8.56215 64.7185 8.18061L66.6021 6.30128C67.7471 5.15889 67.7474 3.30676 66.6022 2.16419ZM49.5009 6.08423C48.48 6.08423 47.6495 5.25357 47.6495 4.23278C47.6495 3.21199 48.4801 2.38133 49.5009 2.38133C50.5217 2.38133 51.3524 3.21199 51.3524 4.23278C51.3524 5.25357 50.5218 6.08423 49.5009 6.08423Z" fill="#0C0D0E"/>
</g>
<defs>
<clipPath id="clip0_725_3464">
<rect width="50" height="50" fill="white" transform="translate(21)"/>
</clipPath>
</defs>
</svg>
