<svg width="71" height="69" viewBox="0 0 71 69" fill="none" xmlns="http://www.w3.org/2000/svg">
<circle cx="30.5" cy="38.5" r="30.5" fill="#DCE4EC"/>
<g clip-path="url(#clip0_725_3468)">
<path d="M70.8438 23.6485L68.9731 11.213C68.438 7.65643 65.3801 5.0293 61.7894 5.0293H30.2102C26.6132 5.0293 23.5607 7.66268 23.0266 11.213C22.6479 13.7096 21 24.4715 21 25.1447C21 27.8259 22.4622 30.1707 24.6301 31.4279C22.4622 32.6851 21 35.0298 21 37.7111C21 41.7141 24.2567 44.9709 28.2597 44.9709H63.74C67.743 44.9709 70.9997 41.7141 70.9997 37.7111C70.9997 35.0299 69.5375 32.6852 67.3696 31.428C70.0893 29.8507 71.4905 26.7228 70.8438 23.6485ZM22.9735 24.6945L23.0766 24.0097C23.5979 21.6273 25.7232 19.8381 28.2596 19.8381H63.7399C66.2765 19.8381 68.402 21.6276 68.9232 24.0102L69.026 24.6939C69.2571 27.4276 66.7644 30.4514 63.3526 30.4514H28.6469C25.1762 30.4513 22.7486 27.3574 22.9735 24.6945ZM30.2102 6.98241H61.7895C64.4193 6.98241 66.6512 8.90779 67.0417 11.5036L68.2375 19.4524C66.9998 18.4724 65.4376 17.885 63.74 17.885H28.2597C26.5621 17.885 25 18.4723 23.7622 19.4523L24.958 11.5035C25.3493 8.903 27.5851 6.98241 30.2102 6.98241ZM69.0466 37.7111C69.0466 40.6372 66.666 43.0177 63.74 43.0177H28.2597C25.3337 43.0177 22.9531 40.6372 22.9531 37.7111C22.9531 34.7851 25.3337 32.4045 28.2597 32.4045H63.74C66.666 32.4044 69.0466 34.785 69.0466 37.7111Z" fill="#0C0D0E"/>
<path d="M53.475 22.0781H29.0593C27.3681 22.0781 25.9922 23.454 25.9922 25.1452C25.9922 26.8364 27.3681 28.2123 29.0593 28.2123H53.475C55.1662 28.2123 56.5421 26.8364 56.5421 25.1452C56.5421 23.454 55.1662 22.0781 53.475 22.0781ZM53.475 26.2592H29.0593C28.445 26.2592 27.9453 25.7595 27.9453 25.1452C27.9453 24.5309 28.445 24.0312 29.0593 24.0312H53.475C54.0893 24.0312 54.589 24.5309 54.589 25.1452C54.589 25.7595 54.0893 26.2592 53.475 26.2592Z" fill="#0C0D0E"/>
<path d="M53.475 34.6445H29.0593C27.3681 34.6445 25.9922 36.0204 25.9922 37.7116C25.9922 39.4028 27.3681 40.7787 29.0593 40.7787H53.475C55.1662 40.7787 56.5421 39.4028 56.5421 37.7116C56.5421 36.0204 55.1662 34.6445 53.475 34.6445ZM53.475 38.8256H29.0593C28.445 38.8256 27.9453 38.3259 27.9453 37.7116C27.9453 37.0973 28.445 36.5976 29.0593 36.5976H53.475C54.0893 36.5976 54.589 37.0973 54.589 37.7116C54.589 38.3259 54.0893 38.8256 53.475 38.8256Z" fill="#0C0D0E"/>
<path d="M66.0392 25.1455C66.0392 23.2538 64.5002 21.7148 62.6085 21.7148C60.7168 21.7148 59.1777 23.2538 59.1777 25.1455C59.1777 27.0372 60.7168 28.5762 62.6085 28.5762C64.5002 28.5762 66.0392 27.0372 66.0392 25.1455ZM62.6085 26.623C61.7937 26.623 61.1309 25.9603 61.1309 25.1455C61.1309 24.3308 61.7937 23.668 62.6085 23.668C63.4232 23.668 64.086 24.3309 64.086 25.1455C64.086 25.9603 63.4232 26.623 62.6085 26.623Z" fill="#0C0D0E"/>
<path d="M59.1777 37.7119C59.1777 39.6036 60.7168 41.1426 62.6085 41.1426C64.5002 41.1426 66.0392 39.6036 66.0392 37.7119C66.0392 35.8202 64.5002 34.2812 62.6085 34.2812C60.7168 34.2812 59.1777 35.8202 59.1777 37.7119ZM64.086 37.7119C64.086 38.5267 63.4232 39.1895 62.6085 39.1895C61.7937 39.1895 61.1309 38.5267 61.1309 37.7119C61.1309 36.8972 61.7937 36.2344 62.6085 36.2344C63.4232 36.2344 64.086 36.8972 64.086 37.7119Z" fill="#0C0D0E"/>
<path d="M32.6914 10.791H50.0046C50.5438 10.791 50.9811 10.3538 50.9811 9.81445C50.9811 9.2751 50.5438 8.83789 50.0046 8.83789H32.6914C32.152 8.83789 31.7148 9.2751 31.7148 9.81445C31.7148 10.3538 32.152 10.791 32.6914 10.791Z" fill="black"/>
<path d="M53.9103 10.791H53.9127C54.452 10.791 54.888 10.3538 54.888 9.81445C54.888 9.2751 54.4495 8.83789 53.9102 8.83789C53.3708 8.83789 52.9336 9.2751 52.9336 9.81445C52.9336 10.3538 53.371 10.791 53.9103 10.791Z" fill="black"/>
</g>
<defs>
<clipPath id="clip0_725_3468">
<rect width="50" height="50" fill="white" transform="translate(21)"/>
</clipPath>
</defs>
</svg>
