<svg width="71" height="69" viewBox="0 0 71 69" fill="none" xmlns="http://www.w3.org/2000/svg">
<circle cx="30.5" cy="38.5" r="30.5" fill="#DCE4EC"/>
<path d="M65.5048 22.2493C65.5048 20.2148 63.8497 18.5598 61.8153 18.5598H57.1514V10.7285C57.1514 10.3267 57.3442 9.94404 57.6673 9.70498C58.6414 8.98398 59.2229 7.82998 59.2229 6.61807V2.7126C59.2229 1.21689 58.0061 0 56.5104 0H52.6486C51.1528 0 49.9359 1.21689 49.9359 2.7126V6.61797C49.9359 7.82988 50.5175 8.98389 51.4917 9.70488C51.8147 9.94394 52.0075 10.3266 52.0075 10.7284V18.5596H42.8778V16.0757C42.8778 14.6539 43.6658 13.3719 44.9345 12.73C47.0484 11.6602 48.3617 9.52373 48.3617 7.15439V6.00273C48.3617 3.68984 47.1163 1.53652 45.1115 0.383105C43.7862 -0.379297 42.1166 0.479492 41.9633 1.99844L41.7291 4.31865C41.5514 6.07998 40.0823 7.4083 38.312 7.4083C36.5417 7.4083 35.0727 6.07998 34.8949 4.31855L34.6607 1.99844C34.5072 0.477637 32.8361 -0.378223 31.5124 0.383105C29.5073 1.53643 28.2619 3.68984 28.2619 6.00273V7.15469C28.2619 9.52402 29.5751 11.6604 31.6892 12.7303C32.9577 13.3722 33.7458 14.6542 33.7458 16.076V18.5599H30.1837C28.1493 18.5599 26.4942 20.2149 26.4942 22.2494C26.4942 22.992 26.4941 40.3787 26.4941 41.1231C26.4941 43.1576 28.1492 44.8127 30.1837 44.8127H42.2236L41.602 48.0469H39.2693C38.7301 48.0469 38.2928 48.4842 38.2928 49.0234C38.2928 49.5627 38.7301 50 39.2693 50H52.7297C53.2689 50 53.7062 49.5627 53.7062 49.0234C53.7062 48.4842 53.2689 48.0469 52.7297 48.0469H50.3971L49.7754 44.8126H61.8153C63.8498 44.8126 65.5049 43.1575 65.5049 41.123C65.5049 40.378 65.5048 22.9944 65.5048 22.2493ZM51.5441 32.4487V24.0297C51.5441 23.7935 51.7363 23.6013 51.9726 23.6013H57.1863C57.4226 23.6013 57.6147 23.7935 57.6147 24.0297V32.4487C57.6147 34.1224 56.2531 35.484 54.5795 35.484C52.9036 35.484 51.5441 34.1202 51.5441 32.4487ZM51.8891 6.61807V2.7126C51.8891 2.29385 52.2298 1.95312 52.6486 1.95312H56.5104C56.9291 1.95312 57.2698 2.29385 57.2698 2.7126V6.61797C57.2698 7.21357 56.984 7.78066 56.5055 8.13496C55.6869 8.74063 55.1982 9.71025 55.1982 10.7285V21.6481H53.9605C53.9605 20.6143 53.9605 11.9831 53.9605 10.7285C53.9605 9.71025 53.472 8.74082 52.6535 8.13496C52.1748 7.78076 51.8891 7.21357 51.8891 6.61807ZM32.5711 10.9875C31.1178 10.2521 30.215 8.7834 30.215 7.15469V6.00273C30.215 4.38662 31.0853 2.88203 32.486 2.07607C32.5891 2.01699 32.7063 2.08711 32.7172 2.19473L32.9514 4.51475C33.2301 7.27783 35.5346 9.36143 38.3117 9.36143C41.0889 9.36143 43.3933 7.27783 43.6721 4.51484L43.9062 2.19473C43.9177 2.08203 44.0392 2.01973 44.1373 2.07607C45.5382 2.88203 46.4084 4.38662 46.4084 6.00273V7.15469C46.4084 8.7834 45.5057 10.2521 44.0523 10.9875C42.123 11.9639 40.9246 13.9137 40.9246 16.0759V19.5363C40.9198 33.7216 40.9367 32.9497 40.9111 33.2009C40.7771 34.5167 39.6624 35.5469 38.3117 35.5469C36.8695 35.5469 35.6988 34.3733 35.6988 32.9341C35.6988 31.09 35.6988 17.7779 35.6988 16.0759C35.6988 13.9137 34.5004 11.9639 32.5711 10.9875ZM30.1837 20.5129H33.7458V32.9341C33.7458 35.4518 35.7941 37.5001 38.3118 37.5001C40.8295 37.5001 42.8778 35.4518 42.8778 32.9341V20.5129H52.0075V21.6482H51.9727C50.6595 21.6482 49.5911 22.7165 49.5911 24.0298V32.4488C49.5911 35.1994 51.8289 37.4372 54.5795 37.4372C57.3301 37.4372 59.5679 35.1994 59.5679 32.4488V24.0298C59.5679 22.7166 58.4996 21.6482 57.1863 21.6482H57.1515V20.5129H61.8154C62.7729 20.5129 63.5518 21.2919 63.5518 22.2493V38.1923H28.4474V22.2493C28.4474 21.2918 29.2263 20.5129 30.1837 20.5129ZM48.4081 48.0469H43.5909L44.2125 44.8126H47.7865L48.4081 48.0469ZM30.1837 42.8595C29.2263 42.8595 28.4474 42.0805 28.4474 41.123V40.1454H63.5518V41.123C63.5518 42.0806 62.7728 42.8595 61.8154 42.8595C60.6202 42.8595 31.5077 42.8595 30.1837 42.8595Z" fill="#0C0D0E"/>
<path d="M38.3125 33.2628C38.8518 33.2628 39.2891 32.8255 39.2891 32.2862V26.5312C39.2891 25.992 38.8518 25.5547 38.3125 25.5547C37.7732 25.5547 37.3359 25.992 37.3359 26.5312V32.2862C37.3359 32.8256 37.7732 33.2628 38.3125 33.2628Z" fill="#0C0D0E"/>
<path d="M54.5801 24.9883C54.0408 24.9883 53.6035 25.4256 53.6035 25.9648V31.4499C53.6035 31.9892 54.0408 32.4265 54.5801 32.4265C55.1193 32.4265 55.5566 31.9892 55.5566 31.4499V25.9648C55.5566 25.4255 55.1194 24.9883 54.5801 24.9883Z" fill="black"/>
<path d="M38.1199 21.6679C37.0785 21.8793 37.0759 23.3709 38.1199 23.5828C38.7206 23.7027 39.288 23.2442 39.288 22.6258C39.288 22.0146 38.724 21.5458 38.1199 21.6679Z" fill="black"/>
</svg>
