<svg width="158" height="30" viewBox="0 0 158 30" fill="none" xmlns="http://www.w3.org/2000/svg">
<path d="M2.376 29.5V2.68H6.66L21.06 21.652L18.756 22.192V2.68H24.336V29.5H20.016L5.868 10.384L7.956 9.844V29.5H2.376ZM38.1668 29.932C36.0788 29.932 34.2668 29.476 32.7308 28.564C31.1948 27.628 30.0068 26.38 29.1668 24.82C28.3268 23.26 27.9067 21.532 27.9067 19.636C27.9067 17.668 28.3388 15.916 29.2028 14.38C30.0908 12.844 31.2788 11.632 32.7668 10.744C34.2548 9.856 35.9348 9.412 37.8068 9.412C39.3668 9.412 40.7468 9.664 41.9468 10.168C43.1468 10.648 44.1548 11.332 44.9708 12.22C45.8108 13.108 46.4468 14.14 46.8788 15.316C47.3108 16.468 47.5268 17.728 47.5268 19.096C47.5268 19.48 47.5028 19.864 47.4548 20.248C47.4308 20.608 47.3708 20.92 47.2748 21.184H32.5508V17.224H44.2148L41.6588 19.096C41.8988 18.064 41.8868 17.152 41.6228 16.36C41.3588 15.544 40.8908 14.908 40.2188 14.452C39.5708 13.972 38.7668 13.732 37.8068 13.732C36.8708 13.732 36.0668 13.96 35.3948 14.416C34.7228 14.872 34.2188 15.544 33.8828 16.432C33.5468 17.32 33.4148 18.4 33.4868 19.672C33.3908 20.776 33.5228 21.748 33.8828 22.588C34.2428 23.428 34.7948 24.088 35.5388 24.568C36.2828 25.024 37.1828 25.252 38.2388 25.252C39.1988 25.252 40.0148 25.06 40.6868 24.676C41.3828 24.292 41.9228 23.764 42.3068 23.092L46.6268 25.144C46.2428 26.104 45.6308 26.944 44.7908 27.664C43.9748 28.384 43.0028 28.948 41.8748 29.356C40.7468 29.74 39.5108 29.932 38.1668 29.932ZM57.7626 29.932C56.1786 29.932 54.8226 29.596 53.6946 28.924C52.5906 28.228 51.7506 27.268 51.1746 26.044C50.5986 24.82 50.3106 23.392 50.3106 21.76V9.844H55.7106V21.328C55.7106 22.072 55.8546 22.732 56.1426 23.308C56.4546 23.86 56.8866 24.292 57.4386 24.604C57.9906 24.916 58.6146 25.072 59.3106 25.072C60.0306 25.072 60.6546 24.916 61.1826 24.604C61.7346 24.292 62.1546 23.86 62.4426 23.308C62.7546 22.732 62.9106 22.072 62.9106 21.328V9.844H68.3106V29.5H63.2706V25.612L63.5586 26.476C63.1026 27.652 62.3586 28.528 61.3266 29.104C60.3186 29.656 59.1306 29.932 57.7626 29.932ZM72.2573 29.5V9.844H77.2973V14.56L76.9373 13.876C77.3693 12.22 78.0773 11.104 79.0613 10.528C80.0693 9.928 81.2573 9.628 82.6253 9.628H83.7773V14.308H82.0853C80.7653 14.308 79.6973 14.716 78.8813 15.532C78.0653 16.324 77.6573 17.452 77.6573 18.916V29.5H72.2573ZM95.9001 29.932C93.9561 29.932 92.1801 29.488 90.5721 28.6C88.9881 27.712 87.7161 26.5 86.7561 24.964C85.8201 23.404 85.3521 21.64 85.3521 19.672C85.3521 17.68 85.8201 15.916 86.7561 14.38C87.7161 12.844 88.9881 11.632 90.5721 10.744C92.1801 9.856 93.9561 9.412 95.9001 9.412C97.8441 9.412 99.6081 9.856 101.192 10.744C102.776 11.632 104.036 12.844 104.972 14.38C105.932 15.916 106.412 17.68 106.412 19.672C106.412 21.64 105.932 23.404 104.972 24.964C104.036 26.5 102.776 27.712 101.192 28.6C99.6081 29.488 97.8441 29.932 95.9001 29.932ZM95.9001 25.072C96.8841 25.072 97.7361 24.844 98.4561 24.388C99.2001 23.932 99.7761 23.296 100.184 22.48C100.616 21.664 100.832 20.728 100.832 19.672C100.832 18.616 100.616 17.692 100.184 16.9C99.7761 16.084 99.2001 15.448 98.4561 14.992C97.7361 14.512 96.8841 14.272 95.9001 14.272C94.9161 14.272 94.0521 14.512 93.3081 14.992C92.5641 15.448 91.9761 16.084 91.5441 16.9C91.1361 17.692 90.9321 18.616 90.9321 19.672C90.9321 20.728 91.1361 21.664 91.5441 22.48C91.9761 23.296 92.5641 23.932 93.3081 24.388C94.0521 24.844 94.9161 25.072 95.9001 25.072ZM109.593 29.5V9.844H114.633V13.732L114.345 12.868C114.801 11.692 115.533 10.828 116.541 10.276C117.573 9.7 118.773 9.412 120.141 9.412C121.629 9.412 122.925 9.724 124.029 10.348C125.157 10.972 126.033 11.848 126.657 12.976C127.281 14.08 127.593 15.376 127.593 16.864V29.5H122.193V18.016C122.193 17.248 122.037 16.588 121.725 16.036C121.437 15.484 121.017 15.052 120.465 14.74C119.937 14.428 119.313 14.272 118.593 14.272C117.897 14.272 117.273 14.428 116.721 14.74C116.169 15.052 115.737 15.484 115.425 16.036C115.137 16.588 114.993 17.248 114.993 18.016V29.5H109.593Z" fill="white"/>
<path fill-rule="evenodd" clip-rule="evenodd" d="M145.696 3.012H134.896V0.5H150V15.604H147.488V4.82L135.76 16.5L134 14.724L145.696 3.012Z" fill="#3CF2F2"/>
</svg>
