<svg width="1920" height="17" viewBox="0 0 1920 17" fill="none" xmlns="http://www.w3.org/2000/svg">
<path d="M176.245 16.3718C169.73 16.3718 166.337 12.6749 163.368 9.41233C160.518 6.29091 157.831 3.34319 152.495 3.34319C147.158 3.34319 144.466 6.29091 141.637 9.41233C138.657 12.6749 135.281 16.3718 128.739 16.3718C122.198 16.3718 118.837 12.6749 115.857 9.41233C113.018 6.29091 110.331 3.34319 105 3.34319C99.6691 3.34319 96.9766 6.29091 94.1429 9.41233C91.1735 12.6695 87.8023 16.3718 81.2663 16.3718C74.7303 16.3718 71.3429 12.6749 68.3626 9.41233C65.518 6.29091 62.8255 3.34319 57.4892 3.34319C52.1529 3.34319 49.4657 6.29091 46.632 9.41233C43.6572 12.6749 40.2806 16.3718 33.7446 16.3718C27.2086 16.3718 23.8374 12.6749 20.8571 9.41233C18.018 6.29091 15.3309 3.34319 10 3.34319C4.66916 3.34319 1.97116 6.29091 -0.857132 9.41233C-3.83199 12.6695 -7.19771 16.3718 -13.7391 16.3718C-20.2806 16.3718 -23.6571 12.6749 -26.6374 9.41233C-29.482 6.29091 -32.1691 3.34319 -37.5108 3.34319C-42.8526 3.34319 -45.5343 6.29091 -48.368 9.41233C-51.3428 12.6749 -54.7194 16.3718 -61.2554 16.3718C-67.7914 16.3718 -71.1626 12.6749 -74.1429 9.41233C-76.982 6.29091 -79.6691 3.34319 -85 3.34319C-90.3308 3.34319 -93.0234 6.29091 -95.8571 9.41233C-98.8266 12.6695 -102.198 16.3718 -108.734 16.3718C-115.27 16.3718 -118.657 12.6749 -121.632 9.41233C-124.477 6.29091 -127.164 3.34319 -132.5 3.34319C-137.836 3.34319 -140.529 6.29091 -143.357 9.41233C-146.343 12.6749 -149.714 16.3718 -156.25 16.3718C-162.786 16.3718 -166.157 12.6749 -169.143 9.41233C-171.971 6.29091 -174.664 3.34319 -180 3.34319V0.628906C-173.486 0.628906 -170.093 4.32576 -167.123 7.58833C-164.257 10.7098 -161.586 13.6575 -156.25 13.6575C-150.914 13.6575 -148.227 10.7098 -145.393 7.58833C-142.407 4.32576 -139.041 0.628906 -132.5 0.628906C-125.959 0.628906 -122.598 4.32576 -119.623 7.58833C-116.779 10.7098 -114.092 13.6575 -108.766 13.6575C-103.441 13.6575 -100.737 10.7098 -97.9091 7.58833C-94.9126 4.32576 -91.5143 0.628906 -85 0.628906C-78.4857 0.628906 -75.0928 4.32576 -72.1234 7.58833C-69.2571 10.7098 -66.5971 13.6575 -61.2554 13.6575C-55.9137 13.6575 -53.232 10.7098 -50.3983 7.58833C-47.4126 4.32576 -44.0468 0.628906 -37.5108 0.628906C-30.9749 0.628906 -27.6037 4.32576 -24.6289 7.58833C-21.7843 10.7098 -19.0971 13.6575 -13.7717 13.6575C-8.44629 13.6575 -5.74286 10.7098 -2.91457 7.58833C0.0874329 4.32576 3.45316 0.628906 10 0.628906C16.5469 0.628906 19.9017 4.32576 22.8766 7.58833C25.7429 10.7098 28.4029 13.6575 33.7446 13.6575C39.0863 13.6575 41.768 10.7098 44.6017 7.58833C47.582 4.32576 50.9532 0.628906 57.4892 0.628906C64.0252 0.628906 67.3963 4.32576 70.3657 7.58833C73.2157 10.7098 75.9029 13.6575 81.2229 13.6575C86.5429 13.6575 89.2517 10.7098 92.08 7.58833C95.082 4.32576 98.4532 0.628906 105 0.628906C111.547 0.628906 114.907 4.32576 117.882 7.58833C120.743 10.7098 123.403 13.6575 128.739 13.6575C134.075 13.6575 136.768 10.7098 139.596 7.58833C142.587 4.32576 145.953 0.628906 152.495 0.628906C159.036 0.628906 162.402 4.32576 165.371 7.58833C168.221 10.7098 170.908 13.6575 176.228 13.6575C181.548 13.6575 184.257 10.7098 187.085 7.58833C190.093 4.32576 193.486 0.628906 200 0.628906V3.34319C194.658 3.34319 191.971 6.29091 189.143 9.41233C186.152 12.6749 182.786 16.3718 176.245 16.3718Z" fill="#6C7074"/>
<path d="M556.245 16.3718C549.73 16.3718 546.337 12.6749 543.368 9.41233C540.518 6.29091 537.831 3.34319 532.495 3.34319C527.158 3.34319 524.466 6.29091 521.637 9.41233C518.657 12.6749 515.281 16.3718 508.739 16.3718C502.198 16.3718 498.837 12.6749 495.857 9.41233C493.018 6.29091 490.331 3.34319 485 3.34319C479.669 3.34319 476.977 6.29091 474.143 9.41233C471.173 12.6695 467.802 16.3718 461.266 16.3718C454.73 16.3718 451.343 12.6749 448.363 9.41233C445.518 6.29091 442.825 3.34319 437.489 3.34319C432.153 3.34319 429.466 6.29091 426.632 9.41233C423.657 12.6749 420.281 16.3718 413.745 16.3718C407.209 16.3718 403.837 12.6749 400.857 9.41233C398.018 6.29091 395.331 3.34319 390 3.34319C384.669 3.34319 381.971 6.29091 379.143 9.41233C376.168 12.6695 372.802 16.3718 366.261 16.3718C359.719 16.3718 356.343 12.6749 353.363 9.41233C350.518 6.29091 347.831 3.34319 342.489 3.34319C337.147 3.34319 334.466 6.29091 331.632 9.41233C328.657 12.6749 325.281 16.3718 318.745 16.3718C312.209 16.3718 308.837 12.6749 305.857 9.41233C303.018 6.29091 300.331 3.34319 295 3.34319C289.669 3.34319 286.977 6.29091 284.143 9.41233C281.173 12.6695 277.802 16.3718 271.266 16.3718C264.73 16.3718 261.343 12.6749 258.368 9.41233C255.523 6.29091 252.836 3.34319 247.5 3.34319C242.164 3.34319 239.471 6.29091 236.643 9.41233C233.657 12.6749 230.286 16.3718 223.75 16.3718C217.214 16.3718 213.843 12.6749 210.857 9.41233C208.029 6.29091 205.336 3.34319 200 3.34319V0.628906C206.514 0.628906 209.907 4.32576 212.877 7.58833C215.743 10.7098 218.414 13.6575 223.75 13.6575C229.086 13.6575 231.773 10.7098 234.607 7.58833C237.593 4.32576 240.959 0.628906 247.5 0.628906C254.041 0.628906 257.402 4.32576 260.377 7.58833C263.221 10.7098 265.908 13.6575 271.234 13.6575C276.559 13.6575 279.263 10.7098 282.091 7.58833C285.087 4.32576 288.486 0.628906 295 0.628906C301.514 0.628906 304.907 4.32576 307.877 7.58833C310.743 10.7098 313.403 13.6575 318.745 13.6575C324.086 13.6575 326.768 10.7098 329.602 7.58833C332.587 4.32576 335.953 0.628906 342.489 0.628906C349.025 0.628906 352.396 4.32576 355.371 7.58833C358.216 10.7098 360.903 13.6575 366.228 13.6575C371.554 13.6575 374.257 10.7098 377.085 7.58833C380.087 4.32576 383.453 0.628906 390 0.628906C396.547 0.628906 399.902 4.32576 402.877 7.58833C405.743 10.7098 408.403 13.6575 413.745 13.6575C419.086 13.6575 421.768 10.7098 424.602 7.58833C427.582 4.32576 430.953 0.628906 437.489 0.628906C444.025 0.628906 447.396 4.32576 450.366 7.58833C453.216 10.7098 455.903 13.6575 461.223 13.6575C466.543 13.6575 469.252 10.7098 472.08 7.58833C475.082 4.32576 478.453 0.628906 485 0.628906C491.547 0.628906 494.907 4.32576 497.882 7.58833C500.743 10.7098 503.403 13.6575 508.739 13.6575C514.075 13.6575 516.768 10.7098 519.596 7.58833C522.587 4.32576 525.953 0.628906 532.495 0.628906C539.036 0.628906 542.402 4.32576 545.371 7.58833C548.221 10.7098 550.908 13.6575 556.228 13.6575C561.548 13.6575 564.257 10.7098 567.085 7.58833C570.093 4.32576 573.486 0.628906 580 0.628906V3.34319C574.658 3.34319 571.971 6.29091 569.143 9.41233C566.152 12.6749 562.786 16.3718 556.245 16.3718Z" fill="#6C7074"/>
<path d="M936.245 16.3718C929.73 16.3718 926.338 12.6749 923.368 9.41233C920.518 6.29091 917.831 3.34319 912.495 3.34319C907.158 3.34319 904.466 6.29091 901.637 9.41233C898.657 12.6749 895.281 16.3718 888.739 16.3718C882.198 16.3718 878.837 12.6749 875.857 9.41233C873.018 6.29091 870.331 3.34319 865 3.34319C859.669 3.34319 856.977 6.29091 854.143 9.41233C851.173 12.6695 847.802 16.3718 841.266 16.3718C834.73 16.3718 831.343 12.6749 828.363 9.41233C825.518 6.29091 822.825 3.34319 817.489 3.34319C812.153 3.34319 809.466 6.29091 806.632 9.41233C803.657 12.6749 800.281 16.3718 793.745 16.3718C787.209 16.3718 783.837 12.6749 780.857 9.41233C778.018 6.29091 775.331 3.34319 770 3.34319C764.669 3.34319 761.971 6.29091 759.143 9.41233C756.168 12.6695 752.802 16.3718 746.261 16.3718C739.719 16.3718 736.343 12.6749 733.363 9.41233C730.518 6.29091 727.831 3.34319 722.489 3.34319C717.147 3.34319 714.466 6.29091 711.632 9.41233C708.657 12.6749 705.281 16.3718 698.745 16.3718C692.209 16.3718 688.837 12.6749 685.857 9.41233C683.018 6.29091 680.331 3.34319 675 3.34319C669.669 3.34319 666.977 6.29091 664.143 9.41233C661.173 12.6695 657.802 16.3718 651.266 16.3718C644.73 16.3718 641.343 12.6749 638.368 9.41233C635.523 6.29091 632.836 3.34319 627.5 3.34319C622.164 3.34319 619.471 6.29091 616.643 9.41233C613.657 12.6749 610.286 16.3718 603.75 16.3718C597.214 16.3718 593.843 12.6749 590.857 9.41233C588.029 6.29091 585.336 3.34319 580 3.34319V0.628906C586.514 0.628906 589.907 4.32576 592.877 7.58833C595.743 10.7098 598.414 13.6575 603.75 13.6575C609.086 13.6575 611.773 10.7098 614.607 7.58833C617.593 4.32576 620.959 0.628906 627.5 0.628906C634.041 0.628906 637.402 4.32576 640.377 7.58833C643.221 10.7098 645.908 13.6575 651.234 13.6575C656.559 13.6575 659.263 10.7098 662.091 7.58833C665.087 4.32576 668.486 0.628906 675 0.628906C681.514 0.628906 684.907 4.32576 687.877 7.58833C690.743 10.7098 693.403 13.6575 698.745 13.6575C704.086 13.6575 706.768 10.7098 709.602 7.58833C712.587 4.32576 715.953 0.628906 722.489 0.628906C729.025 0.628906 732.396 4.32576 735.371 7.58833C738.216 10.7098 740.903 13.6575 746.228 13.6575C751.554 13.6575 754.257 10.7098 757.085 7.58833C760.087 4.32576 763.453 0.628906 770 0.628906C776.547 0.628906 779.902 4.32576 782.877 7.58833C785.743 10.7098 788.403 13.6575 793.745 13.6575C799.086 13.6575 801.768 10.7098 804.602 7.58833C807.582 4.32576 810.953 0.628906 817.489 0.628906C824.025 0.628906 827.396 4.32576 830.366 7.58833C833.216 10.7098 835.903 13.6575 841.223 13.6575C846.543 13.6575 849.252 10.7098 852.08 7.58833C855.082 4.32576 858.453 0.628906 865 0.628906C871.547 0.628906 874.907 4.32576 877.882 7.58833C880.743 10.7098 883.403 13.6575 888.739 13.6575C894.075 13.6575 896.768 10.7098 899.596 7.58833C902.587 4.32576 905.953 0.628906 912.495 0.628906C919.036 0.628906 922.402 4.32576 925.371 7.58833C928.221 10.7098 930.908 13.6575 936.228 13.6575C941.548 13.6575 944.257 10.7098 947.085 7.58833C950.093 4.32576 953.486 0.628906 960 0.628906V3.34319C954.658 3.34319 951.971 6.29091 949.143 9.41233C946.152 12.6749 942.786 16.3718 936.245 16.3718Z" fill="#6C7074"/>
<path d="M1316.24 16.3718C1309.73 16.3718 1306.34 12.6749 1303.37 9.41233C1300.52 6.29091 1297.83 3.34319 1292.49 3.34319C1287.16 3.34319 1284.47 6.29091 1281.64 9.41233C1278.66 12.6749 1275.28 16.3718 1268.74 16.3718C1262.2 16.3718 1258.84 12.6749 1255.86 9.41233C1253.02 6.29091 1250.33 3.34319 1245 3.34319C1239.67 3.34319 1236.98 6.29091 1234.14 9.41233C1231.17 12.6695 1227.8 16.3718 1221.27 16.3718C1214.73 16.3718 1211.34 12.6749 1208.36 9.41233C1205.52 6.29091 1202.83 3.34319 1197.49 3.34319C1192.15 3.34319 1189.47 6.29091 1186.63 9.41233C1183.66 12.6749 1180.28 16.3718 1173.74 16.3718C1167.21 16.3718 1163.84 12.6749 1160.86 9.41233C1158.02 6.29091 1155.33 3.34319 1150 3.34319C1144.67 3.34319 1141.97 6.29091 1139.14 9.41233C1136.17 12.6695 1132.8 16.3718 1126.26 16.3718C1119.72 16.3718 1116.34 12.6749 1113.36 9.41233C1110.52 6.29091 1107.83 3.34319 1102.49 3.34319C1097.15 3.34319 1094.47 6.29091 1091.63 9.41233C1088.66 12.6749 1085.28 16.3718 1078.74 16.3718C1072.21 16.3718 1068.84 12.6749 1065.86 9.41233C1063.02 6.29091 1060.33 3.34319 1055 3.34319C1049.67 3.34319 1046.98 6.29091 1044.14 9.41233C1041.17 12.6695 1037.8 16.3718 1031.27 16.3718C1024.73 16.3718 1021.34 12.6749 1018.37 9.41233C1015.52 6.29091 1012.84 3.34319 1007.5 3.34319C1002.16 3.34319 999.471 6.29091 996.643 9.41233C993.657 12.6749 990.286 16.3718 983.75 16.3718C977.214 16.3718 973.843 12.6749 970.857 9.41233C968.029 6.29091 965.336 3.34319 960 3.34319V0.628906C966.514 0.628906 969.907 4.32576 972.877 7.58833C975.743 10.7098 978.414 13.6575 983.75 13.6575C989.086 13.6575 991.773 10.7098 994.607 7.58833C997.593 4.32576 1000.96 0.628906 1007.5 0.628906C1014.04 0.628906 1017.4 4.32576 1020.38 7.58833C1023.22 10.7098 1025.91 13.6575 1031.23 13.6575C1036.56 13.6575 1039.26 10.7098 1042.09 7.58833C1045.09 4.32576 1048.49 0.628906 1055 0.628906C1061.51 0.628906 1064.91 4.32576 1067.88 7.58833C1070.74 10.7098 1073.4 13.6575 1078.74 13.6575C1084.09 13.6575 1086.77 10.7098 1089.6 7.58833C1092.59 4.32576 1095.95 0.628906 1102.49 0.628906C1109.03 0.628906 1112.4 4.32576 1115.37 7.58833C1118.22 10.7098 1120.9 13.6575 1126.23 13.6575C1131.55 13.6575 1134.26 10.7098 1137.09 7.58833C1140.09 4.32576 1143.45 0.628906 1150 0.628906C1156.55 0.628906 1159.9 4.32576 1162.88 7.58833C1165.74 10.7098 1168.4 13.6575 1173.74 13.6575C1179.09 13.6575 1181.77 10.7098 1184.6 7.58833C1187.58 4.32576 1190.95 0.628906 1197.49 0.628906C1204.03 0.628906 1207.4 4.32576 1210.37 7.58833C1213.22 10.7098 1215.9 13.6575 1221.22 13.6575C1226.54 13.6575 1229.25 10.7098 1232.08 7.58833C1235.08 4.32576 1238.45 0.628906 1245 0.628906C1251.55 0.628906 1254.91 4.32576 1257.88 7.58833C1260.74 10.7098 1263.4 13.6575 1268.74 13.6575C1274.08 13.6575 1276.77 10.7098 1279.6 7.58833C1282.59 4.32576 1285.95 0.628906 1292.49 0.628906C1299.04 0.628906 1302.4 4.32576 1305.37 7.58833C1308.22 10.7098 1310.91 13.6575 1316.23 13.6575C1321.55 13.6575 1324.26 10.7098 1327.09 7.58833C1330.09 4.32576 1333.49 0.628906 1340 0.628906V3.34319C1334.66 3.34319 1331.97 6.29091 1329.14 9.41233C1326.15 12.6749 1322.79 16.3718 1316.24 16.3718Z" fill="#6C7074"/>
<path d="M1696.24 16.3718C1689.73 16.3718 1686.34 12.6749 1683.37 9.41233C1680.52 6.29091 1677.83 3.34319 1672.49 3.34319C1667.16 3.34319 1664.47 6.29091 1661.64 9.41233C1658.66 12.6749 1655.28 16.3718 1648.74 16.3718C1642.2 16.3718 1638.84 12.6749 1635.86 9.41233C1633.02 6.29091 1630.33 3.34319 1625 3.34319C1619.67 3.34319 1616.98 6.29091 1614.14 9.41233C1611.17 12.6695 1607.8 16.3718 1601.27 16.3718C1594.73 16.3718 1591.34 12.6749 1588.36 9.41233C1585.52 6.29091 1582.83 3.34319 1577.49 3.34319C1572.15 3.34319 1569.47 6.29091 1566.63 9.41233C1563.66 12.6749 1560.28 16.3718 1553.74 16.3718C1547.21 16.3718 1543.84 12.6749 1540.86 9.41233C1538.02 6.29091 1535.33 3.34319 1530 3.34319C1524.67 3.34319 1521.97 6.29091 1519.14 9.41233C1516.17 12.6695 1512.8 16.3718 1506.26 16.3718C1499.72 16.3718 1496.34 12.6749 1493.36 9.41233C1490.52 6.29091 1487.83 3.34319 1482.49 3.34319C1477.15 3.34319 1474.47 6.29091 1471.63 9.41233C1468.66 12.6749 1465.28 16.3718 1458.74 16.3718C1452.21 16.3718 1448.84 12.6749 1445.86 9.41233C1443.02 6.29091 1440.33 3.34319 1435 3.34319C1429.67 3.34319 1426.98 6.29091 1424.14 9.41233C1421.17 12.6695 1417.8 16.3718 1411.27 16.3718C1404.73 16.3718 1401.34 12.6749 1398.37 9.41233C1395.52 6.29091 1392.84 3.34319 1387.5 3.34319C1382.16 3.34319 1379.47 6.29091 1376.64 9.41233C1373.66 12.6749 1370.29 16.3718 1363.75 16.3718C1357.21 16.3718 1353.84 12.6749 1350.86 9.41233C1348.03 6.29091 1345.34 3.34319 1340 3.34319V0.628906C1346.51 0.628906 1349.91 4.32576 1352.88 7.58833C1355.74 10.7098 1358.41 13.6575 1363.75 13.6575C1369.09 13.6575 1371.77 10.7098 1374.61 7.58833C1377.59 4.32576 1380.96 0.628906 1387.5 0.628906C1394.04 0.628906 1397.4 4.32576 1400.38 7.58833C1403.22 10.7098 1405.91 13.6575 1411.23 13.6575C1416.56 13.6575 1419.26 10.7098 1422.09 7.58833C1425.09 4.32576 1428.49 0.628906 1435 0.628906C1441.51 0.628906 1444.91 4.32576 1447.88 7.58833C1450.74 10.7098 1453.4 13.6575 1458.74 13.6575C1464.09 13.6575 1466.77 10.7098 1469.6 7.58833C1472.59 4.32576 1475.95 0.628906 1482.49 0.628906C1489.03 0.628906 1492.4 4.32576 1495.37 7.58833C1498.22 10.7098 1500.9 13.6575 1506.23 13.6575C1511.55 13.6575 1514.26 10.7098 1517.09 7.58833C1520.09 4.32576 1523.45 0.628906 1530 0.628906C1536.55 0.628906 1539.9 4.32576 1542.88 7.58833C1545.74 10.7098 1548.4 13.6575 1553.74 13.6575C1559.09 13.6575 1561.77 10.7098 1564.6 7.58833C1567.58 4.32576 1570.95 0.628906 1577.49 0.628906C1584.03 0.628906 1587.4 4.32576 1590.37 7.58833C1593.22 10.7098 1595.9 13.6575 1601.22 13.6575C1606.54 13.6575 1609.25 10.7098 1612.08 7.58833C1615.08 4.32576 1618.45 0.628906 1625 0.628906C1631.55 0.628906 1634.91 4.32576 1637.88 7.58833C1640.74 10.7098 1643.4 13.6575 1648.74 13.6575C1654.08 13.6575 1656.77 10.7098 1659.6 7.58833C1662.59 4.32576 1665.95 0.628906 1672.49 0.628906C1679.04 0.628906 1682.4 4.32576 1685.37 7.58833C1688.22 10.7098 1690.91 13.6575 1696.23 13.6575C1701.55 13.6575 1704.26 10.7098 1707.09 7.58833C1710.09 4.32576 1713.49 0.628906 1720 0.628906V3.34319C1714.66 3.34319 1711.97 6.29091 1709.14 9.41233C1706.15 12.6749 1702.79 16.3718 1696.24 16.3718Z" fill="#6C7074"/>
<path d="M2076.24 16.3718C2069.73 16.3718 2066.34 12.6749 2063.37 9.41233C2060.52 6.29091 2057.83 3.34319 2052.49 3.34319C2047.16 3.34319 2044.47 6.29091 2041.64 9.41233C2038.66 12.6749 2035.28 16.3718 2028.74 16.3718C2022.2 16.3718 2018.84 12.6749 2015.86 9.41233C2013.02 6.29091 2010.33 3.34319 2005 3.34319C1999.67 3.34319 1996.98 6.29091 1994.14 9.41233C1991.17 12.6695 1987.8 16.3718 1981.27 16.3718C1974.73 16.3718 1971.34 12.6749 1968.36 9.41233C1965.52 6.29091 1962.83 3.34319 1957.49 3.34319C1952.15 3.34319 1949.47 6.29091 1946.63 9.41233C1943.66 12.6749 1940.28 16.3718 1933.74 16.3718C1927.21 16.3718 1923.84 12.6749 1920.86 9.41233C1918.02 6.29091 1915.33 3.34319 1910 3.34319C1904.67 3.34319 1901.97 6.29091 1899.14 9.41233C1896.17 12.6695 1892.8 16.3718 1886.26 16.3718C1879.72 16.3718 1876.34 12.6749 1873.36 9.41233C1870.52 6.29091 1867.83 3.34319 1862.49 3.34319C1857.15 3.34319 1854.47 6.29091 1851.63 9.41233C1848.66 12.6749 1845.28 16.3718 1838.74 16.3718C1832.21 16.3718 1828.84 12.6749 1825.86 9.41233C1823.02 6.29091 1820.33 3.34319 1815 3.34319C1809.67 3.34319 1806.98 6.29091 1804.14 9.41233C1801.17 12.6695 1797.8 16.3718 1791.27 16.3718C1784.73 16.3718 1781.34 12.6749 1778.37 9.41233C1775.52 6.29091 1772.84 3.34319 1767.5 3.34319C1762.16 3.34319 1759.47 6.29091 1756.64 9.41233C1753.66 12.6749 1750.29 16.3718 1743.75 16.3718C1737.21 16.3718 1733.84 12.6749 1730.86 9.41233C1728.03 6.29091 1725.34 3.34319 1720 3.34319V0.628906C1726.51 0.628906 1729.91 4.32576 1732.88 7.58833C1735.74 10.7098 1738.41 13.6575 1743.75 13.6575C1749.09 13.6575 1751.77 10.7098 1754.61 7.58833C1757.59 4.32576 1760.96 0.628906 1767.5 0.628906C1774.04 0.628906 1777.4 4.32576 1780.38 7.58833C1783.22 10.7098 1785.91 13.6575 1791.23 13.6575C1796.56 13.6575 1799.26 10.7098 1802.09 7.58833C1805.09 4.32576 1808.49 0.628906 1815 0.628906C1821.51 0.628906 1824.91 4.32576 1827.88 7.58833C1830.74 10.7098 1833.4 13.6575 1838.74 13.6575C1844.09 13.6575 1846.77 10.7098 1849.6 7.58833C1852.59 4.32576 1855.95 0.628906 1862.49 0.628906C1869.03 0.628906 1872.4 4.32576 1875.37 7.58833C1878.22 10.7098 1880.9 13.6575 1886.23 13.6575C1891.55 13.6575 1894.26 10.7098 1897.09 7.58833C1900.09 4.32576 1903.45 0.628906 1910 0.628906C1916.55 0.628906 1919.9 4.32576 1922.88 7.58833C1925.74 10.7098 1928.4 13.6575 1933.74 13.6575C1939.09 13.6575 1941.77 10.7098 1944.6 7.58833C1947.58 4.32576 1950.95 0.628906 1957.49 0.628906C1964.03 0.628906 1967.4 4.32576 1970.37 7.58833C1973.22 10.7098 1975.9 13.6575 1981.22 13.6575C1986.54 13.6575 1989.25 10.7098 1992.08 7.58833C1995.08 4.32576 1998.45 0.628906 2005 0.628906C2011.55 0.628906 2014.91 4.32576 2017.88 7.58833C2020.74 10.7098 2023.4 13.6575 2028.74 13.6575C2034.08 13.6575 2036.77 10.7098 2039.6 7.58833C2042.59 4.32576 2045.95 0.628906 2052.49 0.628906C2059.04 0.628906 2062.4 4.32576 2065.37 7.58833C2068.22 10.7098 2070.91 13.6575 2076.23 13.6575C2081.55 13.6575 2084.26 10.7098 2087.09 7.58833C2090.09 4.32576 2093.49 0.628906 2100 0.628906V3.34319C2094.66 3.34319 2091.97 6.29091 2089.14 9.41233C2086.15 12.6749 2082.79 16.3718 2076.24 16.3718Z" fill="#6C7074"/>
</svg>
