<svg width="48" height="48" viewBox="0 0 48 48" fill="none" xmlns="http://www.w3.org/2000/svg">
<path d="M41.9209 22.42C41.9209 20.3858 40.2659 18.7308 38.2316 18.7308H34.9062C33.7399 16.8212 32.5259 15.4942 31.8891 14.8585C30.9951 11.1304 29.8787 8.38763 29.8823 8.39701C28.9286 5.93502 27.1376 2.30907 26.331 1.20698C26.1293 0.917375 25.665 0.451416 25.1971 0.259688L25.1972 0.2595C24.448 -0.0864533 23.5534 -0.086547 22.8041 0.2595L22.8042 0.259688C22.3369 0.451134 21.8734 0.915969 21.6712 1.20567C21.0963 1.99077 19.3246 5.23542 18.1192 8.39654C18.1191 8.39672 18.119 8.39691 18.1189 8.39719C18.1185 8.39823 18.1181 8.39926 18.1178 8.40019C18.1176 8.40066 18.1174 8.40123 18.1172 8.40169C18.1172 8.40169 18.1172 8.40188 18.1171 8.40188C17.3176 10.4679 16.6442 12.6393 16.1112 14.8595C15.4744 15.4962 14.2599 16.8247 13.0953 18.7307H9.76969C7.73541 18.7307 6.08045 20.3857 6.08045 22.4199C6.08045 23.7982 6.08008 37.5015 6.08008 39.0873C6.08008 41.1219 7.73531 42.777 9.76978 42.777H20.709L20.0511 46.1248H18.2032C17.6854 46.1248 17.2656 46.5445 17.2656 47.0623C17.2656 47.5802 17.6854 47.9999 18.2032 47.9999H29.7982C30.3159 47.9999 30.7357 47.5802 30.7357 47.0623C30.7357 46.5445 30.3159 46.1248 29.7982 46.1248H27.9503L27.2923 42.777H38.2316C40.2661 42.777 41.9213 41.1218 41.9213 39.0873C41.9213 37.5088 41.9209 23.775 41.9209 22.42ZM20.2262 33.0073L20.4358 31.9989H23.0631V35.0727H21.8906C20.8101 35.0624 20.0068 34.0668 20.2262 33.0073ZM16.4599 28.8881C16.4202 25.8836 16.6118 22.8136 17.0602 19.8059C17.5744 16.3373 18.4392 12.9088 19.6404 9.67329H28.3609C29.5818 12.9618 30.4931 16.5457 31.0209 20.361C31.5507 24.1902 31.5976 28.4091 31.5347 29.0144C31.4721 29.6469 30.9406 30.1238 30.2981 30.1238C26.7688 30.1238 21.701 30.1238 17.7032 30.1238C17.0181 30.1238 16.4688 29.5726 16.4599 28.8881ZM27.4248 34.4404C26.6831 35.3515 25.6784 34.9925 24.9383 35.0728V31.999H27.5657C27.621 32.6021 28.1529 33.546 27.4248 34.4404ZM40.0458 36.9478V39.0878C40.0458 40.0881 39.2319 40.9019 38.2316 40.9019H9.76969C8.76942 40.9019 7.95554 40.0881 7.95554 39.0878V36.9478H40.0458ZM38.2316 20.6059C39.2319 20.6059 40.0458 21.4197 40.0458 22.42V35.0727H29.2482C30.0519 33.6008 29.5041 32.3153 29.4808 31.9989C30.242 31.9963 30.3339 32.0061 30.5601 31.9876C31.7576 31.8894 32.7697 31.1217 33.1969 30.0441H34.4262C36.4417 30.0441 37.9897 28.2508 37.6897 26.2599C37.4082 24.3958 36.8315 22.478 35.9289 20.6059H38.2316ZM35.8355 26.5396C35.8977 26.9526 35.7814 27.355 35.508 27.6727C34.8893 28.3915 34.0838 28.1031 33.4219 28.1691C33.4242 25.0361 33.1818 21.8496 32.6715 18.7328C34.2661 21.0355 35.4037 23.6806 35.8355 26.5396ZM23.1722 2.32988C23.1876 2.30982 23.2023 2.2891 23.2163 2.26763C23.5539 1.74813 24.4458 1.74645 24.785 2.26763C25.7941 3.82104 26.9221 6.20353 27.6095 7.7982H20.3826C21.4668 5.24592 22.7725 2.88706 23.1722 2.32988ZM14.5798 28.1691H13.5752C12.7239 28.1691 12.034 27.4156 12.1658 26.5399C12.5896 23.7336 13.7068 21.0757 15.3297 18.7336C14.8196 21.8471 14.5773 25.0389 14.5798 28.1691ZM9.76969 20.6059H12.0727C11.1713 22.4751 10.594 24.3914 10.3117 26.2603C10.169 27.2078 10.4462 28.1685 11.0722 28.8959C12.4009 30.4397 14.1512 29.9555 14.8098 30.0442C15.2709 31.2071 16.4159 31.999 17.7032 31.999H18.5205C18.4971 32.3167 17.9485 33.5994 18.753 35.0728H7.95554V22.42C7.95554 21.4198 8.76942 20.6059 9.76969 20.6059ZM26.0392 46.1249H21.9621L22.62 42.7771H25.3812L26.0392 46.1249Z" fill="#F1F1F1"/>
<path d="M24.0009 25.3704C26.0224 25.3704 27.7976 23.9376 28.2218 21.9637C28.3307 21.4575 28.0085 20.959 27.5022 20.8501C26.9954 20.7411 26.4974 21.0635 26.3886 21.5698C26.1488 22.6855 25.1446 23.4954 24.0009 23.4954C22.6543 23.4954 21.5587 22.3998 21.5587 21.0532C21.5587 19.8916 22.3837 18.8843 23.5205 18.658C24.0284 18.557 24.3581 18.0634 24.257 17.5556C24.1561 17.0478 23.6625 16.7178 23.1546 16.819C21.1434 17.2193 19.6836 19 19.6836 21.0532C19.6836 23.4337 21.6204 25.3704 24.0009 25.3704Z" fill="#F1F1F1"/>
<path d="M26.4238 19.6373C26.9218 19.6373 27.3613 19.236 27.3613 18.6998C27.3613 18.1019 26.8112 17.6653 26.241 17.7801C25.7883 17.8724 25.4863 18.2661 25.4863 18.6998C25.4863 19.2404 25.9305 19.6373 26.4238 19.6373Z" fill="#F1F1F1"/>
</svg>
