<svg width="48" height="48" viewBox="0 0 48 48" fill="none" xmlns="http://www.w3.org/2000/svg">
<g clip-path="url(#clip0_717_4174)">
<path d="M39.8333 11.8942L34.2809 8.68847C33.0224 7.96199 31.4199 8.3952 30.6963 9.64896L26.5646 16.8052L23.5062 11.5079C22.7531 10.2034 21.5371 9.27042 20.0822 8.88055C15.2756 7.59262 11.2183 12.7805 13.7393 17.1469C14.7675 18.9279 19.2443 26.6819 20.0533 28.0831L12.6786 40.8565C11.9536 42.1124 12.3828 43.7161 13.6391 44.4412L19.1915 47.6469C20.4457 48.3709 22.0502 47.9443 22.7762 46.6864C23.2487 45.8679 26.3093 40.5668 26.785 39.7429C26.8239 39.8101 26.7462 39.6757 29.1857 43.9009C29.8355 45.0265 30.8616 45.9039 32.0764 46.3712C34.6361 47.2977 35.0212 47.6478 35.995 47.6478C37.533 47.6478 38.9307 46.5378 39.1865 44.9171C39.6048 42.2293 40.2169 40.4518 38.9527 38.2618C38.0889 36.7657 33.8358 29.3992 33.2964 28.465C34.8533 25.7683 39.1044 18.405 40.7938 15.4789C41.5188 14.2229 41.0895 12.6193 39.8333 11.8942ZM32.3175 10.5848C32.5255 10.2249 32.9848 10.1018 33.3449 10.3097L38.8973 13.5154H38.8974C39.2573 13.7233 39.3804 14.1828 39.1725 14.5428L38.1807 16.2605L35.6451 14.7965C35.1973 14.538 34.625 14.6915 34.3665 15.1391C34.1079 15.5869 34.2614 16.1593 34.7091 16.4178L37.2447 17.8818L35.6644 20.6189L33.1289 19.155C32.6811 18.8965 32.1087 19.05 31.8502 19.4976C31.5917 19.9453 31.7451 20.5177 32.1928 20.7763L34.7284 22.2402L33.1481 24.9774C30.4869 23.455 30.608 23.4794 30.3837 23.4201L27.6455 18.6773L32.3175 10.5848ZM29.5956 40.8667L16.9986 19.0481L23.523 15.2813C24.4719 16.9249 32.8096 31.3662 36.1198 37.0996C33.5313 37.4223 31.1687 38.7873 29.5956 40.8667ZM14.9841 13.3524C15.8534 10.1089 20.2191 9.55901 21.8849 12.4439L22.587 13.6601L16.0627 17.4269C15.7455 16.6922 14.4336 15.4074 14.9841 13.3524ZM21.1548 45.7503C20.9477 46.1088 20.4889 46.234 20.1275 46.0254L14.575 42.8197C14.2152 42.6119 14.092 42.1526 14.2999 41.7924L21.1341 29.9551L25.7042 37.8707L25.5991 38.0527L23.0635 36.5887C22.6156 36.3302 22.0433 36.4837 21.7848 36.9313C21.5263 37.3791 21.6797 37.9515 22.1274 38.21L24.663 39.674L23.0827 42.4111L20.5471 40.9471C20.0993 40.6887 19.527 40.8421 19.2685 41.2897C19.01 41.7374 19.1634 42.3098 19.6111 42.5684L22.1467 44.0324L21.1548 45.7503ZM35.5042 45.6834C32.6516 44.5853 32.7366 44.6225 32.5969 44.5617C31.195 43.952 30.7326 42.7928 30.6339 42.6652C32.0128 40.3802 34.49 38.95 37.1584 38.8983C38.1844 40.82 37.8987 40.9331 37.3371 44.6253C37.202 45.4816 36.3121 45.9942 35.5042 45.6834Z" fill="#F1F1F1"/>
<path d="M25.3172 24.0502C25.0586 23.6027 24.4863 23.449 24.0385 23.7076C23.5908 23.9661 23.4374 24.5385 23.6959 24.9862L29.5047 35.0473C29.7641 35.4964 30.337 35.6477 30.7834 35.3899C31.2311 35.1313 31.3845 34.5589 31.126 34.1112L25.3172 24.0502Z" fill="#F1F1F1"/>
<path d="M22.7974 20.623C22.2805 20.623 21.8613 21.0422 21.8613 21.5591C21.8613 22.076 22.2805 22.4952 22.7974 22.4952H22.7996C23.3165 22.4952 23.7345 22.076 23.7345 21.5591C23.7345 21.0422 23.3143 20.623 22.7974 20.623Z" fill="#F1F1F1"/>
<path d="M11.2504 13.7124C11.6163 13.3472 11.617 12.7546 11.2519 12.3885L9.44776 10.5803C8.35107 9.48118 6.57312 9.4809 5.47615 10.5803L3.6719 12.3885C3.30683 12.7544 3.30739 13.3471 3.67339 13.7124C4.03827 14.0763 4.63089 14.078 4.99726 13.7109L6.52884 12.1759C6.52772 12.1946 6.52594 12.2133 6.52594 12.2324V25.1169C4.96572 25.5313 3.81249 26.9554 3.81249 28.6442C3.81249 30.3329 4.96581 31.7571 6.52594 32.1715V45.056C6.52594 45.075 6.52763 45.0937 6.52875 45.1124L4.99717 43.5775C4.63192 43.2116 4.03939 43.2111 3.6733 43.576C3.30739 43.9412 3.30674 44.5339 3.6718 44.8999L5.47606 46.708C6.57171 47.8063 8.3507 47.8073 9.44766 46.7081L11.2518 44.8999C11.6169 44.5339 11.6163 43.9413 11.2503 43.576C10.8844 43.2111 10.2917 43.2115 9.92646 43.5775L8.39488 45.1125C8.396 45.0937 8.39778 45.0751 8.39778 45.056V32.1715C9.958 31.7571 11.1112 30.3329 11.1112 28.6442C11.1112 26.9554 9.95791 25.5313 8.39778 25.1169C8.39731 21.4035 8.39937 12.2497 8.39488 12.1759L9.92646 13.7109C10.2918 14.0768 10.8845 14.0773 11.2504 13.7124ZM9.2393 28.6442C9.2393 29.6242 8.44187 30.4216 7.46191 30.4216C6.48195 30.4216 5.68452 29.6242 5.68452 28.6442C5.68452 27.6642 6.48195 26.8668 7.46191 26.8668C8.44187 26.8668 9.2393 27.6641 9.2393 28.6442Z" fill="#F1F1F1"/>
<path d="M43.7759 2.07762L41.9676 0.273365C41.6016 -0.0916981 41.0089 -0.0910429 40.6437 0.274863C40.2787 0.640862 40.2792 1.23348 40.6452 1.59873L42.1802 3.13031C42.1615 3.12919 42.1428 3.12741 42.1237 3.12741H30.886C30.4716 1.56719 29.0475 0.413961 27.3587 0.413961C25.67 0.413961 24.2458 1.56728 23.8315 3.12741C20.0782 3.12797 12.6118 3.12582 12.5372 3.13031L14.0722 1.59873C14.4381 1.23357 14.4388 0.640956 14.0737 0.274863C13.7085 -0.0909493 13.1158 -0.0916981 12.7498 0.273365L10.9416 2.07753C9.84251 3.17421 9.84223 4.95226 10.9416 6.04923L12.7498 7.85339C13.1147 8.21733 13.7073 8.21901 14.0737 7.85189C14.4388 7.48589 14.4382 6.89327 14.0722 6.52802L12.5372 4.99644C12.556 4.99756 12.5746 4.99934 12.5937 4.99934H23.8315C24.2458 6.55957 25.67 7.71279 27.3587 7.71279C29.0475 7.71279 30.4716 6.55947 30.886 4.99934H42.1237C42.1428 4.99934 42.1615 4.99756 42.1802 4.99644L40.6452 6.52802C40.2793 6.89318 40.2787 7.4858 40.6437 7.85189C41.0078 8.21667 41.6004 8.21967 41.9676 7.85339L43.7758 6.04923C44.875 4.95254 44.8753 3.17449 43.7759 2.07762ZM27.3587 5.84086C26.3787 5.84086 25.5813 5.04343 25.5813 4.06347C25.5813 3.08351 26.3788 2.28608 27.3587 2.28608C28.3387 2.28608 29.1361 3.08351 29.1361 4.06347C29.1361 5.04343 28.3388 5.84086 27.3587 5.84086Z" fill="#F1F1F1"/>
</g>
<defs>
<clipPath id="clip0_717_4174">
<rect width="48" height="48" fill="white"/>
</clipPath>
</defs>
</svg>
