<svg width="48" height="48" viewBox="0 0 48 48" fill="none" xmlns="http://www.w3.org/2000/svg">
<g clip-path="url(#clip0_717_4164)">
<path d="M43.6348 4.66211H4.36528C1.95825 4.66211 0 6.62027 0 9.0273V38.974C0 41.3811 1.95825 43.3393 4.36528 43.3393H43.6348C46.0418 43.3393 48.0001 41.3811 48.0001 38.974C48.0001 38.1404 48.0001 9.80748 48.0001 9.0273C48 6.62027 46.0417 4.66211 43.6348 4.66211ZM1.875 9.0273C1.875 7.65423 2.99213 6.53702 4.36528 6.53702H43.6348C45.0079 6.53702 46.1251 7.65414 46.1251 9.0273V15.3577H1.875V9.0273ZM10.4479 41.4642V40.6535H11.7812C12.299 40.6535 12.7187 40.2337 12.7187 39.716C12.7187 39.1983 12.299 38.7785 11.7812 38.7785H10.4479V37.6128H11.7812C12.299 37.6128 12.7187 37.193 12.7187 36.6753C12.7187 36.1576 12.299 35.7378 11.7812 35.7378H10.4479V34.572H11.7812C12.299 34.572 12.7187 34.1522 12.7187 33.6345C12.7187 33.1168 12.299 32.697 11.7812 32.697H10.4479V31.5504C10.4479 31.4115 10.5609 31.2984 10.6999 31.2984H14.1092C14.2481 31.2984 14.3612 31.4114 14.3612 31.5504V41.4642H10.4479ZM25.7273 33.4189H24.9375V28.7435C24.9375 28.2258 24.5178 27.806 24 27.806C23.4822 27.806 23.0625 28.2258 23.0625 28.7435V33.4189H22.3045L19.5569 26.8266C19.3512 26.3331 19.4763 25.7582 19.8679 25.3959C21.1813 24.1814 22.8341 22.477 24.0161 20.6496C25.1942 22.477 26.8372 24.1823 28.1421 25.3974C28.5295 25.7581 28.6538 26.3301 28.4513 26.8207L25.7273 33.4189ZM20.9148 41.4642V35.8705C20.9148 35.5525 21.1734 35.2939 21.4913 35.2939H26.5087C26.8266 35.2939 27.0852 35.5525 27.0852 35.8705V41.4642H20.9148ZM34.357 31.2588C34.357 31.104 34.483 30.978 34.6379 30.978H35.2826C35.4374 30.978 35.5634 31.104 35.5634 31.2588V31.9565H34.357V31.2588ZM33.461 41.4642V34.0014C33.461 33.9077 33.5372 33.8315 33.6308 33.8315H36.2895C36.3832 33.8315 36.4594 33.9077 36.4594 34.0014V41.4642H33.461ZM43.6348 41.4642H38.3344V34.0014C38.3344 33.2995 37.9788 32.6791 37.4384 32.3108V31.2588C37.4384 30.2838 36.7876 29.4583 35.8977 29.1929V26.8941C35.8977 26.3764 35.478 25.9566 34.9602 25.9566C34.4424 25.9566 34.0227 26.3764 34.0227 26.8941V29.1929C33.1328 29.4584 32.482 30.2838 32.482 31.2588V32.3108C31.9417 32.6791 31.5861 33.2995 31.5861 34.0014V41.4642H28.9602V35.8705C28.9602 34.927 28.4242 34.1068 27.641 33.697L30.1844 27.5361C30.6837 26.3266 30.3764 24.9156 29.4199 24.025C28.1586 22.8505 25.8901 20.5495 24.8683 18.3348C24.5339 17.6097 23.5002 17.6098 23.1658 18.3348C22.1453 20.547 19.864 22.8458 18.5949 24.0192C17.6281 24.9133 17.3192 26.3313 17.8262 27.5478L20.3838 33.6845C19.5872 34.0898 19.0398 34.9172 19.0398 35.8705V41.4643H16.2362V31.5504C16.2362 30.3775 15.282 29.4234 14.1092 29.4234H10.6999C9.52706 29.4234 8.57288 30.3775 8.57288 31.5504V41.4642H4.36528C2.99213 41.4642 1.875 40.3471 1.875 38.974V17.2328H46.125V38.974C46.125 40.3471 45.0079 41.4642 43.6348 41.4642Z" fill="#F1F1F1"/>
<path d="M6.66164 8.39844C5.09817 8.39844 3.82617 9.67034 3.82617 11.2338C3.82617 12.7973 5.09817 14.0693 6.66164 14.0693C8.22511 14.0693 9.49711 12.7973 9.49711 11.2338C9.49711 9.67034 8.22511 8.39844 6.66164 8.39844ZM6.66164 12.1943C6.13205 12.1943 5.70117 11.7634 5.70117 11.2338C5.70117 10.7043 6.13205 10.2734 6.66164 10.2734C7.19123 10.2734 7.62211 10.7043 7.62211 11.2338C7.62211 11.7635 7.19123 12.1943 6.66164 12.1943Z" fill="#F1F1F1"/>
<path d="M14.3023 8.39844C12.7388 8.39844 11.4668 9.67034 11.4668 11.2338C11.4668 12.7973 12.7388 14.0693 14.3023 14.0693C15.8657 14.0693 17.1377 12.7973 17.1377 11.2338C17.1377 9.67034 15.8656 8.39844 14.3023 8.39844ZM14.3023 12.1943C13.7727 12.1943 13.3418 11.7634 13.3418 11.2338C13.3418 10.7043 13.7727 10.2734 14.3023 10.2734C14.8319 10.2734 15.2627 10.7043 15.2627 11.2338C15.2626 11.7635 14.8318 12.1943 14.3023 12.1943Z" fill="#F1F1F1"/>
<path d="M21.9429 8.39844C20.3794 8.39844 19.1074 9.67034 19.1074 11.2338C19.1074 12.7973 20.3794 14.0693 21.9429 14.0693C23.5064 14.0693 24.7784 12.7973 24.7784 11.2338C24.7784 9.67034 23.5064 8.39844 21.9429 8.39844ZM21.9429 12.1943C21.4133 12.1943 20.9824 11.7634 20.9824 11.2338C20.9824 10.7043 21.4133 10.2734 21.9429 10.2734C22.4725 10.2734 22.9034 10.7043 22.9034 11.2338C22.9034 11.7635 22.4725 12.1943 21.9429 12.1943Z" fill="#F1F1F1"/>
<path d="M23.817 24.7468C23.2991 24.8519 22.9803 25.3522 23.0811 25.8494C23.173 26.3007 23.5636 26.6041 23.9998 26.6041C24.5097 26.6041 24.9373 26.1893 24.9373 25.6666C24.9373 25.0667 24.3843 24.6326 23.817 24.7468Z" fill="#F1F1F1"/>
</g>
<defs>
<clipPath id="clip0_717_4164">
<rect width="48" height="48" fill="white"/>
</clipPath>
</defs>
</svg>
